<?xml version="1.0" encoding="UTF-8"?>
<svg id="Layer_2" data-name="Layer 2" xmlns="http://www.w3.org/2000/svg" viewBox="0 0 1076.19 991.26">
  <defs>
    <style>
      .cls-1 {
        fill: #f9f9f9;
      }
    </style>
  </defs>
  <g id="Branding_by_Patrick_Liddell" data-name="Branding by Patrick Liddell">
    <g id="Pattern_Geo_1">
      <path class="cls-1" d="M1071.89,0l.86,1.77-139.31,71.6L968.84,0h-4.79l-92.3,191.43L778.32,11.48l23.61-11.48h-9.43c-5.34,2.6-10.67,5.19-16.08,7.82l-4.06-7.82h-4.55l4.98,9.58c-46.15,22.45-94.09,45.77-140.17,68.19-24.61-11.96-49.74-24.17-74.75-36.32-.08-.04-.17-.08-.25-.12L601.26,0h-5.64l-41.73,39.51c-27.28-13.26-54.65-26.56-81.3-39.51h-8.88c28.48,13.84,57.85,28.11,87.17,42.36l-160.13,151.62L296.27,0h-4.31l37.23,76.45L188.85,3.14l1.53-3.14h-4.31l-.65,1.34-2.57-1.34h-8.36l9.23,4.82-89.63,184.3V0h-3.88v186.47L1.7,3.5,8.5,0H0v8.9l87.96,181.8L0,147.5v4.33l89.96,44.19-73.87,35.9L0,216.4v5.39l12.37,11.93-12.37,6.01v4.31l15.35-7.45,153.04,147.6c-24.84-.04-49.7-.08-74.54-.12-31.28-.05-62.57-.1-93.85-.15v3.88c31.28.05,62.57.1,93.85.15,24.79.03,49.59.08,74.38.12L14.59,534.87l-14.59-7.14v4.32l11.59,5.67-11.59,11.08v5.38l15.32-14.63,74.44,36.44-.3.62c-29.95,14.68-59.85,29.33-89.45,43.8v4.31c28.68-14.02,57.65-28.21,86.68-42.44l-63.55,130.17-.03-.02-3.33,6.91-2.83,5.81h.03S0,760.31,0,760.31v8.95l24.54-50.86,65.68-134.54v125.19h0v232.67L0,846.82v5.63l88.97,93.59L.98,991.26h8.49l80.75-41.5v41.5h3.88v-41.49l79.42,41.49h8.36l-86.54-45.21,115.05-121.77,28.59,58.7-52.66,108.28h4.31l50.51-103.85,50.58,103.85h4.31l-51.62-105.99c23.08,11.15,113.91,55.27,218.28,105.99h8.88c-101.22-49.18-191.07-92.83-220.85-107.24,57.73.12,221.72.25,380.79.38,25.85.02,51.79.04,77.43.06l-112.78,106.8h5.64l111.13-105.22,54.65,105.22h4.53l-31.42-60.5-.14.07-24.07-46.36c12.49.01,24.91.02,37.17.03,40.72.09,81.44.13,122.15.13,45.55.03,91.09.04,136.63.16-40.34,19.62-124.37,60.5-218.89,106.48h9.41l210.81-102.55-49.44,102.55h4.78l50.95-105.61.42-.2,51.2,105.81h4.3l-53.51-110.6,27.12-56.22,26.62,28v-5.63l-24.82-26.11,24.82-51.44v-10.07l-28.02,58.13-114.68-120.63c-.33-.67-.65-1.34-.97-2.02,45.88-22.22,94.3-45.82,143.67-69.96v-4.31c-48.54,23.74-96.13,46.93-141.37,68.85l141.37-135.07v-5.38l-146.5,139.98c-27.76-57.75-59.13-122.81-90.52-187.94-18.07-37.48-36.12-74.93-53.49-111l191.35,93.65,99.16,48.54h0v-4.32h0s-97.45-47.7-97.45-47.7l-189.35-92.69c95.63.17,191.21.31,286.8.46v-3.97l-286.57-.5,286.57-139.28v-4.58l-291.16,141.52,144.88-300.28,146.28,141.08v-5.39l-136.44-131.59,136.44,67.02v-4.33l-142.4-69.94L1074.44,5.27l1.75,3.62V0h0s-4.3,0-4.3,0ZM712.73,879.5l-156.31-148.85c26.45-12.92,51.8-25.26,75.17-36.59,3,1.47,6.04,2.96,8.81,4.32l132.66,65.09-60.34,116.03ZM130.19,648.88c-12.29-26.03-24.92-52.77-32.76-69.14l231.56,113.35-117.58,124.45-46.34-95.13h.02c-7.33-15.17-21.34-44.85-34.89-73.53ZM796.4,161.66c2.09,1.02,4.15,2.01,6.24,3.03.15.07.3.14.44.22,25.5,12.38,45.6,22.13,57.68,27.98,2.6,1.25,5.24,2.55,7.83,3.8l-116.57,123.27c-4.32-8.98-8.57-17.82-12.7-26.43l-.2.1c-44.26-91.85-81.36-168.9-100.43-208.58,33.55,16.31,65.92,32.03,95.39,46.35v.02c20.56,9.9,41.45,20.08,62.32,30.26ZM333.48,688.55c-24.07-46.33-51.84-99.29-78.78-150.67-5.26-10.03-10.56-20.14-15.85-30.23,81.7-40.06,163.53-80.1,238.77-116.56l-144.15,297.46ZM868.89,574.53l-231.66,112.24,90.05-186.76,141.61,74.52ZM634.35,451.11l89.49,47.09-89.49,185.59v-232.68ZM630.47,451.54v234.6l-91.27-187.39,91.27-47.21ZM636.43,447.83l100.75-106.54.2.2c4.51-4.76,9.05-9.58,13.56-14.35,9.03,18.73,18.29,37.95,27.68,57.44l-53.1,110.14-89.1-46.88ZM749.02,323.12l-114.67,121.26V84.96c20.66,43.01,63.95,132.9,114.67,238.16ZM630.47,443.37l-115.79-119.84,115.79-238.94v358.78ZM629.33,447.76l-91.83,47.49-53.15-109.12,28.53-58.88,116.45,120.51ZM482.2,390.57l51.85,106.47-138.05,71.4,86.19-177.87ZM482.19,381.7l-84.68-173.85,112.5,116.43-27.82,57.42ZM535.76,500.53l91,186.83c-30.41-14.89-70-34.17-109.69-53.49-45.79-22.29-91.5-44.54-123.04-60.03l141.73-73.31ZM639.59,689.93l97.75-47.36.11.22,129.87-62.93c-8.34,16.14-20.93,40.9-33.19,64.99-13.74,27-27.95,54.92-36.04,70.5l-23.11,44.45-35.17-17.26-.11.23-97.58-47.88c-1.92-.94-4.06-1.99-6.08-2.99,1.2-.58,2.47-1.2,3.65-1.77l-.1-.2ZM1016.45,878.29l-237.55-116.56,23.18-44.59c8.11-15.59,22.31-43.51,36.05-70.53,12.87-25.28,26.07-51.24,34.35-67.25,62.66,130.02,119.01,247.01,143.96,298.93ZM738.56,501.28l-.12.23-9.48-4.99,7.89-16.35.26.12,43.85-90.89c14.7,30.52,29.73,61.71,44.76,92.9,14.05,29.15,28.08,58.26,41.86,86.86l-129.03-67.89ZM753.95,323.96c14.56-15.4,29.14-30.82,43.72-46.26,22.25-23.55,44.37-46.97,66.33-70.18l-83.12,172.39c-9.23-19.17-18.23-37.88-26.93-55.95ZM511.82,320.56l-118.13-122.25c40.09-19.5,130.77-63.62,232.08-112.9l-113.95,235.15ZM478.21,382.38l-239.25-117.51,93.64-181.43,145.61,298.94ZM235.48,263.16l-136.69-67.14,228.92-111.57-92.23,178.71ZM474.05,384.66c-98.92-.17-197.8-.32-296.67-.46l59.81-115.88,236.86,116.34ZM474.02,388.54c-74.76,36.23-155.91,75.94-236.96,115.68-21.06-40.18-41.99-80.17-60.68-116.14,99.2.14,198.4.29,297.64.46ZM251.27,539.69c26.67,50.85,54.13,103.25,78.04,149.24l-230.25-112.7c23.69-11.62,47.37-23.23,70.87-34.76,21.7-10.65,43.57-21.37,65.44-32.1,5.31,10.13,10.63,20.27,15.9,30.32ZM391.39,577.95c16.65,16.05,43.46,41.7,70.38,67.45,27.99,26.79,55.98,53.57,72.42,69.44l1.35-1.39-1.34,1.41,15.51,14.76c-36.08,17.63-73.91,36.16-111.12,54.4-67.08,32.88-136.31,66.82-193.02,94.28l80.54-165.61,65.29-134.73ZM536.88,712.03h0c-16.45-15.86-44.45-42.64-72.44-69.42-23.67-22.65-47.26-45.23-63.94-61.27,31.01,15.19,72.88,35.59,114.87,56.03,40.6,19.75,81.16,39.51,111.83,54.53-23.01,11.15-47.86,23.25-73.76,35.9l-16.55-15.76ZM737.98,30.83l.11.23,36.6-17.81,92.74,178.56c-.94-.45-2.15-1.04-3.25-1.57-19.82-9.57-39.79-19.28-59.84-29.04-9.45-4.6-18.77-9.1-28.2-13.68-39.77-19.32-88.1-42.81-139.09-67.58,33.17-16.14,67.25-32.71,100.93-49.1ZM554.61,44.17c.52.25,1.04.51,1.56.76,24.08,11.7,48.26,23.46,72.01,35-97.15,47.26-185.17,90.08-228.95,111.37l155.38-147.13ZM187.16,6.62l140.66,73.48-231.19,112.67L187.16,6.62ZM19.06,234.78l75.31-36.6,139.34,68.44-60.36,116.96L19.06,234.78ZM18.31,536.7l154.31-147.43c18.76,36.1,39.79,76.3,60.96,116.67-21.85,10.71-43.68,21.42-65.35,32.05-24.39,11.97-48.98,24.03-73.57,36.09l-76.34-37.37ZM94.1,941.71v-232.66h0v-127.25c7.86,16.38,20.39,42.92,32.58,68.73,11.04,23.37,22.32,47.25,30.11,63.57l-.07.03,51.83,106.41-114.47,121.16ZM213.22,821.27l114.86-121.57-5.47,11.28-81.48,167.57-27.91-57.28ZM631.51,880.53c-159.18-.13-323.28-.26-380.89-.38,56.09-27.18,123.89-60.41,189.68-92.65,37.66-18.46,75.94-37.21,112.41-55.03l155.54,148.12c-25.42-.02-51.12-.04-76.73-.06ZM739.98,835.51l.44.23,36.57-70.34,235.41,115.5c-42.77-.09-144.13-.18-258.74-.28-7.82-.02-15.64,0-23.45-.02h0c-4.55,0-9.11,0-13.67,0l23.45-45.09ZM1046.36,821.07l-26.33,54.6-81.02-167.46s-.04-.08-.05-.12l107.41,112.98Z"/>
    </g>
  </g>
</svg>