<?xml version="1.0" encoding="UTF-8"?>
<svg id="Layer_2" data-name="Layer 2" xmlns="http://www.w3.org/2000/svg" xmlns:xlink="http://www.w3.org/1999/xlink" viewBox="0 0 883.61 208.28">
  <defs>
    <style>
      .cls-1 {
        fill: url(#linear-gradient-4);
      }

      .cls-2 {
        fill: url(#linear-gradient-3);
      }

      .cls-3 {
        fill: url(#linear-gradient-2);
      }

      .cls-4 {
        fill: url(#linear-gradient);
      }

      .cls-5 {
        fill: #898989;
      }
    </style>
    <linearGradient id="linear-gradient" x1="0" y1="63.53" x2="186" y2="63.53" gradientUnits="userSpaceOnUse">
      <stop offset="0" stop-color="#00dfaf"/>
      <stop offset="1" stop-color="#008a70"/>
    </linearGradient>
    <linearGradient id="linear-gradient-2" x1="157.73" y1="187.96" x2="157.74" y2="187.96" xlink:href="#linear-gradient"/>
    <linearGradient id="linear-gradient-3" x1="103.89" y1="183.06" x2="37.05" y2="76.27" xlink:href="#linear-gradient"/>
    <linearGradient id="linear-gradient-4" x1="123.9" y1="104.25" x2="110" y2="170.45" xlink:href="#linear-gradient"/>
  </defs>
  <g id="Branding_by_Patrick_Liddell" data-name="Branding by Patrick Liddell">
    <g id="Logo_V1_Dark">
      <g>
        <path class="cls-5" d="M458.5,27.62v25.97h-75.94c-28.61,0-41.15,14.3-41.15,48.41s12.32,48.19,41.15,48.19h39.41c14.52,0,20.69-8.8,20.69-20.91s-6.16-18.93-18.27-18.93h-47.77v-22.67h50.41c26.41,0,39.39,16.29,39.39,42.03s-12.98,46.43-46.21,46.43h-37.65c-43.35,0-67.12-24.43-67.12-74.16s23.99-74.38,67.12-74.38h75.94Z"/>
        <path class="cls-5" d="M538.8,27.62v148.54h-25.97V27.62h25.97Z"/>
        <path class="cls-5" d="M707.36,27.62v25.97h-50.73v122.57h-26.19V53.58h-50.73v-25.97h127.65Z"/>
        <path class="cls-5" d="M769.18,27.62l41.59,63.6,42.03-63.6h30.81l-59.86,84.5v64.04h-26.19v-64.04l-59.86-84.5h31.47Z"/>
      </g>
      <g>
        <path class="cls-5" d="M146.64,110.24h-48.6v48.6c26.84,0,48.6-21.76,48.6-48.6Z"/>
        <path class="cls-4" d="M98.04,52.46v.03h47.67c22.25,0,40.29-18.04,40.29-40.29h-87.96C54.43,12.2,17.39,40.82,4.69,80.26c-3.04,9.45-4.69,19.53-4.69,29.98,0,1.55.04,3.08.11,4.61,21.7-63.47,97.93-62.4,97.93-62.4Z"/>
        <polygon class="cls-3" points="157.73 187.96 157.73 187.96 157.74 187.96 157.73 187.96"/>
        <path class="cls-2" d="M43.21,128.54l-.47-.06.47.06c-1.23-3.81-1.66-6.16-1.66-6.16,0,0,.43,2.35,1.66,6.16h.04c-1.93-5.75-2.99-11.9-2.99-18.3,0-2.99.23-5.92.67-8.79,4.25-27.7,28.24-48.99,57.12-48.99,0,0-76.23-1.07-97.93,62.4,2.42,51.93,45.42,93.43,97.93,93.43,22.44,0,43.15-7.59,59.69-20.32h0c-84.37,10.2-108.64-41.26-114.52-59.42Z"/>
        <path class="cls-1" d="M155.83,110.24c0,31.91-25.87,57.78-57.78,57.78-25.47,0-47.12-16.56-54.8-39.48h-.04c5.88,18.16,30.15,69.61,114.52,59.41l-.02-.02.02.02s0,0,.01,0c23.3-17.94,38.35-46.1,38.35-77.72h-40.26Z"/>
      </g>
      <path class="cls-5" d="M256.6,203.77c-1.38,0-2.5-1.12-2.5-2.5V2.5c0-1.38,1.12-2.5,2.5-2.5s2.5,1.12,2.5,2.5v198.76c0,1.38-1.12,2.5-2.5,2.5Z"/>
    </g>
  </g>
</svg>