<?xml version="1.0" encoding="UTF-8"?>
<svg id="Layer_2" data-name="Layer 2" xmlns="http://www.w3.org/2000/svg" viewBox="0 0 883.65 208.28">
  <defs>
    <style>
      .cls-1 {
        fill: #fff;
      }
    </style>
  </defs>
  <g id="Branding_by_Patrick_Liddell" data-name="Branding by Patrick Liddell">
    <g id="Logo_V1_White">
      <g>
        <path class="cls-1" d="M458.54,27.62v25.97h-75.94c-28.61,0-41.15,14.3-41.15,48.41s12.32,48.19,41.15,48.19h39.41c14.52,0,20.69-8.8,20.69-20.91s-6.16-18.93-18.27-18.93h-47.77v-22.67h50.41c26.41,0,39.39,16.29,39.39,42.03s-12.98,46.43-46.21,46.43h-37.65c-43.35,0-67.12-24.43-67.12-74.16s23.99-74.38,67.12-74.38h75.94Z"/>
        <path class="cls-1" d="M538.84,27.62v148.54h-25.97V27.62h25.97Z"/>
        <path class="cls-1" d="M707.4,27.62v25.97h-50.73v122.57h-26.19V53.58h-50.73v-25.97h127.65Z"/>
        <path class="cls-1" d="M769.22,27.62l41.59,63.6,42.03-63.6h30.81l-59.86,84.5v64.04h-26.19v-64.04l-59.86-84.5h31.47Z"/>
      </g>
      <g>
        <path class="cls-1" d="M146.71,110.19h-48.62v48.62c26.85,0,48.62-21.77,48.62-48.62Z"/>
        <path class="cls-1" d="M98.09,52.38v.03h47.69c22.26,0,40.31-18.05,40.31-40.31h-88C54.46,12.11,17.4,40.74,4.7,80.2c-3.04,9.46-4.7,19.53-4.7,29.99,0,1.55.04,3.09.11,4.62,21.71-63.49,97.98-62.43,97.98-62.43Z"/>
        <polygon class="cls-1" points="157.8 187.95 157.81 187.95 157.81 187.95 157.8 187.95"/>
        <path class="cls-1" d="M43.23,128.5l-.47-.06.47.06c-1.24-3.81-1.66-6.16-1.66-6.16,0,0,.43,2.35,1.66,6.16h.04c-1.93-5.75-2.99-11.91-2.99-18.31,0-2.99.23-5.93.67-8.8,4.25-27.72,28.26-49.01,57.14-49.01,0,0-76.27-1.07-97.98,62.43,2.42,51.95,45.44,93.47,97.98,93.47,22.45,0,43.17-7.59,59.72-20.33h0c-84.41,10.2-108.69-41.28-114.58-59.45Z"/>
        <path class="cls-1" d="M155.9,110.19c0,31.93-25.88,57.81-57.81,57.81-25.48,0-47.14-16.57-54.82-39.5h-.04c5.88,18.16,30.17,69.65,114.58,59.44l-.02-.02.02.02s0,0,.01,0c23.31-17.95,38.36-46.12,38.36-77.75h-40.28Z"/>
      </g>
      <path class="cls-1" d="M256.64,203.77c-1.38,0-2.5-1.12-2.5-2.5V2.5c0-1.38,1.12-2.5,2.5-2.5s2.5,1.12,2.5,2.5v198.76c0,1.38-1.12,2.5-2.5,2.5Z"/>
    </g>
  </g>
</svg>