<?xml version="1.0" encoding="UTF-8"?>
<svg id="Layer_2" data-name="Layer 2" xmlns="http://www.w3.org/2000/svg" xmlns:xlink="http://www.w3.org/1999/xlink" viewBox="0 0 1131.18 773.05">
  <defs>
    <style>
      .cls-1 {
        fill: none;
      }

      .cls-2 {
        fill: url(#linear-gradient-8);
      }

      .cls-3 {
        fill: url(#linear-gradient-7);
      }

      .cls-4 {
        fill: url(#linear-gradient-5);
      }

      .cls-5 {
        fill: url(#linear-gradient-6);
      }

      .cls-6 {
        fill: url(#linear-gradient-9);
      }

      .cls-7 {
        fill: url(#linear-gradient-4);
      }

      .cls-8 {
        fill: url(#linear-gradient-3);
      }

      .cls-9 {
        fill: url(#linear-gradient-2);
      }

      .cls-10 {
        fill: url(#linear-gradient);
      }

      .cls-11 {
        fill: url(#linear-gradient-10);
      }

      .cls-12 {
        fill: url(#linear-gradient-11);
      }

      .cls-13 {
        fill: url(#linear-gradient-12);
      }

      .cls-14 {
        fill: url(#linear-gradient-13);
      }

      .cls-15 {
        fill: url(#linear-gradient-14);
      }

      .cls-16 {
        fill: url(#linear-gradient-15);
      }

      .cls-17 {
        clip-path: url(#clippath);
      }

      .cls-18 {
        fill: #898989;
      }
    </style>
    <clipPath id="clippath">
      <rect class="cls-1" width="1131.18" height="773.05"/>
    </clipPath>
    <linearGradient id="linear-gradient" x1="387.19" y1="311.27" x2="725.63" y2="311.27" gradientUnits="userSpaceOnUse">
      <stop offset="0" stop-color="#00dfaf"/>
      <stop offset="1" stop-color="#008a70"/>
    </linearGradient>
    <linearGradient id="linear-gradient-2" x1="674.18" y1="537.68" x2="674.2" y2="537.68" xlink:href="#linear-gradient"/>
    <linearGradient id="linear-gradient-3" x1="576.21" y1="528.77" x2="454.6" y2="334.46" xlink:href="#linear-gradient"/>
    <linearGradient id="linear-gradient-4" x1="612.62" y1="385.37" x2="587.34" y2="505.82" xlink:href="#linear-gradient"/>
    <linearGradient id="linear-gradient-5" x1="-178.4" y1="-85" x2="160.04" y2="-85" xlink:href="#linear-gradient"/>
    <linearGradient id="linear-gradient-6" x1="108.59" y1="141.41" x2="108.61" y2="141.41" xlink:href="#linear-gradient"/>
    <linearGradient id="linear-gradient-7" x1="10.62" y1="132.5" x2="-110.99" y2="-61.81" xlink:href="#linear-gradient"/>
    <linearGradient id="linear-gradient-8" x1="47.03" y1="-10.9" x2="21.75" y2="109.55" xlink:href="#linear-gradient"/>
    <linearGradient id="linear-gradient-9" x1="-178.4" y1="688.05" x2="160.04" y2="688.05" xlink:href="#linear-gradient"/>
    <linearGradient id="linear-gradient-10" x1="10.62" y1="905.55" x2="-110.99" y2="711.24" xlink:href="#linear-gradient"/>
    <linearGradient id="linear-gradient-11" x1="952.78" y1="-85" x2="1291.22" y2="-85" xlink:href="#linear-gradient"/>
    <linearGradient id="linear-gradient-12" x1="1141.8" y1="132.5" x2="1020.19" y2="-61.81" xlink:href="#linear-gradient"/>
    <linearGradient id="linear-gradient-13" x1="1178.22" y1="-10.9" x2="1152.93" y2="109.55" xlink:href="#linear-gradient"/>
    <linearGradient id="linear-gradient-14" x1="952.78" y1="688.05" x2="1291.22" y2="688.05" xlink:href="#linear-gradient"/>
    <linearGradient id="linear-gradient-15" x1="1141.8" y1="905.55" x2="1020.19" y2="711.24" xlink:href="#linear-gradient"/>
  </defs>
  <g id="Branding_by_Patrick_Liddell" data-name="Branding by Patrick Liddell">
    <g id="Pattern_Logo_1">
      <g class="cls-17">
        <g id="Logo_V3_Dark">
          <g>
            <path class="cls-18" d="M107.83,322v25.97h-50.73v122.57h-26.19v-122.57H-19.82v-25.97h127.65Z"/>
            <path class="cls-18" d="M169.64,322l41.59,63.6,42.03-63.6h30.81l-59.86,84.5v64.04h-26.19v-64.04l-59.86-84.5h31.47Z"/>
          </g>
        </g>
        <g id="Logo_V3_Dark-2" data-name="Logo_V3_Dark">
          <g>
            <path class="cls-18" d="M424.55-74.27v25.97h-75.94c-28.61,0-41.15,14.3-41.15,48.41s12.32,48.19,41.15,48.19h39.41c14.52,0,20.69-8.8,20.69-20.91s-6.16-18.93-18.27-18.93h-47.77V-14.19h50.41c26.41,0,39.39,16.29,39.39,42.03s-12.98,46.43-46.21,46.43h-37.65c-43.35,0-67.12-24.43-67.12-74.16s23.99-74.38,67.12-74.38h75.94Z"/>
            <path class="cls-18" d="M504.85-74.27V74.27h-25.97V-74.27h25.97Z"/>
            <path class="cls-18" d="M673.42-74.27v25.97h-50.73v122.57h-26.19V-48.3h-50.73v-25.97h127.65Z"/>
            <path class="cls-18" d="M735.23-74.27l41.59,63.6,42.03-63.6h30.81l-59.86,84.5v64.04h-26.19V10.23l-59.86-84.5h31.47Z"/>
          </g>
        </g>
        <g id="Logo_V3_Dark-3" data-name="Logo_V3_Dark">
          <g>
            <path class="cls-18" d="M424.55,698.78v25.97h-75.94c-28.61,0-41.15,14.3-41.15,48.41s12.32,48.19,41.15,48.19h39.41c14.52,0,20.69-8.8,20.69-20.91s-6.16-18.93-18.27-18.93h-47.77v-22.67h50.41c26.41,0,39.39,16.29,39.39,42.03s-12.98,46.43-46.21,46.43h-37.65c-43.35,0-67.12-24.43-67.12-74.16s23.99-74.38,67.12-74.38h75.94Z"/>
            <path class="cls-18" d="M504.85,698.78v148.54h-25.97v-148.54h25.97Z"/>
            <path class="cls-18" d="M673.42,698.78v25.97h-50.73v122.57h-26.19v-122.57h-50.73v-25.97h127.65Z"/>
            <path class="cls-18" d="M735.23,698.78l41.59,63.6,42.03-63.6h30.81l-59.86,84.5v64.04h-26.19v-64.04l-59.86-84.5h31.47Z"/>
          </g>
        </g>
        <g id="Logo_V3_Dark-4" data-name="Logo_V3_Dark">
          <g>
            <path class="cls-18" d="M990.14,322v25.97h-75.94c-28.61,0-41.15,14.3-41.15,48.41s12.32,48.19,41.15,48.19h39.41c14.52,0,20.69-8.8,20.69-20.91s-6.16-18.93-18.27-18.93h-47.77v-22.67h50.41c26.41,0,39.39,16.29,39.39,42.03s-12.98,46.43-46.21,46.43h-37.65c-43.35,0-67.12-24.43-67.12-74.16s23.99-74.38,67.12-74.38h75.94Z"/>
            <path class="cls-18" d="M1070.44,322v148.54h-25.97v-148.54h25.97Z"/>
            <path class="cls-18" d="M1239.01,322v25.97h-50.73v122.57h-26.19v-122.57h-50.73v-25.97h127.65Z"/>
          </g>
        </g>
        <g id="Stamp_01">
          <path class="cls-18" d="M654.01,396.27h-88.42v88.42c48.83,0,88.42-39.59,88.42-88.42Z"/>
          <path class="cls-10" d="M565.58,291.13v.05h86.74c40.49,0,73.31-32.82,73.31-73.31h-160.05c-79.35,0-146.75,52.08-169.86,123.85-5.54,17.2-8.54,35.53-8.54,54.55,0,2.81.07,5.61.2,8.4,39.48-115.48,178.19-113.54,178.19-113.54Z"/>
          <path class="cls-9" d="M674.18,537.68h0s0,0,.01,0c0,0-.01,0-.02,0Z"/>
          <path class="cls-8" d="M465.8,429.57l-.85-.1.85.1c-2.25-6.94-3.02-11.21-3.02-11.21,0,0,.78,4.27,3.02,11.21h.07c-3.51-10.46-5.44-21.66-5.44-33.3,0-5.44.41-10.78,1.22-16,7.73-50.41,51.39-89.14,103.93-89.14,0,0-138.71-1.94-178.19,113.54,4.4,94.48,82.64,170,178.19,170,40.84,0,78.51-13.8,108.61-36.98h0c-153.52,18.56-197.68-75.07-208.38-108.12Z"/>
          <path class="cls-7" d="M670.72,396.27c0,58.07-47.07,105.14-105.14,105.14-46.34,0-85.74-30.14-99.7-71.83h-.07c10.7,33.04,54.86,126.67,208.38,108.1l-.03-.04.03.04s.01,0,.02,0c42.4-32.64,69.77-83.89,69.77-141.41h-73.25Z"/>
        </g>
        <g id="Stamp_01-2" data-name="Stamp_01">
          <path class="cls-18" d="M88.42,0H0v88.42C48.83,88.42,88.42,48.83,88.42,0Z"/>
          <path class="cls-4" d="M0-105.14v.05h86.74c40.49,0,73.31-32.82,73.31-73.31H0c-79.35,0-146.75,52.08-169.86,123.85C-175.4-37.34-178.4-19.02-178.4,0c0,2.81.07,5.61.2,8.4C-138.72-107.08,0-105.14,0-105.14Z"/>
          <path class="cls-5" d="M108.59,141.41h0s0,0,.01,0c0,0-.01,0-.02,0Z"/>
          <path class="cls-3" d="M-99.79,33.3l-.85-.1.85.1c-2.25-6.94-3.02-11.21-3.02-11.21,0,0,.78,4.27,3.02,11.21h.07C-103.22,22.83-105.15,11.64-105.15,0c0-5.44.41-10.78,1.22-16C-96.21-66.41-52.55-105.14,0-105.14c0,0-138.71-1.94-178.19,113.54C-173.8,102.88-95.56,178.39,0,178.39c40.84,0,78.51-13.8,108.61-36.98h0C-44.92,159.98-89.08,66.34-99.79,33.3Z"/>
          <path class="cls-2" d="M105.13,0C105.13,58.07,58.06,105.14,0,105.14c-46.34,0-85.74-30.14-99.7-71.83h-.07c10.7,33.04,54.86,126.67,208.38,108.1l-.03-.04.03.04s.01,0,.02,0C151.01,108.77,178.39,57.52,178.39,0h-73.25Z"/>
        </g>
        <g id="Stamp_01-3" data-name="Stamp_01">
          <path class="cls-18" d="M88.42,773.05H0v88.42c48.83,0,88.42-39.59,88.42-88.42Z"/>
          <path class="cls-6" d="M0,667.91v.05h86.74c40.49,0,73.31-32.82,73.31-73.31H0c-79.35,0-146.75,52.08-169.86,123.85-5.54,17.2-8.54,35.53-8.54,54.55,0,2.81.07,5.61.2,8.4C-138.72,665.97,0,667.91,0,667.91Z"/>
          <path class="cls-11" d="M-99.79,806.35l-.85-.1.85.1c-2.25-6.94-3.02-11.21-3.02-11.21,0,0,.78,4.27,3.02,11.21h.07c-3.51-10.46-5.44-21.66-5.44-33.3,0-5.44.41-10.78,1.22-16,7.73-50.41,51.39-89.14,103.93-89.14,0,0-138.71-1.94-178.19,113.54C-173.8,875.93-95.56,951.45,0,951.45c40.84,0,78.51-13.8,108.61-36.98h0c-153.52,18.56-197.68-75.07-208.38-108.12Z"/>
        </g>
        <g id="Stamp_01-4" data-name="Stamp_01">
          <path class="cls-18" d="M1219.6,0h-88.42v88.42C1180.01,88.42,1219.6,48.83,1219.6,0Z"/>
          <path class="cls-12" d="M1131.17-105.14v.05h86.74c40.49,0,73.31-32.82,73.31-73.31h-160.05c-79.35,0-146.75,52.08-169.86,123.85-5.54,17.2-8.54,35.53-8.54,54.55,0,2.81.07,5.61.2,8.4,39.48-115.48,178.19-113.54,178.19-113.54Z"/>
          <path class="cls-13" d="M1031.39,33.3l-.85-.1.85.1c-2.25-6.94-3.02-11.21-3.02-11.21,0,0,.78,4.27,3.02,11.21h.07c-3.51-10.46-5.44-21.66-5.44-33.3,0-5.44.41-10.78,1.22-16,7.73-50.41,51.39-89.14,103.93-89.14,0,0-138.71-1.94-178.19,113.54,4.4,94.48,82.64,170,178.19,170,40.84,0,78.51-13.8,108.61-36.98h0c-153.52,18.56-197.68-75.07-208.38-108.12Z"/>
          <path class="cls-14" d="M1236.31,0c0,58.07-47.07,105.14-105.14,105.14-46.34,0-85.74-30.14-99.7-71.83h-.07c10.7,33.04,54.86,126.67,208.38,108.1l-.03-.04.03.04s.01,0,.02,0C1282.19,108.77,1309.57,57.52,1309.57,0h-73.25Z"/>
        </g>
        <g id="Stamp_01-5" data-name="Stamp_01">
          <path class="cls-18" d="M1219.6,773.05h-88.42v88.42c48.83,0,88.42-39.59,88.42-88.42Z"/>
          <path class="cls-15" d="M1131.17,667.91v.05h86.74c40.49,0,73.31-32.82,73.31-73.31h-160.05c-79.35,0-146.75,52.08-169.86,123.85-5.54,17.2-8.54,35.53-8.54,54.55,0,2.81.07,5.61.2,8.4,39.48-115.48,178.19-113.54,178.19-113.54Z"/>
          <path class="cls-16" d="M1031.39,806.35l-.85-.1.85.1c-2.25-6.94-3.02-11.21-3.02-11.21,0,0,.78,4.27,3.02,11.21h.07c-3.51-10.46-5.44-21.66-5.44-33.3,0-5.44.41-10.78,1.22-16,7.73-50.41,51.39-89.14,103.93-89.14,0,0-138.71-1.94-178.19,113.54,4.4,94.48,82.64,170,178.19,170,40.84,0,78.51-13.8,108.61-36.98h0c-153.52,18.56-197.68-75.07-208.38-108.12Z"/>
        </g>
      </g>
    </g>
  </g>
</svg>