<svg version="1.1" id="Ebene_1" xmlns="http://www.w3.org/2000/svg" x="0px" y="0px" viewBox="11.868 302.918 36.418 33.195" style="enable-background:new 0 0 841.89 595.28;">
  <style type="text/css">
	.st0{fill:#DADADA;stroke:#585857;stroke-width:0.25;stroke-miterlimit:10;}
	.st1{fill:none;}
	.st4{fill:none;stroke:#010202;stroke-width:0.5;stroke-miterlimit:10;}
	.st6{fill:none;stroke:#010202;stroke-width:0.25;stroke-miterlimit:10;}
	.st15{fill:none;stroke:#585857;stroke-width:0.25;stroke-miterlimit:10;}
	.st16{fill:#E52421;stroke:#E52421;stroke-width:0.25;stroke-miterlimit:10;}
	.st20{fill:none;stroke:#000000;stroke-miterlimit:10;}
	.st4023{fill:none;stroke:#010202;stroke-miterlimit:10;}
</style>
  <path class="st4" d="M116.03,109.97"/>
  <path class="st4" d="M116.84,115.75"/>
  <path class="st6" d="M71.25,109.62"/>
  <path class="st6" d="M104.89,55.37"/>
  <path class="st6" d="M104.82,55.72"/>
  <path class="st0" d="M159.19,92.63"/>
  <path class="st0" d="M15.68,331.3c-1.09-1.86-1.46-3.63-1.71-5.03c-0.35-2.03-0.6-3.44-0.65-5.5c-0.04-1.49-0.07-3.44,0.5-5.88 c0.63-2.72,1.52-3.92,2.06-4.53c0.22-0.25,0.54-0.99,1.06-1c0.19,0,0.42,0.15,0.88,0.47c0.52,0.36,0.61,0.51,1.03,0.74 c0.34,0.18,0.33,0.12,0.68,0.29c0.59,0.31,0.61,0.51,1.18,0.85c0.3,0.18,0.65,0.4,1.15,0.47c0.35,0.05,0.42-0.02,1.09,0.03 c0.42,0.03,0.63,0.04,0.85,0.12c0.36,0.12,0.63,0.31,0.94,0.53c0.35,0.25,0.44,0.37,0.71,0.44c0.13,0.03,0.36,0.1,0.59,0 c0.18-0.08,0.21-0.19,0.47-0.47c0.1-0.1,0.21-0.21,0.44-0.41c0.34-0.3,0.67-0.6,1.12-0.82c0.64-0.32,1.25-0.36,1.59-0.38 c0.3-0.02,0.59-0.01,0.88,0c0.63,0.02,0.76,0.07,1.06,0c0.16-0.04,0.52-0.12,0.79-0.41c0.16-0.17,0.16-0.25,0.5-0.85 c0.07-0.11,0.07-0.12,0.26-0.44c0.5-0.83,0.57-0.96,0.82-1.38c0.42-0.68,0.63-1.02,0.76-1.18c0.26-0.29,0.67-0.73,1.32-0.88 c0.46-0.11,0.84-0.02,1.29,0.09c0.75,0.18,1.28,0.49,1.53,0.65c2.53,1.57,4.03,3.77,4.03,3.77c0.77,1.12,1.13,2.02,1.71,3.44 c0.38,0.93,1.03,2.7,1.5,5.03c0.27,1.37,0.36,2.4,0.53,4.41c0.29,3.53,0.35,6.63-0.68,9.24c-0.19,0.49-0.45,1.09-0.79,1.09 c-0.5,0-0.81-1.27-1.25-2.57c-0.58-1.71-1.49-4.4-3.39-6.45c-1.49-1.62-3.14-2.34-3.54-2.51c-0.92-0.39-1.75-0.56-2.26-0.67 c-1.22-0.25-2.14-0.27-3.37-0.3c-1.38-0.03-2.39,0.04-3.33,0.11c-1.73,0.13-2.61,0.19-3.52,0.48c-0.63,0.2-1.55,0.5-2.48,1.26 c-0.4,0.33-0.81,0.75-1.41,1.63c-1,1.47-2.35,3.45-2.99,6.28c-0.17,0.77-0.28,1.52-0.66,1.6C16.8,332.68,16.43,332.57,15.68,331.3z"/>
  <path class="st15" d="M43.48,149.23"/>
  <path class="st16" d="M20.26,314.35c-0.86,0.57-0.87,1.65-0.88,1.89c0,0.24,0.01,1.46,0.94,2.03c0.54,0.34,1.09,0.32,2.56,0.12 c0,0,2.13-0.23,4.5-0.37c0.96-0.06,2.09-0.12,3.58-0.04c0.3,0.02,0.7,0.04,3.54,0.3c1.84,0.16,2.35,0.22,2.88-0.11 c0.85-0.54,0.91-1.59,0.92-1.78c0.04-0.75-0.28-1.74-1.13-2.19c-0.38-0.2-0.74-0.22-1.46-0.26c-1-0.06-1.77,0.07-2.04,0.11 c0,0-1.85,0.29-3.58,0.44c-1.9,0.17-3.56,0.02-4.38-0.07c-0.84-0.1-1.66-0.25-3.13-0.33C21.11,314.01,20.65,314.09,20.26,314.35z"/>
  <rect x="11.71" y="285.71" class="st1" width="172.59" height="8.72"/>
  <path class="st0" d="M71.24,330.71c-1.09-1.86-1.46-3.63-1.71-5.03c-0.35-2.03-0.6-3.44-0.65-5.5c-0.04-1.49-0.07-3.44,0.5-5.88 c0.63-2.72,1.52-3.92,2.06-4.53c0.22-0.25,0.54-0.99,1.06-1c0.19,0,0.42,0.15,0.88,0.47c0.52,0.36,0.61,0.51,1.03,0.74 c0.34,0.18,0.33,0.12,0.68,0.29c0.59,0.31,0.61,0.51,1.18,0.85c0.3,0.18,0.65,0.4,1.15,0.47c0.35,0.05,0.42-0.02,1.09,0.03 c0.42,0.03,0.63,0.04,0.85,0.12c0.36,0.12,0.63,0.31,0.94,0.53c0.35,0.25,0.44,0.37,0.71,0.44c0.13,0.03,0.36,0.1,0.59,0 c0.18-0.08,0.21-0.19,0.47-0.47c0.1-0.1,0.21-0.21,0.44-0.41c0.34-0.3,0.67-0.6,1.12-0.82c0.64-0.32,1.25-0.36,1.59-0.38 c0.3-0.02,0.59-0.01,0.88,0c0.63,0.02,0.76,0.07,1.06,0c0.16-0.04,0.52-0.12,0.79-0.41c0.16-0.17,0.16-0.25,0.5-0.85 c0.07-0.11,0.07-0.12,0.26-0.44c0.5-0.83,0.57-0.96,0.82-1.38c0.42-0.68,0.63-1.02,0.76-1.18c0.26-0.29,0.67-0.73,1.32-0.88 c0.46-0.11,0.84-0.02,1.29,0.09c0.75,0.18,1.28,0.49,1.53,0.65c2.53,1.57,4.03,3.77,4.03,3.77c0.77,1.12,1.13,2.02,1.71,3.44 c0.38,0.93,1.03,2.7,1.5,5.03c0.27,1.37,0.36,2.4,0.53,4.41c0.29,3.53,0.35,6.63-0.68,9.24c-0.19,0.49-0.45,1.09-0.79,1.09 c-0.5,0-0.81-1.27-1.25-2.57c-0.58-1.71-1.49-4.4-3.39-6.45c-1.49-1.62-3.14-2.34-3.54-2.51c-0.92-0.39-1.75-0.56-2.26-0.67 c-1.22-0.25-2.14-0.27-3.37-0.3c-1.38-0.03-2.39,0.04-3.33,0.11c-1.73,0.13-2.61,0.19-3.52,0.48c-0.63,0.2-1.55,0.5-2.48,1.26 c-0.4,0.33-0.81,0.75-1.41,1.63c-1,1.47-2.35,3.45-2.99,6.28c-0.17,0.77-0.28,1.52-0.66,1.6C72.35,332.08,71.98,331.97,71.24,330.71 z"/>
  <path class="st16" d="M77.79,313.76c-0.45,0.57-0.46,1.65-0.46,1.89c0,0.24,0.01,1.46,0.49,2.03c0.28,0.34,0.57,0.32,1.34,0.12 c0,0,1.11-0.23,2.36-0.37c0.5-0.06,1.09-0.12,1.88-0.04c0.16,0.02,0.37,0.04,1.86,0.3c0.96,0.16,1.23,0.22,1.51-0.11 c0.45-0.54,0.47-1.59,0.48-1.78c0.02-0.75-0.14-1.74-0.59-2.19c-0.2-0.2-0.39-0.22-0.76-0.26c-0.53-0.06-0.93,0.07-1.07,0.11 c0,0-0.97,0.29-1.88,0.44c-1,0.17-1.87,0.02-2.29-0.07c-0.44-0.1-0.87-0.25-1.64-0.33C78.23,313.41,77.99,313.5,77.79,313.76z"/>
  <path class="st0" d="M126.4,331.3c-1.09-1.86-1.46-3.63-1.71-5.03c-0.35-2.03-0.6-3.44-0.65-5.5c-0.04-1.49-0.07-3.44,0.5-5.88 c0.63-2.72,1.52-3.92,2.06-4.53c0.22-0.25,0.54-0.99,1.06-1c0.19,0,0.42,0.15,0.88,0.47c0.52,0.36,0.61,0.51,1.03,0.74 c0.34,0.18,0.33,0.12,0.68,0.29c0.59,0.31,0.61,0.51,1.18,0.85c0.3,0.18,0.65,0.4,1.15,0.47c0.35,0.05,0.42-0.02,1.09,0.03 c0.42,0.03,0.63,0.04,0.85,0.12c0.36,0.12,0.63,0.31,0.94,0.53c0.35,0.25,0.44,0.37,0.71,0.44c0.13,0.03,0.36,0.1,0.59,0 c0.18-0.08,0.21-0.19,0.47-0.47c0.1-0.1,0.21-0.21,0.44-0.41c0.34-0.3,0.67-0.6,1.12-0.82c0.64-0.32,1.25-0.36,1.59-0.38 c0.3-0.02,0.59-0.01,0.88,0c0.63,0.02,0.76,0.07,1.06,0c0.16-0.04,0.52-0.12,0.79-0.41c0.16-0.17,0.16-0.25,0.5-0.85 c0.07-0.11,0.07-0.12,0.26-0.44c0.5-0.83,0.57-0.96,0.82-1.38c0.42-0.68,0.63-1.02,0.76-1.18c0.26-0.29,0.67-0.73,1.32-0.88 c0.46-0.11,0.84-0.02,1.29,0.09c0.75,0.18,1.28,0.49,1.53,0.65c2.53,1.57,4.03,3.77,4.03,3.77c0.77,1.12,1.13,2.02,1.71,3.44 c0.38,0.93,1.03,2.7,1.5,5.03c0.27,1.37,0.36,2.4,0.53,4.41c0.29,3.53,0.35,6.63-0.68,9.24c-0.19,0.49-0.45,1.09-0.79,1.09 c-0.5,0-0.81-1.27-1.25-2.57c-0.58-1.71-1.49-4.4-3.39-6.45c-1.49-1.62-3.14-2.34-3.54-2.51c-0.92-0.39-1.75-0.56-2.26-0.67 c-1.22-0.25-2.14-0.27-3.37-0.3c-1.38-0.03-2.39,0.04-3.33,0.11c-1.73,0.13-2.61,0.19-3.52,0.48c-0.63,0.2-1.55,0.5-2.48,1.26 c-0.4,0.33-0.81,0.75-1.41,1.63c-1,1.47-2.35,3.45-2.99,6.28c-0.17,0.77-0.28,1.52-0.66,1.6 C127.51,332.68,127.14,332.57,126.4,331.3z"/>
  <circle class="st16" cx="139.74" cy="315.64" r="1.15"/>
  <path class="st20" d="M226.02,109.71"/>
  <path class="st6" d="M389.87,132.76"/>
  <path class="st6" d="M389.8,133.16"/>
  <path class="st4023" d="M625.48,59.96"/>
</svg>