<?xml version="1.0" encoding="UTF-8" standalone="no"?>
<!-- Created with Inkscape (http://www.inkscape.org/) -->

<svg
   width="7.3304338mm"
   height="11.184959mm"
   viewBox="0 0 7.3304339 11.184959"
   version="1.1"
   id="svg1"
   inkscape:version="1.4 (e7c3feb1, 2024-10-09)"
   sodipodi:docname="a.1.3-anterior.svg"
   xmlns:inkscape="http://www.inkscape.org/namespaces/inkscape"
   xmlns:sodipodi="http://sodipodi.sourceforge.net/DTD/sodipodi-0.dtd"
   xmlns="http://www.w3.org/2000/svg"
   xmlns:svg="http://www.w3.org/2000/svg">
  <sodipodi:namedview
     id="namedview1"
     pagecolor="#ffffff"
     bordercolor="#000000"
     borderopacity="0.25"
     inkscape:showpageshadow="2"
     inkscape:pageopacity="0.0"
     inkscape:pagecheckerboard="0"
     inkscape:deskcolor="#d1d1d1"
     inkscape:document-units="mm"
     inkscape:zoom="7.9925287"
     inkscape:cx="28.651758"
     inkscape:cy="29.465018"
     inkscape:window-width="1920"
     inkscape:window-height="942"
     inkscape:window-x="0"
     inkscape:window-y="25"
     inkscape:window-maximized="1"
     inkscape:current-layer="layer1" />
  <defs
     id="defs1" />
  <g
     inkscape:label="Layer 1"
     inkscape:groupmode="layer"
     id="layer1"
     transform="translate(-114.68788,-142.72212)">
    <circle
       class="st95"
       cx="120.91299"
       cy="151.63654"
       r="0.30427083"
       id="circle371"
       style="fill:#e52421;stroke:#e52421;stroke-width:0.0661458;stroke-miterlimit:10" />
    <path
       class="st83"
       d="m 117.52104,142.96349 c 0.0953,-0.0344 0.17727,-0.0212 0.23018,-0.0132 0.13494,0.0212 0.23019,0.0847 0.29634,0.12965 0.31221,0.21166 0.33337,0.27516 0.52916,0.39423 0.0635,0.0397 0.18257,0.0952 0.42069,0.20902 0.23019,0.10848 0.30956,0.13758 0.42598,0.22489 0.10848,0.082 0.18521,0.16404 0.25665,0.25136 0.40216,0.49212 0.61648,0.94985 0.61648,0.94985 0.15081,0.34396 0.32543,0.76729 0.49477,1.26206 0.27516,0.79905 0.41804,1.42611 0.46566,1.63248 0.1323,0.59267 0.19844,1.15623 0.33338,2.28865 0.0423,0.35189 0.0714,0.66675 0.12964,1.2991 0.10319,1.12977 0.1323,1.70127 -0.20108,1.95263 -0.082,0.0635 -0.16669,0.09 -0.2196,0.10319 -0.16404,0.0212 -0.29898,-0.0714 -0.35984,-0.11642 -0.0291,-0.0185 -0.11906,-0.0873 -0.26193,-0.30692 -0.0741,-0.11641 -0.14288,-0.24341 -0.254,-0.50271 -0.09,-0.20902 -0.10055,-0.25929 -0.17992,-0.44979 -0.0609,-0.14287 -0.1614,-0.381 -0.30956,-0.67998 -0.14817,-0.29898 -0.21961,-0.44714 -0.34661,-0.64293 -0.0926,-0.14023 -0.20373,-0.30957 -0.38629,-0.50007 -0.1905,-0.20108 -0.36248,-0.32279 -0.52652,-0.43656 -0.27517,-0.19315 -0.50271,-0.30956 -0.70644,-0.4101 -0.25135,-0.127 -0.22225,-0.0952 -0.79639,-0.35984 -0.10054,-0.0476 -0.32279,-0.15081 -0.60325,-0.29633 -0.19844,-0.10319 -0.30692,-0.16669 -0.42334,-0.24342 -0.16933,-0.11377 -0.2831,-0.21166 -0.32014,-0.24341 -0.14288,-0.12436 -0.24606,-0.23548 -0.30956,-0.30957 -0.0529,-0.0635 -0.20373,-0.24077 -0.35984,-0.51329 -0.14552,-0.254 -0.21696,-0.38364 -0.20637,-0.52652 0.0132,-0.15081 0.0926,-0.25664 0.19314,-0.38629 0.17463,-0.22225 0.30163,-0.27781 0.53975,-0.47625 0.0688,-0.0582 0.33867,-0.2831 0.59002,-0.61648 0.1614,-0.21431 0.25665,-0.38894 0.37307,-0.60325 0.15081,-0.2831 0.25929,-0.48154 0.3466,-0.76994 0.12965,-0.43127 0.16669,-0.66939 0.16669,-0.66939 0.0185,-0.127 0.037,-0.29104 0.15346,-0.44979 0.0926,-0.127 0.17727,-0.16405 0.20902,-0.17463 z"
       id="path373"
       style="fill:none;stroke:#010202;stroke-width:0.132292;stroke-miterlimit:10" />
  </g>
</svg>
