<?xml version="1.0" encoding="UTF-8" standalone="no"?>
<!-- Created with Inkscape (http://www.inkscape.org/) -->

<svg
   width="7.5680866mm"
   height="11.61034mm"
   viewBox="0 0 7.568087 11.61034"
   version="1.1"
   id="svg1"
   inkscape:version="1.4 (e7c3feb1, 2024-10-09)"
   sodipodi:docname="a.1.1-anterior.svg"
   xmlns:inkscape="http://www.inkscape.org/namespaces/inkscape"
   xmlns:sodipodi="http://sodipodi.sourceforge.net/DTD/sodipodi-0.dtd"
   xmlns="http://www.w3.org/2000/svg"
   xmlns:svg="http://www.w3.org/2000/svg">
  <sodipodi:namedview
     id="namedview1"
     pagecolor="#ffffff"
     bordercolor="#000000"
     borderopacity="0.25"
     inkscape:showpageshadow="2"
     inkscape:pageopacity="0.0"
     inkscape:pagecheckerboard="0"
     inkscape:deskcolor="#d1d1d1"
     inkscape:document-units="mm"
     inkscape:zoom="2.8257856"
     inkscape:cx="9.9087488"
     inkscape:cy="8.3162713"
     inkscape:window-width="1200"
     inkscape:window-height="942"
     inkscape:window-x="219"
     inkscape:window-y="30"
     inkscape:window-maximized="0"
     inkscape:current-layer="layer1" />
  <defs
     id="defs1" />
  <g
     inkscape:label="Layer 1"
     inkscape:groupmode="layer"
     id="layer1"
     transform="translate(-101.02869,-142.69483)">
    <path
       class="st83"
       d="m 103.97437,143.22808 c 0.0953,-0.0344 0.17727,-0.0212 0.23019,-0.0132 0.13494,0.0212 0.23019,0.0847 0.29633,0.12964 0.31221,0.21167 0.33338,0.27517 0.52917,0.39688 0.0635,0.0397 0.18256,0.0952 0.42069,0.20902 0.23018,0.10848 0.30956,0.13758 0.42598,0.22489 0.10847,0.082 0.1852,0.16405 0.25664,0.25136 0.40217,0.49212 0.61648,0.94985 0.61648,0.94985 0.15081,0.34396 0.32544,0.76729 0.49477,1.26207 0.27517,0.79904 0.41804,1.4261 0.46567,1.63247 0.13229,0.59267 0.19844,1.15623 0.33337,2.28865 0.0423,0.3519 0.0714,0.66675 0.12965,1.2991 0.10319,1.12978 0.13229,1.69863 -0.20108,1.95263 -0.082,0.0635 -0.16669,0.09 -0.21961,0.10319 -0.16404,0.0212 -0.29898,-0.0714 -0.35983,-0.11642 -0.0291,-0.0185 -0.11906,-0.0873 -0.26194,-0.30692 -0.0741,-0.11641 -0.14287,-0.24341 -0.254,-0.5027 -0.09,-0.20903 -0.10054,-0.2593 -0.17992,-0.4498 -0.0608,-0.14287 -0.16139,-0.381 -0.30956,-0.67998 -0.14817,-0.29897 -0.2196,-0.44714 -0.3466,-0.64293 -0.0926,-0.14023 -0.20373,-0.30957 -0.38629,-0.50007 -0.1905,-0.20108 -0.36248,-0.32279 -0.52653,-0.43656 -0.27516,-0.19314 -0.5027,-0.30956 -0.70643,-0.4101 -0.25136,-0.127 -0.22225,-0.0952 -0.7964,-0.35984 -0.10054,-0.0476 -0.32279,-0.15081 -0.60325,-0.29633 -0.19844,-0.10319 -0.30692,-0.16669 -0.42333,-0.24342 -0.16934,-0.11377 -0.28311,-0.21166 -0.32015,-0.24341 -0.14287,-0.12436 -0.24606,-0.23548 -0.30956,-0.30956 -0.0529,-0.0635 -0.20373,-0.24078 -0.35984,-0.5133 -0.14552,-0.254 -0.21695,-0.38364 -0.20637,-0.52652 0.0132,-0.15081 0.0926,-0.25664 0.19315,-0.38629 0.17462,-0.22225 0.30162,-0.27781 0.53975,-0.47625 0.0688,-0.0582 0.33866,-0.2831 0.59002,-0.61648 0.16139,-0.21431 0.25664,-0.38894 0.37306,-0.60325 0.15081,-0.2831 0.25929,-0.48154 0.3466,-0.76994 0.12965,-0.43127 0.16669,-0.66939 0.16669,-0.66939 0.0185,-0.127 0.037,-0.29104 0.15346,-0.44979 0.09,-0.12965 0.17462,-0.16404 0.20902,-0.17727 z"
       id="path369"
       style="fill:none;stroke:#010202;stroke-width:0.132292;stroke-miterlimit:10" />
    <path
       class="st95"
       d="m 106.55406,148.7076 c -0.15346,-0.10319 -0.33338,-0.0317 -0.37306,-0.0159 -0.0397,0.0159 -0.24077,0.10319 -0.27252,0.29369 -0.0185,0.11377 0.0212,0.20373 0.1561,0.43127 0,0 0.18521,0.33602 0.37042,0.71967 0.0741,0.15346 0.16404,0.33602 0.25135,0.59002 0.0185,0.0503 0.0397,0.11906 0.19315,0.60589 0.0979,0.31486 0.12435,0.40482 0.21695,0.46832 0.14817,0.10318 0.32544,0.0397 0.35719,0.0291 0.127,-0.045 0.26988,-0.16404 0.28311,-0.33602 0.008,-0.0767 -0.0132,-0.13758 -0.0582,-0.25929 -0.0609,-0.16934 -0.1323,-0.2884 -0.15875,-0.33073 0,0 -0.17463,-0.28575 -0.32015,-0.56356 -0.15875,-0.30427 -0.24871,-0.58738 -0.2884,-0.73025 -0.0423,-0.14552 -0.0741,-0.29105 -0.15875,-0.53975 -0.082,-0.24607 -0.12964,-0.31486 -0.19843,-0.36248 z"
       id="path370"
       style="fill:#e52421;stroke:#e52421;stroke-width:0.0661458;stroke-miterlimit:10" />
  </g>
</svg>
