<svg xmlns="http://www.w3.org/2000/svg" xmlns:xlink="http://www.w3.org/1999/xlink" viewBox="0 0 279.08 243.58"><defs><style>.cls-1{fill:url(#linear-gradient);}.cls-2{fill:url(#linear-gradient-2);}.cls-3{fill:url(#linear-gradient-3);}.cls-4{fill:url(#linear-gradient-4);}.cls-5{fill:url(#linear-gradient-5);}</style><linearGradient id="linear-gradient" x1="40.83" y1="32.6" x2="240.71" y2="32.6" gradientUnits="userSpaceOnUse"><stop offset="0" stop-color="#4e5356"/><stop offset="0.16" stop-color="#525759"/><stop offset="0.3" stop-color="#5d6263"/><stop offset="0.44" stop-color="#707574"/><stop offset="0.5" stop-color="#7c807e"/><stop offset="0.65" stop-color="#6e7474"/><stop offset="0.93" stop-color="#4a545a"/><stop offset="0.95" stop-color="#475158"/></linearGradient><linearGradient id="linear-gradient-2" x1="73.21" y1="225.08" x2="202.21" y2="225.08" gradientUnits="userSpaceOnUse"><stop offset="0" stop-color="#46433a"/><stop offset="0.04" stop-color="#49473e"/><stop offset="0.09" stop-color="#535149"/><stop offset="0.13" stop-color="#62635c"/><stop offset="0.14" stop-color="#6b6d67"/><stop offset="0.77" stop-color="#71746f"/><stop offset="0.77" stop-color="#70736e"/><stop offset="0.82" stop-color="#595d5c"/><stop offset="0.87" stop-color="#494d4e"/><stop offset="0.93" stop-color="#3f4347"/><stop offset="1" stop-color="#3c4044"/></linearGradient><linearGradient id="linear-gradient-3" x1="3.71" y1="166.83" x2="275.21" y2="166.83" gradientUnits="userSpaceOnUse"><stop offset="0" stop-color="#4f4839"/><stop offset="0.13" stop-color="#4b473b"/><stop offset="0.19" stop-color="#47463d"/><stop offset="0.36" stop-color="#46453b"/><stop offset="0.41" stop-color="#4b4a3f"/><stop offset="0.46" stop-color="#585749"/><stop offset="0.52" stop-color="#4b4b40"/><stop offset="0.54" stop-color="#43433b"/><stop offset="1" stop-color="#383b2e"/></linearGradient><linearGradient id="linear-gradient-4" y1="139.14" x2="279.08" y2="139.14" gradientUnits="userSpaceOnUse"><stop offset="0" stop-color="#4f5453"/><stop offset="0.13" stop-color="#525854"/><stop offset="0.21" stop-color="#565e56"/><stop offset="0.33" stop-color="#575f5a"/><stop offset="0.41" stop-color="#586161"/><stop offset="0.45" stop-color="#656e6d"/><stop offset="0.52" stop-color="#878f8e"/><stop offset="0.56" stop-color="#a4abaa"/><stop offset="0.68" stop-color="#838a89"/><stop offset="0.78" stop-color="#646c6b"/><stop offset="0.84" stop-color="#636a67"/><stop offset="1" stop-color="#636864"/></linearGradient><linearGradient id="linear-gradient-5" x1="38.71" y1="81.11" x2="266.38" y2="81.11" gradientUnits="userSpaceOnUse"><stop offset="0" stop-color="#595547"/><stop offset="0.07" stop-color="#555448"/><stop offset="0.1" stop-color="#4f524a"/><stop offset="0.2" stop-color="#525650"/><stop offset="0.31" stop-color="#4f524c"/><stop offset="0.36" stop-color="#545954"/><stop offset="0.42" stop-color="#585e5b"/><stop offset="0.53" stop-color="#535a56"/><stop offset="0.68" stop-color="#565d57"/><stop offset="0.69" stop-color="#565d57"/><stop offset="0.82" stop-color="#5b5e55"/><stop offset="0.95" stop-color="#5c6056"/></linearGradient></defs><g id="Layer_2" data-name="Layer 2"><g id="Layer_3" data-name="Layer 3"><path class="cls-1" d="M44,30.37c9.76-9.55,34.25-22.75,83.21,7.71,0,0,9.68,22.58,35.51,11,29-13,40-38.33,61.51-29.67,0,0,6.49,4.67,7.49,20.67V65.21l9-43.13s-23.57-26.81-58-15c-35,12-31,10-35,11s-3-1-24-10S54.22-10.63,40.94,28.4A1.87,1.87,0,0,0,44,30.37Z"/></g><g id="Layer_4" data-name="Layer 4"><polygon class="cls-2" points="79.21 206.58 202.21 206.58 202.21 243.58 73.21 243.58 73.21 206.58 79.21 206.58"/></g><g id="Layer_6" data-name="Layer 6"><path class="cls-3" d="M3.71,128.08s29,63,70,81h128s21-6,32-16,41.5-68.5,41.5-68.5S169.71,167.08,3.71,128.08Z"/></g><g id="Layer_5" data-name="Layer 5"><path class="cls-4" d="M1.3,126.53a3.79,3.79,0,0,1,1.31-6.46c9.82-3.21,29-8.79,34.1-5.49,7,4.5,94.37-21.44,229,1h0s16-.5,13,5.5-35,55.94-139.5,50.47C55.18,167.15,14.15,137.84,1.3,126.53Z"/></g><g id="Layer_2-2" data-name="Layer 2"><path class="cls-5" d="M40.71,29.58l-2,88s94,66.06,216,7l11.15-6.46a1,1,0,0,0-.14-1.85l-22-8.72-1.25-78s-1.17-22.41-23.75-15c-32,10.5-62,32-77,27S69.71-9.42,40.71,29.58Z"/></g></g></svg>