<?xml version="1.0" encoding="UTF-8"?>
<svg id="Ebene_1" xmlns="http://www.w3.org/2000/svg" xmlns:svg="http://www.w3.org/2000/svg" xmlns:sodipodi="http://sodipodi.sourceforge.net/DTD/sodipodi-0.dtd" xmlns:inkscape="http://www.inkscape.org/namespaces/inkscape" version="1.1" viewBox="0 0 97 94.6">
  <!-- Generator: Adobe Illustrator 29.2.1, SVG Export Plug-In . SVG Version: 2.1.0 Build 116)  -->
  <defs>
    <style>
      .st0 {
        fill: none;
      }

      .st1 {
        fill: #205567;
      }

      .st2 {
        fill: #009640;
      }
    </style>
  </defs>
  <sodipodi:namedview id="namedview258" bordercolor="#000000" borderopacity="0.25" inkscape:current-layer="Ebene_1" inkscape:cx="49.759767" inkscape:cy="39.908849" inkscape:deskcolor="#d1d1d1" inkscape:pagecheckerboard="0" inkscape:pageopacity="0.0" inkscape:showpageshadow="2" inkscape:window-height="719" inkscape:window-maximized="0" inkscape:window-width="1392" inkscape:window-x="0" inkscape:window-y="25" inkscape:zoom="1.9795109" pagecolor="#ffffff"/>
  <rect id="rect253" class="st0" x="-76.5" y="94.9" width="56.9" height="41.8"/>
  <rect id="rect254" class="st0" x="-70.6" y="-52.6" width="56.9" height="41.8"/>
  <path id="path254" class="st2" d="M43.6-20"/>
  <g id="g255">
    <path id="path255" class="st1" d="M80.1,90.6c0,1.1.9,2.1,2.1,2.1s2.1-.9,2.1-2.1v-.9h2.5c1,0,1.9-.7,2.1-1.7l5.7-34.8c0-.2,0-.5,0-.7l-6-34.5c-.2-1-1.1-1.7-2.1-1.7h-21.8c-.2,0-.3,0-.5,0h-29.9V4.1c0-1.1-.9-2.1-2.1-2.1s-2.1.9-2.1,2.1v12h-10.7v-4.3c0-1.1-.9-2.1-2.1-2.1s-2.1.9-2.1,2.1v4.3h-7.5c-3.1,0-5.7,2.5-5.7,5.6h0v3.2c0,1.1.9,2.1,2.1,2.1s2.1-.9,2.1-2.1v-3.2c0-.4.2-.8.4-1,.3-.3.7-.5,1-.4h3.5c-.3.7-.4,1.5-.4,2.3,0,2.8,1.8,5.2,4.4,6.1l.3,50.6h-3c-1.2,0-2.1.9-2.1,2.1v4.2h-6.3c-1.2,0-2.1.9-2.1,2.1s.9,2.1,2.1,2.1h75.9v.9h0ZM85,85.5h-5.5l8.2-32.1c0-.3,0-.7,0-1l-5.9-23c.3,0,.5,0,.8,0,.7,0,1.3-.1,2-.3.5-.2,1-.4,1.5-.6l4.2,24.4-5.3,32.7ZM85.3,23.6c0,.1-.2.2-.3.3-.4.6-.9,1-1.6,1.2-.8.2-1.7.1-2.4-.3-.1,0-.2-.1-.3-.2l-1-4.2h5.2l.5,3.2ZM60.9,20.4c-2.4,2.2-5.6,3.4-8.9,3.3h0c-3.3,0-6.5-1.1-8.8-3.4h17.8ZM16.9,20.2h.8c1.2.2,2.1,1.4,1.9,2.7-.2,1.2-1.4,2.1-2.7,1.9s-2.1-1.4-1.9-2.7c.2-.9.9-1.7,1.8-1.9ZM19.4,28.7c3.4-1.1,5.2-4.8,4-8.2,0,0,0-.1,0-.2h14.8c2,4.5,7.5,7.6,13.8,7.6h0c6.3,0,11.8-3.1,13.9-7.5h9.4l8.3,32.4-8.4,32.6h-9.2c-2-4.5-7.5-7.7-13.8-7.7h0c-6.4,0-12,3.1-14,7.7h-13.4v-4.2c0-1.1-.9-2.1-2.1-2.1h-3l-.3-50.6ZM61.1,85.5h-18.1c2.4-2.4,5.7-3.6,9.1-3.5h0c3.3,0,6.6,1.2,9,3.5h0ZM14.6,83.4h5.9v2.1h-5.9v-2.1Z"/>
  </g>
  <rect id="rect255" class="st0" x="15.3" y="-12.2" width="119.7" height="23.7"/>
  <rect id="rect256" class="st0" x="113.4" y="-13.5" width="151.9" height="41.9"/>
</svg>