<?xml version="1.0" encoding="UTF-8" standalone="no"?>
<!-- Generator: Adobe Illustrator 23.0.6, SVG Export Plug-In . SVG Version: 6.00 Build 0)  -->

<svg
   version="1.1"
   id="Ebene_1"
   x="0px"
   y="0px"
   viewBox="0 0 96.971356 94.57907"
   xml:space="preserve"
   sodipodi:docname="11_RxHome_.svg"
   width="96.971344"
   height="94.579071"
   inkscape:version="1.4 (e7c3feb1, 2024-10-09)"
   xmlns:inkscape="http://www.inkscape.org/namespaces/inkscape"
   xmlns:sodipodi="http://sodipodi.sourceforge.net/DTD/sodipodi-0.dtd"
   xmlns="http://www.w3.org/2000/svg"
   xmlns:svg="http://www.w3.org/2000/svg"><defs
   id="defs258" /><sodipodi:namedview
   id="namedview258"
   pagecolor="#ffffff"
   bordercolor="#000000"
   borderopacity="0.25"
   inkscape:showpageshadow="2"
   inkscape:pageopacity="0.0"
   inkscape:pagecheckerboard="0"
   inkscape:deskcolor="#d1d1d1"
   inkscape:zoom="1.9795109"
   inkscape:cx="49.759767"
   inkscape:cy="39.908849"
   inkscape:window-width="1392"
   inkscape:window-height="719"
   inkscape:window-x="0"
   inkscape:window-y="25"
   inkscape:window-maximized="0"
   inkscape:current-layer="Ebene_1" />
<style
   type="text/css"
   id="style1">
	.st0{fill:#601814;}
	.st1{clip-path:url(#SVGID_2_);}
	.st2{clip-path:url(#SVGID_6_);}
	.st3{clip-path:url(#SVGID_10_);}
	.st4{clip-path:url(#SVGID_14_);}
	.st5{clip-path:url(#SVGID_18_);}
	.st6{clip-path:url(#SVGID_22_);}
	.st7{clip-path:url(#SVGID_26_);}
	.st8{clip-path:url(#SVGID_30_);}
	.st9{clip-path:url(#SVGID_34_);}
	.st10{clip-path:url(#SVGID_38_);}
	.st11{clip-path:url(#SVGID_42_);}
	.st12{clip-path:url(#SVGID_46_);}
	.st13{clip-path:url(#SVGID_50_);}
	.st14{clip-path:url(#SVGID_54_);}
	.st15{clip-path:url(#SVGID_58_);}
	.st16{clip-path:url(#SVGID_64_);}
	.st17{clip-path:url(#SVGID_70_);}
	.st18{clip-path:url(#SVGID_74_);}
	.st19{clip-path:url(#SVGID_80_);}
	.st20{clip-path:url(#SVGID_86_);}
	.st21{clip-path:url(#SVGID_90_);}
	.st22{clip-path:url(#SVGID_94_);}
	.st23{clip-path:url(#SVGID_98_);}
	.st24{clip-path:url(#SVGID_102_);}
	.st25{clip-path:url(#SVGID_106_);}
	.st26{clip-path:url(#SVGID_110_);}
	.st27{clip-path:url(#SVGID_114_);}
	.st28{clip-path:url(#SVGID_118_);}
	.st29{clip-path:url(#SVGID_122_);}
	.st30{clip-path:url(#SVGID_126_);}
	.st31{clip-path:url(#SVGID_130_);}
	.st32{clip-path:url(#SVGID_134_);}
	.st33{clip-path:url(#SVGID_138_);}
	.st34{clip-path:url(#SVGID_142_);}
	.st35{clip-path:url(#SVGID_146_);}
	.st36{clip-path:url(#SVGID_150_);}
	.st37{clip-path:url(#SVGID_154_);}
	.st38{clip-path:url(#SVGID_158_);}
	.st39{clip-path:url(#SVGID_162_);}
	.st40{clip-path:url(#SVGID_170_);}
	.st41{clip-path:url(#SVGID_182_);}
	.st42{clip-path:url(#SVGID_190_);}
	.st43{clip-path:url(#SVGID_198_);}
	.st44{clip-path:url(#SVGID_202_);}
	.st45{fill:#EBE2E2;}
	.st46{clip-path:url(#SVGID_206_);}
	.st47{clip-path:url(#SVGID_210_);}
	.st48{clip-path:url(#SVGID_214_);}
	.st49{clip-path:url(#SVGID_228_);}
	.st50{clip-path:url(#SVGID_232_);}
	.st51{clip-path:url(#SVGID_236_);}
	.st52{clip-path:url(#SVGID_240_);}
	.st53{clip-path:url(#SVGID_244_);}
	.st54{clip-path:url(#SVGID_248_);}
	.st55{clip-path:url(#SVGID_252_);}
	.st56{clip-path:url(#SVGID_256_);}
	.st57{clip-path:url(#SVGID_260_);}
	.st58{clip-path:url(#SVGID_264_);}
	.st59{clip-path:url(#SVGID_268_);}
	.st60{clip-path:url(#SVGID_272_);}
	.st61{clip-path:url(#SVGID_276_);}
	.st62{clip-path:url(#SVGID_280_);}
	.st63{clip-path:url(#SVGID_284_);}
	.st64{fill:#68B42E;}
	.st65{fill:#FFFFFF;}
	.st66{fill:none;}
	.st67{font-family:'MyriadPro-Regular';}
	.st68{font-size:11.5964px;}
	.st69{opacity:0.35;fill:#009640;}
	.st70{font-size:22px;}
	.st71{fill:#E52421;}
	.st72{fill:none;stroke:#000000;stroke-miterlimit:10;}
	.st73{font-size:12px;}
	.st74{fill:#009640;}
	.st75{fill:#3D2516;}
	.st76{font-size:11px;}
</style>





















































































































<rect
   x="-76.502464"
   y="94.880646"
   class="st66"
   width="56.889999"
   height="41.779999"
   id="rect253" />

<rect
   x="-70.592461"
   y="-52.599331"
   class="st66"
   width="56.889999"
   height="41.779999"
   id="rect254" />

<path
   class="st74"
   d="M 43.64754,-19.979339"
   id="path254" />
<g
   id="g255"
   transform="translate(-560.28246,-256.16934)">
	<path
   class="st75"
   d="m 640.34,346.75 c 0,1.15 0.94,2.09 2.09,2.09 1.15,0 2.09,-0.94 2.09,-2.09 v -0.89 h 2.52 c 1.03,0.01 1.92,-0.73 2.09,-1.74 l 5.68,-34.75 c 0.04,-0.23 0.04,-0.46 0,-0.69 l -5.95,-34.49 c -0.18,-1 -1.07,-1.73 -2.09,-1.71 l -21.81,-0.06 c -0.17,-0.02 -0.33,-0.02 -0.5,0 l -29.91,-0.11 v -12.02 c 0,-1.15 -0.94,-2.09 -2.09,-2.09 -1.15,0 -2.09,0.94 -2.09,2.09 v 12 h -10.72 v -4.33 c 0,-1.15 -0.94,-2.09 -2.09,-2.09 -1.15,0 -2.09,0.94 -2.09,2.09 v 4.29 h -7.51 c -3.12,-0.01 -5.66,2.51 -5.67,5.63 0,0.01 0,0.01 0,0.02 v 3.19 c 0,1.15 0.94,2.09 2.09,2.09 1.15,0 2.09,-0.94 2.09,-2.09 v -3.21 c 0,-0.39 0.16,-0.77 0.44,-1.04 0.26,-0.3 0.65,-0.45 1.04,-0.43 h 3.53 c -0.28,0.73 -0.43,1.51 -0.43,2.3 0.01,2.78 1.78,5.25 4.42,6.15 l 0.27,50.58 h -2.98 c -1.15,0 -2.09,0.94 -2.09,2.09 v 4.18 h -6.27 c -1.15,0 -2.09,0.94 -2.09,2.09 0,1.15 0.94,2.09 2.09,2.09 h 75.93 v 0.86 z m 4.93,-5.07 h -5.45 l 8.2,-32.13 c 0.09,-0.34 0.09,-0.7 0,-1.04 l -5.87,-22.98 c 0.26,0.02 0.52,0.02 0.77,0 0.67,0 1.34,-0.1 1.98,-0.3 0.52,-0.16 1.02,-0.37 1.49,-0.65 l 4.18,24.4 z m 0.29,-61.89 c -0.1,0.1 -0.2,0.2 -0.27,0.32 -0.38,0.57 -0.94,0.99 -1.59,1.2 -0.82,0.22 -1.69,0.1 -2.42,-0.33 -0.11,-0.07 -0.22,-0.13 -0.34,-0.17 l -1.04,-4.18 h 5.15 z m -24.38,-3.23 c -2.41,2.23 -5.6,3.43 -8.89,3.33 h -0.09 c -3.28,0.09 -6.46,-1.14 -8.84,-3.39 z m -44.03,-0.15 h 0.83 c 1.25,0.23 2.09,1.43 1.86,2.68 -0.23,1.25 -1.43,2.09 -2.68,1.86 -1.25,-0.23 -2.09,-1.43 -1.86,-2.68 0.16,-0.94 0.9,-1.69 1.85,-1.86 z m 2.49,8.43 c 3.38,-1.14 5.19,-4.8 4.05,-8.18 -0.02,-0.06 -0.04,-0.12 -0.06,-0.18 l 14.76,0.05 c 2.03,4.44 7.52,7.55 13.8,7.58 h 0.1 c 6.27,0 11.8,-3.06 13.87,-7.5 h 9.4 l 8.26,32.41 -8.36,32.64 h -9.22 c -1.98,-4.49 -7.52,-7.66 -13.85,-7.69 h -0.1 c -6.37,0 -11.96,3.13 -13.95,7.69 h -13.39 v -4.18 c 0,-1.15 -0.94,-2.09 -2.09,-2.09 h -2.95 z m 41.7,56.84 h -18.11 c 2.42,-2.36 5.69,-3.63 9.07,-3.51 h 0.09 c 3.33,-0.09 6.56,1.18 8.95,3.51 z m -46.49,-2.09 h 5.92 v 2.09 h -5.92 z"
   id="path255" />
</g>
<rect
   x="15.267528"
   y="-12.219341"
   class="st66"
   width="119.7"
   height="23.700001"
   id="rect255" />

<rect
   x="113.38753"
   y="-13.469341"
   class="st66"
   width="151.89"
   height="41.880001"
   id="rect256" />



</svg>
