<?xml version="1.0" encoding="UTF-8" standalone="no"?>
<!-- Created with Inkscape (http://www.inkscape.org/) -->

<svg
   width="15.386656mm"
   height="7.0931978mm"
   viewBox="0 0 15.386656 7.0931978"
   version="1.1"
   id="svg1"
   inkscape:version="1.4 (e7c3feb1, 2024-10-09)"
   sodipodi:docname="bridge-anatomical-connection.svg"
   xmlns:inkscape="http://www.inkscape.org/namespaces/inkscape"
   xmlns:sodipodi="http://sodipodi.sourceforge.net/DTD/sodipodi-0.dtd"
   xmlns="http://www.w3.org/2000/svg"
   xmlns:svg="http://www.w3.org/2000/svg">
  <sodipodi:namedview
     id="namedview1"
     pagecolor="#ffffff"
     bordercolor="#000000"
     borderopacity="0.25"
     inkscape:showpageshadow="2"
     inkscape:pageopacity="0.0"
     inkscape:pagecheckerboard="0"
     inkscape:deskcolor="#d1d1d1"
     inkscape:document-units="mm"
     inkscape:zoom="8.0026076"
     inkscape:cx="33.988921"
     inkscape:cy="22.430189"
     inkscape:window-width="1200"
     inkscape:window-height="942"
     inkscape:window-x="0"
     inkscape:window-y="25"
     inkscape:window-maximized="0"
     inkscape:current-layer="layer1" />
  <defs
     id="defs1" />
  <g
     inkscape:label="Layer 1"
     inkscape:groupmode="layer"
     id="layer1"
     transform="translate(-97.34453,-136.96134)">
    <path
       class="st39"
       d="m 98.443521,140.01222 c 0.01587,-0.0767 0.04762,-0.23019 0.150812,-0.39952 0.05292,-0.09 0.129646,-0.1905 0.293688,-0.32808 0.06614,-0.0556 0.30427,-0.254 0.754062,-0.46038 0.224896,-0.10318 0.396877,-0.16139 0.709087,-0.26723 0.23812,-0.0794 0.35718,-0.11906 0.52123,-0.15875 0.34395,-0.0794 0.61912,-0.0926 0.74083,-0.0979 0.12965,-0.003 0.35983,-0.008 0.65352,0.0423 0.0926,0.0159 0.25929,0.0476 0.46038,0.11642 0.20372,0.0661 0.38893,0.127 0.59531,0.27516 0.13494,0.0952 0.27781,0.20638 0.36512,0.39953 0.0503,0.11377 0.0714,0.23812 0.0979,0.23283 0.0238,-0.003 0.005,-0.11642 0.0609,-0.25136 0.0397,-0.0953 0.10054,-0.15345 0.16934,-0.22225 0.11906,-0.1217 0.23548,-0.17991 0.33602,-0.23018 0.0397,-0.0185 0.21431,-0.10584 0.47889,-0.15875 0.30427,-0.0635 0.54769,-0.0476 0.60325,-0.045 0.4445,0.0317 0.75936,0.19844 0.83344,0.24077 0.12435,0.0688 0.36513,0.2196 0.56885,0.47096 0.14288,0.17727 0.21432,0.26723 0.27782,0.4101 0.0503,0.11642 0.0741,0.21961 0.127,0.22225 0.0476,0.003 0.0661,-0.082 0.16404,-0.20902 0.0979,-0.127 0.20373,-0.20108 0.29104,-0.25929 0.11642,-0.0794 0.21167,-0.12436 0.29633,-0.15875 0.26988,-0.11113 0.50536,-0.15611 0.61119,-0.17463 0.20108,-0.0317 0.37306,-0.0608 0.59531,-0.0344 0.28575,0.0318 0.48155,0.13229 0.74613,0.26723 0.34396,0.17462 0.56356,0.35983 0.62177,0.40746 0.22225,0.18785 0.35983,0.36512 0.40746,0.42597 0.11906,0.15611 0.18785,0.28311 0.32808,0.5424 0.15346,0.2831 0.21167,0.44185 0.24871,0.55827 0.0265,0.0847 0.0423,0.13229 0.0529,0.20373 0.045,0.27252 -0.0185,0.49477 -0.0529,0.61119 -0.0767,0.254 -0.19315,0.42069 -0.29369,0.55827 -0.1905,0.26723 -0.38629,0.43127 -0.49741,0.52387 -0.17463,0.14288 -0.3175,0.22755 -0.51594,0.34661 -0.24871,0.14816 -0.37306,0.22225 -0.53181,0.27516 -0.32544,0.10848 -0.60325,0.0952 -0.72761,0.09 -0.25929,-0.0159 -0.45773,-0.0741 -0.54769,-0.10583 -0.14816,-0.0503 -0.37041,-0.127 -0.5715,-0.31221 -0.0503,-0.0476 -0.12435,-0.12171 -0.3466,-0.53975 -0.23019,-0.43392 -0.3466,-0.65087 -0.40746,-0.87048 -0.10848,-0.39158 -0.0953,-0.70908 -0.18521,-0.71966 -0.0397,-0.005 -0.0635,0.0582 -0.15081,0.15875 -0.12435,0.14287 -0.254,0.21695 -0.37306,0.2831 -0.25665,0.14552 -0.50006,0.16669 -0.70909,0.18521 -0.34395,0.0318 -0.60589,-0.0238 -0.73554,-0.0529 -0.22489,-0.0503 -0.38364,-0.11377 -0.43127,-0.13494 -0.11641,-0.0503 -0.25664,-0.11112 -0.4101,-0.23548 -0.0979,-0.0794 -0.1905,-0.15345 -0.26988,-0.2831 -0.0873,-0.14552 -0.0926,-0.25135 -0.13758,-0.25135 -0.0529,-0.003 -0.0847,0.14552 -0.15346,0.31485 0,0 -0.0397,0.16933 -0.27517,0.49742 -0.381,0.53446 -0.92868,0.81227 -1.11918,0.90487 -0.15611,0.0767 -0.40746,0.19844 -0.762,0.26723 -0.4445,0.0847 -0.80169,0.037 -0.96044,0.008 -0.21167,-0.037 -0.611189,-0.11113 -1.013355,-0.40481 -0.3175,-0.23284 -0.486834,-0.49213 -0.590021,-0.65882 -0.455083,-0.73289 -0.463021,-1.46843 -0.391583,-1.81504 z"
       id="path115"
       style="fill:none;stroke:#010202;stroke-width:0.132292;stroke-miterlimit:10" />
    <path
       class="st39"
       d="m 98.676354,140.88006 c -0.03704,-0.0635 -0.08996,-0.18521 -0.05292,-0.30957 0.02646,-0.0952 0.0979,-0.16668 0.336021,-0.29368 0.264583,-0.14288 0.418042,-0.18257 0.701146,-0.30163 0.148167,-0.0608 0.07408,-0.037 0.497419,-0.23019 0.52916,-0.24077 0.61119,-0.26458 0.69321,-0.2831 0.13229,-0.0291 0.14287,-0.0185 0.48683,-0.0794 0.0318,-0.005 0.18785,-0.0344 0.36512,-0.0714 0.50536,-0.10584 0.50271,-0.14288 0.72761,-0.17727 0.21167,-0.0318 0.55298,-0.0847 0.89694,0.0794 0.20637,0.0979 0.33866,0.24077 0.41804,0.33602"
       id="path116"
       style="fill:none;stroke:#010202;stroke-width:0.132292;stroke-miterlimit:10" />
    <path
       class="st39"
       d="m 99.525666,141.09437 c 0.07937,-0.0503 0.20373,-0.12436 0.365125,-0.19579 0.216959,-0.0952 0.306919,-0.10319 0.833439,-0.24077 0.44979,-0.11642 0.56356,-0.15611 0.83344,-0.1958 0.13229,-0.0185 0.24341,-0.0291 0.32014,-0.0344"
       id="path117"
       style="fill:none;stroke:#010202;stroke-width:0.132292;stroke-miterlimit:10" />
    <path
       class="st39"
       d="m 104.00771,139.32695 c 0.0503,-0.0529 0.12964,-0.12435 0.24871,-0.17727 0.10054,-0.045 0.20108,-0.0608 0.36512,-0.0608 0.23284,-0.003 0.30692,0.0265 0.63765,0.0608 0.26194,0.0291 0.30691,0.0185 0.53181,0.0529 0.24871,0.037 0.33338,0.0688 0.36513,0.0794 0.0767,0.0291 0.045,0.0265 0.381,0.21167 0.11906,0.0661 0.18256,0.10054 0.24077,0.17727 0.0582,0.082 0.0794,0.16933 0.0794,0.17727 0.008,0.0344 0.008,0.0661 0.008,0.09"
       id="path118"
       style="fill:none;stroke:#010202;stroke-width:0.132292;stroke-miterlimit:10" />
    <path
       class="st39"
       d="m 104.39929,140.06514 c 0.22754,-0.0185 0.41275,-0.0423 0.5424,-0.0609 0.23283,-0.0344 0.28839,-0.0529 0.42598,-0.0529 0.18785,0 0.32808,0.0318 0.48683,0.0714 0.13758,0.0318 0.32279,0.0873 0.53181,0.17727"
       id="path119"
       style="fill:none;stroke:#010202;stroke-width:0.132292;stroke-miterlimit:10" />
    <path
       class="st39"
       d="m 107.30177,140.22389 c 0.0317,-0.0529 0.0847,-0.127 0.16933,-0.19579 0.10848,-0.0873 0.20903,-0.11907 0.34661,-0.15875 0.12435,-0.037 0.30956,-0.09 0.55033,-0.0794 0.1614,0.008 0.18521,0.037 0.36513,0.0344 0.16933,0 0.20902,-0.0265 0.32014,-0.0265 0.17463,0 0.28575,0.0661 0.48684,0.16933 0.47889,0.24342 0.40481,0.15875 0.78052,0.36513 0.29368,0.16139 0.4445,0.24341 0.62177,0.39952 0.0609,0.0529 0.15081,0.1561 0.32808,0.36512 0.13494,0.15611 0.19579,0.23548 0.19579,0.34661 0,0.082 -0.0344,0.14552 -0.0608,0.18521"
       id="path120"
       style="fill:none;stroke:#010202;stroke-width:0.132292;stroke-miterlimit:10" />
    <path
       class="st39"
       d="m 108.13521,140.73983 c 0.25664,0.0899 0.57414,0.24606 0.85989,0.52387 0.0529,0.0503 0.0979,0.10054 0.14288,0.15081"
       id="path121"
       style="fill:none;stroke:#010202;stroke-width:0.132292;stroke-miterlimit:10" />
    <path
       class="st39"
       d="m 103.78546,139.36664 c 0.0185,0.082 0.0423,0.21167 0.045,0.37042 0,0.0635 -0.003,0.0926 -0.0265,0.381 -0.0265,0.31485 -0.0265,0.33072 -0.0344,0.39952 -0.0132,0.11377 -0.0344,0.24077 -0.0609,0.37835"
       id="path122"
       style="fill:none;stroke:#010202;stroke-width:0.132292;stroke-miterlimit:10" />
    <path
       class="st39"
       d="m 107.24356,139.80056 c 0,0.0953 -0.005,0.23812 -0.0423,0.40481 -0.0318,0.15346 -0.0741,0.25664 -0.10583,0.3466 -0.0556,0.15081 -0.12171,0.37571 -0.16934,0.67469"
       id="path123"
       style="fill:none;stroke:#010202;stroke-width:0.132292;stroke-miterlimit:10" />
  </g>
</svg>
