<?xml version="1.0" encoding="UTF-8" standalone="no"?>
<!-- Created with Inkscape (http://www.inkscape.org/) -->

<svg
   width="15.584695mm"
   height="7.2473149mm"
   viewBox="0 0 15.584695 7.247315"
   version="1.1"
   id="svg1"
   inkscape:version="1.4 (e7c3feb1, 2024-10-09)"
   sodipodi:docname="bridge-very-strong-connection.svg"
   xmlns:inkscape="http://www.inkscape.org/namespaces/inkscape"
   xmlns:sodipodi="http://sodipodi.sourceforge.net/DTD/sodipodi-0.dtd"
   xmlns="http://www.w3.org/2000/svg"
   xmlns:svg="http://www.w3.org/2000/svg">
  <sodipodi:namedview
     id="namedview1"
     pagecolor="#ffffff"
     bordercolor="#000000"
     borderopacity="0.25"
     inkscape:showpageshadow="2"
     inkscape:pageopacity="0.0"
     inkscape:pagecheckerboard="0"
     inkscape:deskcolor="#d1d1d1"
     inkscape:document-units="mm"
     inkscape:zoom="5.6586981"
     inkscape:cx="46.300403"
     inkscape:cy="-9.1010333"
     inkscape:window-width="1200"
     inkscape:window-height="942"
     inkscape:window-x="0"
     inkscape:window-y="25"
     inkscape:window-maximized="0"
     inkscape:current-layer="layer1" />
  <defs
     id="defs1" />
  <g
     inkscape:label="Layer 1"
     inkscape:groupmode="layer"
     id="layer1"
     transform="translate(-78.037311,-155.233)">
    <path
       class="st39"
       d="m 78.827314,157.86875 c 0.01587,-0.0767 0.04762,-0.23019 0.150813,-0.39952 0.05292,-0.09 0.129646,-0.1905 0.293687,-0.32809 0.06615,-0.0556 0.304271,-0.254 0.754063,-0.46037 0.224896,-0.10319 0.396875,-0.1614 0.709083,-0.26723 0.238125,-0.0794 0.357188,-0.11906 0.521229,-0.15875 0.343959,-0.0794 0.619125,-0.0926 0.740834,-0.0979 0.129645,-0.003 0.359833,-0.008 0.65352,0.0423 0.09261,0.0159 0.259292,0.0476 0.460375,0.11641 0.20373,0.0661 0.388938,0.127 0.595313,0.27517 0.134937,0.0952 0.277812,0.20637 0.365125,0.39952 0.05027,0.11377 0.07144,0.23548 0.0979,0.23283 0.02381,-0.003 0.0053,-0.11641 0.06085,-0.25135 0.03969,-0.0952 0.100541,-0.15346 0.169333,-0.22225 0.119063,-0.12171 0.235479,-0.17992 0.336021,-0.23019 0.03969,-0.0185 0.214312,-0.10583 0.478896,-0.15875 0.304271,-0.0635 0.547687,-0.0476 0.60325,-0.045 0.4445,0.0317 0.759354,0.19844 0.833437,0.24077 0.124354,0.0688 0.365125,0.21961 0.568854,0.47096 0.142875,0.17727 0.214313,0.26723 0.277813,0.41011 0.05027,0.11641 0.07408,0.2196 0.127,0.22225 0.04763,0.003 0.06615,-0.082 0.164042,-0.20903 0.09789,-0.127 0.203729,-0.20108 0.291041,-0.25929 0.116417,-0.0794 0.211667,-0.12435 0.296334,-0.15875 0.269875,-0.11112 0.505354,-0.1561 0.611187,-0.17462 0.201083,-0.0317 0.373063,-0.0609 0.595313,-0.0344 0.28575,0.0317 0.481541,0.13229 0.746125,0.26723 0.343958,0.17463 0.563562,0.35983 0.62177,0.40746 0.22225,0.18785 0.359834,0.36512 0.407459,0.42598 0.119062,0.1561 0.187854,0.2831 0.328083,0.54239 0.153458,0.28311 0.211667,0.44186 0.248708,0.55828 0.02646,0.0847 0.04233,0.13229 0.05292,0.20372 0.04498,0.27253 -0.01852,0.49477 -0.05292,0.61119 -0.07673,0.254 -0.193145,0.42069 -0.293687,0.55827 -0.1905,0.26723 -0.386292,0.43127 -0.497417,0.52388 -0.174625,0.14287 -0.3175,0.22754 -0.515937,0.3466 -0.248709,0.14817 -0.373063,0.22225 -0.531813,0.27517 -0.325437,0.10848 -0.60325,0.0952 -0.727604,0.09 -0.259292,-0.0159 -0.457729,-0.0741 -0.547687,-0.10584 -0.148167,-0.0503 -0.370417,-0.127 -0.5715,-0.31221 -0.0079,-0.008 -0.01588,-0.0132 -0.02381,-0.0238 -0.187854,-0.19314 -0.267229,-0.38629 -0.322792,-0.51858 -0.169333,-0.39688 -0.251354,-0.59531 -0.391583,-0.65617 -0.153458,-0.0688 -0.201083,0.045 -0.418042,-0.0265 -0.203729,-0.0688 -0.227541,-0.18785 -0.4445,-0.23018 -0.06085,-0.0106 -0.129645,-0.0106 -0.264583,-0.0106 -0.150812,0 -0.214312,0.0132 -0.328083,0.0185 -0.127,0.008 -0.333375,0.0212 -0.568854,-0.0265 -0.127,-0.0265 -0.111125,-0.037 -0.391584,-0.10584 -0.156104,-0.0397 -0.227541,-0.0503 -0.309562,-0.0529 -0.116417,-0.003 -0.216959,0.0132 -0.283104,0.0265 -0.219605,0.0503 -0.22225,0.12171 -0.381,0.14023 -0.15875,0.0185 -0.1905,-0.0423 -0.365125,-0.0344 -0.156104,0.008 -0.267229,0.0635 -0.357188,0.10583 -0.301625,0.15081 -0.346604,0.32544 -0.724958,0.56885 -0.03969,0.0265 -0.08467,0.0503 -0.134938,0.0794 -0.232833,0.12171 -0.4445,0.18521 -0.502708,0.20373 -0.07937,0.0238 -0.166687,0.045 -0.259292,0.0635 -0.4445,0.0847 -0.801687,0.037 -0.960437,0.008 -0.211667,-0.037 -0.611188,-0.11113 -1.013354,-0.40482 -0.3175,-0.23283 -0.486834,-0.49212 -0.590021,-0.65881 -0.452438,-0.7276 -0.457729,-1.46314 -0.386292,-1.81239 z"
       id="path133"
       style="fill:none;stroke:#010202;stroke-width:0.132292;stroke-miterlimit:10" />
    <path
       class="st39"
       d="m 79.057502,158.73923 c -0.03704,-0.0635 -0.08996,-0.18521 -0.05292,-0.30957 0.02646,-0.0953 0.0979,-0.16668 0.336021,-0.29368 0.264583,-0.14288 0.418042,-0.18257 0.701146,-0.30163 0.148166,-0.0608 0.07408,-0.037 0.497416,-0.23019 0.529167,-0.24077 0.611188,-0.26458 0.693209,-0.2831 0.132291,-0.0291 0.142875,-0.0185 0.486833,-0.0794 0.03175,-0.005 0.187854,-0.0344 0.365125,-0.0714 0.505354,-0.10584 0.502708,-0.14288 0.727604,-0.17727 0.211667,-0.0317 0.552979,-0.0847 0.896938,0.0794 0.206375,0.0979 0.338666,0.24077 0.418041,0.33602"
       id="path134"
       style="fill:none;stroke:#010202;stroke-width:0.132292;stroke-miterlimit:10" />
    <path
       class="st39"
       d="m 79.90946,158.95089 c 0.07937,-0.0503 0.203729,-0.12435 0.365125,-0.19579 0.216958,-0.0952 0.306917,-0.10319 0.833438,-0.24077 0.449791,-0.11642 0.563562,-0.1561 0.833437,-0.19579 0.132292,-0.0185 0.243417,-0.0291 0.320146,-0.0344"
       id="path135"
       style="fill:none;stroke:#010202;stroke-width:0.132292;stroke-miterlimit:10" />
    <path
       class="st39"
       d="m 84.391502,157.18612 c 0.05027,-0.0529 0.129645,-0.12435 0.248708,-0.17727 0.100542,-0.045 0.201083,-0.0608 0.365125,-0.0608 0.232833,-0.003 0.306917,0.0264 0.637646,0.0608 0.261937,0.0291 0.306916,0.0185 0.531812,0.0529 0.248709,0.037 0.333375,0.0688 0.365125,0.0794 0.07673,0.0291 0.04498,0.0265 0.381,0.21167 0.119063,0.0661 0.182563,0.10054 0.240771,0.17727 0.05821,0.082 0.07937,0.16933 0.07937,0.17727 0.0079,0.0344 0.0079,0.0662 0.0079,0.09"
       id="path136"
       style="fill:none;stroke:#010202;stroke-width:0.132292;stroke-miterlimit:10" />
    <path
       class="st39"
       d="m 84.780439,157.92166 c 0.227542,-0.0185 0.41275,-0.0423 0.542396,-0.0609 0.232833,-0.0344 0.288396,-0.0529 0.425979,-0.0529 0.187854,0 0.328083,0.0318 0.486833,0.0714 0.137584,0.0317 0.322792,0.0873 0.531813,0.17727"
       id="path137"
       style="fill:none;stroke:#010202;stroke-width:0.132292;stroke-miterlimit:10" />
    <path
       class="st39"
       d="m 87.682918,158.08306 c 0.03175,-0.0529 0.08467,-0.127 0.169334,-0.19579 0.108479,-0.0873 0.20902,-0.11907 0.346604,-0.15875 0.124354,-0.037 0.309562,-0.09 0.550333,-0.0794 0.161396,0.008 0.185208,0.037 0.365125,0.0344 0.169333,0 0.209021,-0.0265 0.320146,-0.0265 0.174625,0 0.28575,0.0661 0.486833,0.16933 0.478896,0.24342 0.404813,0.15875 0.780521,0.36513 0.293688,0.16139 0.4445,0.24341 0.621771,0.39952 0.06085,0.0529 0.150812,0.1561 0.328083,0.36512 0.134938,0.15611 0.195792,0.23548 0.195792,0.34661 0,0.082 -0.0344,0.14552 -0.06085,0.18521"
       id="path138"
       style="fill:none;stroke:#010202;stroke-width:0.132292;stroke-miterlimit:10" />
    <path
       class="st39"
       d="m 88.516356,158.59635 c 0.256646,0.09 0.574146,0.24606 0.859896,0.52388 0.05292,0.0503 0.0979,0.10054 0.142875,0.15081"
       id="path139"
       style="fill:none;stroke:#010202;stroke-width:0.132292;stroke-miterlimit:10" />
    <path
       class="st39"
       d="m 84.169252,157.22316 c 0.01852,0.082 0.04233,0.21167 0.04498,0.37042 0,0.0635 -0.0026,0.0926 -0.02646,0.381 -0.01058,0.13229 -0.02381,0.26723 -0.03439,0.39952 -0.01852,0.1905 -0.0344,0.56885 -0.02646,1.37583"
       id="path140"
       style="fill:none;stroke:#010202;stroke-width:0.132292;stroke-miterlimit:10" />
    <path
       class="st39"
       d="m 87.627356,157.65973 c 0,0.0952 -0.0053,0.23812 -0.04233,0.40481 -0.0291,0.14287 -0.05821,0.17462 -0.105833,0.3466 -0.05027,0.17727 -0.0979,0.44979 -0.108479,0.53975 -0.02646,0.19579 -0.08996,0.51594 -0.272521,1.03981"
       id="path141"
       style="fill:none;stroke:#010202;stroke-width:0.132292;stroke-miterlimit:10" />
  </g>
</svg>
