<?xml version="1.0" encoding="UTF-8" standalone="no"?>
<!-- Created with Inkscape (http://www.inkscape.org/) -->

<svg
   width="15.444421mm"
   height="7.1070547mm"
   viewBox="0 0 15.444421 7.1070548"
   version="1.1"
   id="svg1"
   inkscape:version="1.4 (e7c3feb1, 2024-10-09)"
   sodipodi:docname="bridge-strong-connection.svg"
   xmlns:inkscape="http://www.inkscape.org/namespaces/inkscape"
   xmlns:sodipodi="http://sodipodi.sourceforge.net/DTD/sodipodi-0.dtd"
   xmlns="http://www.w3.org/2000/svg"
   xmlns:svg="http://www.w3.org/2000/svg">
  <sodipodi:namedview
     id="namedview1"
     pagecolor="#ffffff"
     bordercolor="#000000"
     borderopacity="0.25"
     inkscape:showpageshadow="2"
     inkscape:pageopacity="0.0"
     inkscape:pagecheckerboard="0"
     inkscape:deskcolor="#d1d1d1"
     inkscape:document-units="mm"
     inkscape:zoom="5.6586981"
     inkscape:cx="42.059144"
     inkscape:cy="15.109483"
     inkscape:window-width="1200"
     inkscape:window-height="942"
     inkscape:window-x="0"
     inkscape:window-y="25"
     inkscape:window-maximized="0"
     inkscape:current-layer="layer1" />
  <defs
     id="defs1" />
  <g
     inkscape:label="Layer 1"
     inkscape:groupmode="layer"
     id="layer1"
     transform="translate(-97.254408,-144.94648)">
    <path
       class="st39"
       d="m 98.067812,147.56872 c 0.01587,-0.0767 0.04762,-0.23019 0.150813,-0.39952 0.05292,-0.09 0.129646,-0.1905 0.293687,-0.32808 0.06615,-0.0556 0.304271,-0.254 0.754063,-0.46038 0.224896,-0.10318 0.396875,-0.16139 0.709083,-0.26723 0.238122,-0.0794 0.357192,-0.11906 0.521232,-0.15875 0.34396,-0.0794 0.61912,-0.0926 0.74083,-0.0979 0.12965,-0.003 0.35983,-0.008 0.65352,0.0423 0.0926,0.0159 0.25929,0.0476 0.46038,0.11642 0.20373,0.0661 0.38893,0.127 0.59531,0.27516 0.13494,0.0952 0.27781,0.20638 0.36512,0.39953 0.0503,0.11377 0.0714,0.23812 0.0979,0.23283 0.0238,-0.003 0.005,-0.11642 0.0609,-0.25136 0.0397,-0.0953 0.10055,-0.15345 0.16934,-0.22225 0.11906,-0.1217 0.23548,-0.17991 0.33602,-0.23018 0.0397,-0.0185 0.21431,-0.10584 0.47889,-0.15875 0.30428,-0.0635 0.54769,-0.0476 0.60325,-0.045 0.4445,0.0317 0.75936,0.19844 0.83344,0.24077 0.12436,0.0688 0.36513,0.2196 0.56886,0.47096 0.14287,0.17727 0.21431,0.26723 0.27781,0.4101 0.0503,0.11642 0.0741,0.21961 0.127,0.22225 0.0476,0.003 0.0661,-0.082 0.16404,-0.20902 0.0979,-0.127 0.20373,-0.20108 0.29104,-0.25929 0.11642,-0.0794 0.21167,-0.12436 0.29634,-0.15875 0.26987,-0.11113 0.50535,-0.15611 0.61118,-0.17463 0.20109,-0.0317 0.37307,-0.0608 0.59532,-0.0344 0.28575,0.0318 0.48154,0.13229 0.74612,0.26723 0.34396,0.17462 0.56356,0.35983 0.62177,0.40746 0.22225,0.18785 0.35983,0.36512 0.40746,0.42597 0.11906,0.15611 0.18785,0.28311 0.32808,0.5424 0.15346,0.2831 0.21167,0.44185 0.24871,0.55827 0.0265,0.0847 0.0423,0.13229 0.0529,0.20373 0.045,0.27252 -0.0185,0.49477 -0.0529,0.61119 -0.0767,0.254 -0.19314,0.42069 -0.29369,0.55827 -0.1905,0.26723 -0.38629,0.43127 -0.49741,0.52387 -0.17463,0.14288 -0.3175,0.22755 -0.51594,0.34661 -0.24871,0.14816 -0.37306,0.22225 -0.53181,0.27516 -0.32544,0.10848 -0.60325,0.0952 -0.72761,0.09 -0.25929,-0.0159 -0.45773,-0.0741 -0.54768,-0.10583 -0.14817,-0.0503 -0.37042,-0.127 -0.5715,-0.31221 -0.008,-0.008 -0.0159,-0.0132 -0.0238,-0.0238 -0.20373,-0.20902 -0.29105,-0.43127 -0.3228,-0.51858 -0.17727,-0.46832 -0.26723,-0.7038 -0.46302,-0.8599 -0.23283,-0.1905 -0.52123,-0.20638 -0.63764,-0.21167 -0.29369,-0.0159 -0.30957,0.0847 -0.72761,0.11642 -0.17727,0.0132 -0.43391,0.0318 -0.73554,-0.0529 -0.11906,-0.0317 -0.17992,-0.0635 -0.43127,-0.13493 -0.19579,-0.0556 -0.29633,-0.0847 -0.35983,-0.0952 -0.36513,-0.0529 -0.66411,0.0741 -0.75407,0.11641 -0.0503,0.0238 -0.10318,0.0529 -0.39158,0.27517 -0.56092,0.43392 -0.60589,0.51594 -0.85989,0.64823 -0.23284,0.12171 -0.4445,0.18521 -0.50271,0.20373 -0.0794,0.0238 -0.16669,0.045 -0.25929,0.0635 -0.4445,0.0847 -0.80169,0.037 -0.96044,0.008 -0.211669,-0.037 -0.61119,-0.11112 -1.013356,-0.40481 -0.3175,-0.23283 -0.486834,-0.49212 -0.590021,-0.65881 -0.455084,-0.7329 -0.460375,-1.47108 -0.388938,-1.81769 z"
       id="path124"
       style="fill:none;stroke:#010202;stroke-width:0.132292;stroke-miterlimit:10" />
    <path
       class="st39"
       d="m 98.298,148.4392 c -0.03704,-0.0635 -0.08996,-0.18521 -0.05292,-0.30956 0.02646,-0.0952 0.0979,-0.16669 0.336021,-0.29369 0.264583,-0.14287 0.418042,-0.18256 0.701146,-0.30162 0.148166,-0.0609 0.07408,-0.0371 0.497416,-0.23019 0.529167,-0.24077 0.611187,-0.26458 0.693207,-0.28311 0.13229,-0.0291 0.14288,-0.0185 0.48684,-0.0794 0.0318,-0.005 0.18785,-0.0344 0.36512,-0.0714 0.50535,-0.10583 0.50271,-0.14287 0.7276,-0.17727 0.21167,-0.0317 0.55298,-0.0847 0.89694,0.0794 0.20638,0.0979 0.33867,0.24077 0.41804,0.33602"
       id="path125"
       style="fill:none;stroke:#010202;stroke-width:0.132292;stroke-miterlimit:10" />
    <path
       class="st39"
       d="m 99.149958,148.65087 c 0.07937,-0.0503 0.203729,-0.12436 0.365125,-0.19579 0.216958,-0.0952 0.306917,-0.10319 0.833437,-0.24077 0.44979,-0.11642 0.56356,-0.15611 0.83344,-0.1958 0.13229,-0.0185 0.24342,-0.0291 0.32014,-0.0344"
       id="path126"
       style="fill:none;stroke:#010202;stroke-width:0.132292;stroke-miterlimit:10" />
    <path
       class="st39"
       d="m 103.632,146.8861 c 0.0503,-0.0529 0.12965,-0.12436 0.24871,-0.17727 0.10054,-0.045 0.20108,-0.0609 0.36512,-0.0609 0.23284,-0.003 0.30692,0.0265 0.63765,0.0609 0.26194,0.0291 0.30692,0.0185 0.53181,0.0529 0.24871,0.037 0.33338,0.0688 0.36513,0.0794 0.0767,0.0291 0.045,0.0265 0.381,0.21166 0.11906,0.0661 0.18256,0.10055 0.24077,0.17728 0.0582,0.082 0.0794,0.16933 0.0794,0.17727 0.008,0.0344 0.008,0.0661 0.008,0.0899"
       id="path127"
       style="fill:none;stroke:#010202;stroke-width:0.132292;stroke-miterlimit:10" />
    <path
       class="st39"
       d="m 104.02094,147.62164 c 0.22754,-0.0185 0.41275,-0.0423 0.54239,-0.0609 0.23284,-0.0344 0.2884,-0.0529 0.42598,-0.0529 0.18786,0 0.32809,0.0318 0.48684,0.0714 0.13758,0.0318 0.32279,0.0873 0.53181,0.17727"
       id="path128"
       style="fill:none;stroke:#010202;stroke-width:0.132292;stroke-miterlimit:10" />
    <path
       class="st39"
       d="m 106.92342,147.78039 c 0.0318,-0.0529 0.0847,-0.127 0.16933,-0.19579 0.10848,-0.0873 0.20902,-0.11907 0.3466,-0.15875 0.12436,-0.037 0.30957,-0.09 0.55034,-0.0794 0.16139,0.008 0.18521,0.037 0.36512,0.0344 0.16934,0 0.20902,-0.0265 0.32015,-0.0265 0.17462,0 0.28575,0.0661 0.48683,0.16933 0.4789,0.24342 0.40481,0.15875 0.78052,0.36513 0.29369,0.16139 0.4445,0.24341 0.62177,0.39952 0.0609,0.0529 0.15082,0.1561 0.32809,0.36512 0.13493,0.15611 0.19579,0.23548 0.19579,0.34661 0,0.082 -0.0344,0.14552 -0.0609,0.18521"
       id="path129"
       style="fill:none;stroke:#010202;stroke-width:0.132292;stroke-miterlimit:10" />
    <path
       class="st39"
       d="m 107.75685,148.29633 c 0.25665,0.0899 0.57415,0.24606 0.8599,0.52387 0.0529,0.0503 0.0979,0.10054 0.14288,0.15081"
       id="path130"
       style="fill:none;stroke:#010202;stroke-width:0.132292;stroke-miterlimit:10" />
    <path
       class="st39"
       d="m 103.40975,146.92314 c 0.0185,0.082 0.0423,0.21167 0.045,0.37042 0,0.0635 -0.003,0.0926 -0.0265,0.381 -0.0106,0.13229 -0.0238,0.26722 -0.0344,0.39952 -0.0159,0.18256 -0.0344,0.49212 -0.0344,1.05039"
       id="path131"
       style="fill:none;stroke:#010202;stroke-width:0.132292;stroke-miterlimit:10" />
    <path
       class="st39"
       d="m 106.86785,147.3597 c 0,0.0952 -0.005,0.23813 -0.0423,0.40481 -0.0291,0.14288 -0.0582,0.17463 -0.10583,0.34661 -0.0476,0.16404 -0.0847,0.37571 -0.10848,0.53975 -0.0265,0.17198 -0.0767,0.41539 -0.18256,0.71966"
       id="path132"
       style="fill:none;stroke:#010202;stroke-width:0.132292;stroke-miterlimit:10" />
  </g>
</svg>
