<svg width="271" height="271" viewBox="0 0 271 271" fill="none" xmlns="http://www.w3.org/2000/svg">
    <path d="M0 8.5C0 4.08172 3.58172 0.5 8 0.5H262.5C266.918 0.5 270.5 4.08172 270.5 8.5V263C270.5 267.418 266.918 271 262.5 271H8C3.58172 271 0 267.418 0 263V8.5Z" fill="#E4E4E4"/>
    <path d="M135 136C157.091 136 175 118.091 175 96C175 73.9086 157.091 56 135 56C112.909 56 95 73.9086 95 96C95 118.091 112.909 136 135 136Z" fill="#707070"/>
    <path d="M135 149.333C101.878 149.37 75.0369 176.212 75 209.333C75 213.015 77.9847 216 81.6666 216H188.333C192.015 216 195 213.015 195 209.333C194.963 176.212 168.122 149.37 135 149.333Z" fill="#707070"/>
</svg>