<svg viewBox="60.619 39.006 37.104 27.35" xmlns="http://www.w3.org/2000/svg">
  <style type="text/css">
		.st10{fill:#DADADA;stroke:#575756;stroke-width:0.5;stroke-miterlimit:10;}
		.st11{fill:#DADADA;stroke:#1E71B8;stroke-width:0.5;stroke-miterlimit:10;}
		.st13{fill:none;stroke:#1F71B8;stroke-width:0.25;stroke-miterlimit:10;}
		.st14{fill:#1F71B8;}
	</style>
  <line class="st11" x1="61.11" y1="39.74" x2="97.11" y2="39.74"/>
  <line class="st13" x1="78.22" y1="39.74" x2="78.22" y2="41.63"/>
  <path class="st14" d="M 78.22 41.18 L 79.12 40.63 L 79.14 40.66 L 78.56 42.13 C 78.45 42.64 78.33 43.15 78.22 43.67 C 78.11 43.16 77.99 42.65 77.88 42.13 L 77.3 40.66 L 77.32 40.63 L 78.22 41.18 Z"/>
  <path class="st10" d="M 66.54 64.23 C 65.92 64.27 65.33 62.43 64.57 60.1 C 64.1 58.65 63.59 57.04 63.26 54.71 C 63.15 53.95 62.76 51.19 63.06 48.56 C 63.53 44.42 65.77 40.21 67.26 40.36 C 67.43 40.38 67.39 40.43 68.86 41.23 C 69.5 41.58 69.98 41.83 70.52 42.11 C 71.06 42.39 71.39 42.56 71.63 42.67 C 71.93 42.82 72.09 42.9 72.24 42.97 C 72.24 42.97 72.84 43.24 73.45 43.44 C 74.15 43.66 74.77 43.68 75.78 43.74 C 77.96 43.87 77.72 43.95 78.89 43.96 C 80.12 43.98 80.74 43.99 81.41 43.81 C 82.59 43.5 83.56 42.87 83.58 42.91 C 83.59 42.93 83.29 43.12 83.28 43.11 C 83.27 43.09 84.51 42.23 84.73 42.09 C 84.8 42.04 84.88 41.99 84.88 41.99 C 84.97 41.93 85.05 41.88 85.08 41.86 C 85.08 41.86 85.09 41.85 85.1 41.85 C 86.64 40.91 87.6 40.71 87.6 40.71 C 87.91 40.64 88.2 40.58 88.58 40.63 C 88.95 40.68 89.22 40.81 89.45 40.93 C 90.75 41.63 91.5 42.5 91.5 42.5 C 92.09 43.19 92.37 43.84 92.94 45.07 C 93.44 46.16 94.02 47.41 94.5 49.01 C 95.46 52.2 95.57 55.15 95.51 57.02 C 95.4 60.57 94.56 65.41 93.49 65.44 C 92.92 65.45 92.64 64.07 91.32 60.3 C 89.31 54.55 88.27 51.66 86.68 50.86 C 84.55 49.78 83.56 51.71 78.4 51.76 C 73.63 51.8 72.26 50.16 70.57 51.37 C 70.09 51.71 69.57 52.3 68.04 59.3 C 67.31 62.69 67.07 64.2 66.54 64.23 Z"/>
</svg>