<svg viewBox="60.619 39.006 37.104 27.35" xmlns="http://www.w3.org/2000/svg">
  <style type="text/css">
		.st10{fill:#DADADA;stroke:#575756;stroke-width:0.5;stroke-miterlimit:10;}
		.st11{fill:#DADADA;stroke:#1E71B8;stroke-width:0.5;stroke-miterlimit:10;}
		.st13{fill:none;stroke:#1F71B8;stroke-width:0.25;stroke-miterlimit:10;}
		.st14{fill:#1F71B8;}
	</style>
  <line class="st11" x1="61.11" y1="39.74" x2="97.11" y2="39.74"/>
  <line class="st13" x1="78.44" y1="39.74" x2="78.44" y2="43.03"/>
  <path class="st14" d="M 78.44 42.58 L 79.34 42.03 L 79.36 42.06 L 78.78 43.53 C 78.67 44.04 78.55 44.55 78.44 45.07 C 78.33 44.56 78.21 44.05 78.1 43.53 L 77.52 42.06 L 77.54 42.03 L 78.44 42.58 Z"/>
  <path class="st10" d="M 66.5 64.23 C 65.88 64.27 65.29 62.43 64.53 60.1 C 64.06 58.65 63.55 57.04 63.22 54.71 C 63.11 53.95 62.72 51.19 63.02 48.56 C 63.49 44.42 65.73 40.21 67.22 40.36 C 67.39 40.38 67.35 40.43 68.82 41.23 C 69.46 41.58 69.94 41.83 70.48 42.11 C 71.96 42.87 71.89 42.8 72.56 43.16 C 74.14 44.02 74.14 44.27 75.4 44.88 C 76.16 45.24 76.69 45.49 77.47 45.62 C 78.39 45.77 79.88 45.79 80.51 45.25 C 80.51 45.25 81.15 44.7 81.66 44.36 C 81.66 44.36 81.66 44.36 81.67 44.35 C 81.7 44.33 81.74 44.29 82.37 43.81 C 82.63 43.61 83 43.33 83.54 42.91 C 83.72 42.77 84.12 42.46 84.69 42.08 C 84.77 42.03 84.83 41.99 84.84 41.98 C 84.93 41.92 85.01 41.87 85.04 41.85 C 85.04 41.85 85.05 41.84 85.06 41.84 C 86.6 40.9 87.56 40.7 87.56 40.7 C 87.87 40.63 88.16 40.57 88.54 40.62 C 88.91 40.67 89.18 40.8 89.41 40.92 C 90.71 41.62 91.46 42.49 91.46 42.49 C 92.05 43.18 92.33 43.83 92.9 45.06 C 93.4 46.15 93.98 47.4 94.46 49 C 95.42 52.19 95.53 55.14 95.47 57.01 C 95.36 60.56 94.52 65.4 93.45 65.43 C 92.88 65.44 92.6 64.06 91.28 60.29 C 89.27 54.54 88.23 51.65 86.64 50.85 C 84.51 49.77 83.52 51.7 78.36 51.75 C 73.59 51.79 72.22 50.15 70.53 51.36 C 70.05 51.7 69.53 52.29 68 59.29 C 67.27 62.69 67.03 64.2 66.5 64.23 Z"/>
</svg>