<svg viewBox="8.412 18.93 42.256 28.872" xmlns="http://www.w3.org/2000/svg">
	<style type="text/css">
		.st10{fill:#DADADA;stroke:#575756;stroke-width:0.5;stroke-miterlimit:10;}
		.st11{fill:#DADADA;stroke:#1E71B8;stroke-width:0.5;stroke-miterlimit:10;}
		.st13{fill:none;stroke:#1F71B8;stroke-width:0.25;stroke-miterlimit:10;}
		.st14{fill:#1F71B8;}
	</style>
	<line class="st11" x1="9.126" y1="20.637" x2="49.126" y2="20.637"/>
	
	<line class="st13" x1="28.686" y1="20.637" x2="28.686" y2="25.417"/>
	<path class="st14" d="M 28.686 24.967 L 29.586 24.417 L 29.606 24.447 L 29.016 25.917 C 28.906 26.427 28.786 26.937 28.676 27.457 C 28.566 26.947 28.446 26.437 28.336 25.917 L 27.756 24.447 L 27.776 24.417 L 28.686 24.967 Z"/>
	
	<path class="st10" d="M 17.486 45.127 C 16.866 45.167 16.276 43.327 15.516 40.997 C 15.046 39.547 14.536 37.937 14.206 35.607 C 14.096 34.847 13.706 32.087 14.006 29.457 C 14.476 25.317 16.716 21.107 18.206 21.257 C 18.376 21.277 18.336 21.327 19.806 22.127 C 20.916 22.737 20.996 22.687 21.466 23.007 C 22.426 23.657 22.316 23.927 23.006 24.237 C 23.876 24.627 24.206 24.277 24.746 24.707 C 25.346 25.187 25.076 25.737 25.676 26.127 C 26.236 26.497 26.696 26.147 27.236 26.567 C 27.516 26.787 27.616 27.057 27.796 27.567 C 28.076 28.367 28.036 28.807 28.186 29.787 C 28.296 30.487 28.456 31.617 28.686 31.617 C 28.906 31.627 29.136 30.517 29.406 29.227 C 29.716 27.717 29.716 27.217 30.186 26.897 C 30.666 26.567 30.996 26.867 31.516 26.457 C 32.036 26.047 32.116 25.417 32.456 25.427 C 32.696 25.427 32.776 25.717 32.956 25.677 C 33.176 25.627 33.056 25.167 33.366 24.707 C 33.496 24.507 33.546 24.567 34.536 23.807 C 34.716 23.667 35.116 23.357 35.686 22.977 C 35.766 22.927 35.826 22.887 35.836 22.877 C 35.926 22.817 36.006 22.767 36.036 22.747 C 36.036 22.747 36.046 22.737 36.056 22.737 C 37.596 21.797 38.556 21.597 38.556 21.597 C 38.866 21.527 39.156 21.467 39.536 21.517 C 39.906 21.567 40.176 21.697 40.406 21.817 C 41.706 22.517 42.456 23.387 42.456 23.387 C 43.046 24.077 43.326 24.727 43.896 25.957 C 44.396 27.047 44.976 28.297 45.456 29.897 C 46.416 33.087 46.526 36.037 46.466 37.907 C 46.356 41.457 45.516 46.297 44.446 46.327 C 43.876 46.337 43.596 44.957 42.276 41.187 C 40.246 35.377 39.186 32.457 37.636 31.747 C 35.236 30.637 33.966 33.257 28.726 33.167 C 24.776 33.097 23.626 31.577 21.946 32.607 C 20.656 33.407 20.086 35.677 18.986 40.177 C 18.216 43.427 18.046 45.087 17.486 45.127 Z"/>
</svg>