<svg viewBox="44.007 32.512 37.104 27.35" xmlns="http://www.w3.org/2000/svg">
  <style type="text/css">
		.st10{fill:#DADADA;stroke:#575756;stroke-width:0.5;stroke-miterlimit:10;}
		.st11{fill:#DADADA;stroke:#1E71B8;stroke-width:0.5;stroke-miterlimit:10;}
		.st13{fill:none;stroke:#1F71B8;stroke-width:0.25;stroke-miterlimit:10;}
		.st14{fill:#1F71B8;}
	</style>
  <line class="st11" x1="44.382" y1="33.42" x2="80.382" y2="33.42"/>
  <line class="st13" x1="61.052" y1="33.42" x2="61.052" y2="38.2"/>
  <path class="st14" d="M 61.052 37.75 L 61.952 37.2 L 61.972 37.23 L 61.392 38.7 C 61.282 39.21 61.162 39.72 61.052 40.24 C 60.942 39.73 60.822 39.22 60.712 38.7 L 60.132 37.23 L 60.152 37.2 L 61.052 37.75 Z"/>
  <path class="st10" d="M 49.972 57.91 C 49.352 57.95 48.762 56.11 48.002 53.78 C 47.532 52.33 47.022 50.72 46.692 48.39 C 46.582 47.63 46.192 44.87 46.492 42.24 C 46.962 38.1 49.202 33.89 50.692 34.04 C 50.862 34.06 50.822 34.11 52.292 34.91 C 52.932 35.26 53.412 35.51 53.952 35.79 C 55.502 36.6 55.432 36.5 56.032 36.84 C 56.912 37.33 57.642 37.74 58.392 38.48 C 59.192 39.27 59.782 40.18 60.002 40.55 C 60.642 41.57 60.742 42.06 61.062 42.06 C 61.602 42.07 61.412 40.61 62.622 39.69 C 63.172 39.27 64.402 38.68 64.932 38.21 C 64.952 38.19 65.022 38.13 65.132 38.04 C 65.362 37.85 65.602 37.69 67.012 36.59 C 67.192 36.45 67.592 36.14 68.162 35.76 C 68.242 35.71 68.302 35.67 68.312 35.66 C 68.402 35.6 68.482 35.55 68.512 35.53 C 68.512 35.53 68.522 35.52 68.532 35.52 C 70.072 34.58 71.032 34.38 71.032 34.38 C 71.342 34.31 71.632 34.25 72.012 34.3 C 72.382 34.35 72.652 34.48 72.882 34.6 C 74.182 35.3 74.932 36.17 74.932 36.17 C 75.522 36.86 75.802 37.51 76.372 38.74 C 76.872 39.83 77.452 41.08 77.932 42.68 C 78.892 45.87 79.002 48.82 78.942 50.69 C 78.832 54.24 77.992 59.08 76.922 59.11 C 76.352 59.12 76.072 57.74 74.752 53.97 C 72.742 48.22 71.702 45.33 70.112 44.53 C 67.982 43.45 66.992 45.38 61.832 45.43 C 57.062 45.47 55.692 43.83 54.002 45.04 C 53.522 45.38 53.002 45.97 51.472 52.97 C 50.742 56.37 50.502 57.88 49.972 57.91 Z"/>
</svg>