<?xml version="1.0" encoding="utf-8"?>
<svg xmlns="http://www.w3.org/2000/svg" viewBox="119.143 122.279 37.106 27.116">
  <path class="st0" d="M 124.334 147.196 C 123.722 147.236 123.184 145.396 122.511 143.076 C 122.09 141.636 121.633 140.026 121.381 137.696 C 121.236 136.356 120.985 134.006 121.386 131.566 C 121.486 130.966 122.49 125.186 125.038 124.636 C 125.229 124.596 125.097 124.656 128.027 124.666 C 128.097 124.666 128.348 124.646 128.666 124.686 C 128.666 124.686 128.975 124.726 129.252 124.806 C 129.559 124.896 129.854 125.056 130.958 126.146 C 132.08 127.266 132.043 126.876 132.98 127.856 C 133.87 128.776 134.785 130.096 134.843 130.166 C 135.378 130.916 135.7 131.456 136.141 131.416 C 136.322 131.396 136.465 131.296 136.881 130.826 C 137.328 130.326 137.546 130.076 137.987 129.466 C 138.469 128.796 138.953 128.376 139.91 127.556 C 140.713 126.866 140.698 127.036 142.023 125.996 C 142.485 125.636 142.71 125.466 143.162 125.116 C 144.075 124.416 144.157 124.366 144.269 124.306 C 144.594 124.146 144.855 124.126 146.275 124.136 C 147.644 124.156 148.321 124.256 148.548 124.326 C 149.043 124.496 149.878 124.936 151.113 127.466 C 152.199 129.706 152.635 131.606 152.731 132.016 C 153.113 133.746 153.704 136.416 153.474 140.006 C 153.246 143.546 152.244 148.376 151.183 148.396 C 150.613 148.406 150.389 147.036 149.195 143.266 C 147.377 137.536 146.433 134.646 144.89 133.846 C 142.796 132.766 141.752 134.696 136.6 134.736 C 131.839 134.776 130.523 133.146 128.803 134.346 C 128.312 134.686 127.773 135.266 126.009 142.256 C 125.155 145.666 124.865 147.156 124.334 147.196 Z" style="fill: rgb(218, 218, 218); stroke: rgb(88, 88, 87); stroke-miterlimit: 10; stroke-width: 0.25px;"/>
  <polyline class="st5" points="119.853 123.502 131.064 123.567 146.048 123.365 155.161 123.365" style="fill: none; stroke: rgb(30, 113, 184); stroke-miterlimit: 10; stroke-width: 0.5px;"/>
  <path class="st18" d="M 128.658 127.316 C 130.828 127.316 132.588 127.916 133.946 128.896 C 133.667 128.546 133.35 128.166 133.031 127.836 C 132.084 126.856 132.121 127.236 131.008 126.126 C 129.905 125.036 129.61 124.876 129.303 124.786 C 129.026 124.706 128.717 124.666 128.717 124.666 C 128.398 124.626 128.148 124.646 128.078 124.646 C 125.138 124.636 125.27 124.576 125.089 124.616 C 123.185 125.026 122.144 128.356 121.69 130.266 C 123.279 128.506 125.608 127.316 128.658 127.316 Z" style="fill: rgb(229, 36, 39); stroke: rgb(229, 36, 36); stroke-miterlimit: 10; stroke-width: 0.25px;"/>
  <path class="st18" d="M 144.548 126.436 C 148.868 126.436 151.569 128.806 152.736 131.866 C 152.597 131.256 152.145 129.516 151.163 127.476 C 149.938 124.946 149.102 124.506 148.598 124.336 C 148.371 124.256 147.694 124.156 146.324 124.146 C 144.905 124.126 144.644 124.156 144.319 124.316 C 144.207 124.366 144.125 124.416 143.212 125.126 C 142.76 125.476 142.534 125.646 142.072 126.006 C 140.778 127.016 140.753 126.886 140.012 127.516 C 141.285 126.826 142.788 126.436 144.548 126.436 Z" style="fill: rgb(229, 36, 39); stroke: rgb(229, 36, 36); stroke-miterlimit: 10; stroke-width: 0.25px;"/>
</svg>