<?xml version="1.0" encoding="utf-8"?>
<svg xmlns="http://www.w3.org/2000/svg" viewBox="254.801 158.601 35.782 28.639">
  <path class="st0" d="M 259.744 183.611 C 259.134 183.631 258.594 181.771 257.924 179.431 C 257.504 177.971 257.044 176.341 256.794 174.011 C 256.644 172.651 256.384 170.241 256.794 167.881 C 257.434 164.191 259.704 160.511 261.404 160.601 C 261.654 160.611 262.194 160.721 262.714 160.891 C 263.234 161.061 263.594 161.271 264.444 161.701 C 265.354 162.161 265.814 162.401 266.374 162.771 C 267.334 163.421 267.954 164.081 268.404 164.551 C 269.294 165.501 270.214 166.851 270.264 166.921 C 270.794 167.691 271.114 168.241 271.554 168.211 C 271.734 168.201 271.874 168.101 272.294 167.641 C 272.744 167.161 272.964 166.911 273.394 166.321 C 273.874 165.661 274.354 165.271 275.314 164.471 C 275.904 163.981 276.434 163.621 277.424 162.981 C 280.144 161.241 280.904 160.361 282.084 160.571 C 282.324 160.611 282.504 160.681 282.644 160.741 C 283.794 161.191 284.434 162.101 284.834 162.731 C 287.414 166.791 288.134 169.381 288.134 169.381 C 289.064 173.091 288.954 176.121 288.874 177.401 C 288.644 180.931 287.654 185.731 286.584 185.721 C 286.014 185.711 285.784 184.331 284.594 180.531 C 282.774 174.731 281.834 171.821 280.284 170.961 C 278.194 169.811 277.144 171.711 272.004 171.581 C 267.254 171.461 265.934 169.781 264.214 170.931 C 263.724 171.251 263.184 171.821 261.424 178.751 C 260.554 182.101 260.274 183.591 259.744 183.611 Z" style="fill: rgb(218, 218, 218); stroke: rgb(88, 88, 87); stroke-miterlimit: 10; stroke-width: 0.25px;"/>
  <polyline class="st5" points="255.922 159.871 266.408 159.791 280.402 160.041 288.922 160.041" style="fill: none; stroke: rgb(30, 113, 184); stroke-miterlimit: 10; stroke-width: 0.5px;"/>
  <rect x="231.492" y="165.95" class="st1" width="110.37" height="12.17" style="fill: none;"/>
  <path class="st16" d="M 264.094 163.571 C 265.814 163.571 267.274 163.951 268.514 164.601 C 268.494 164.581 268.474 164.561 268.464 164.541 C 268.024 164.071 267.404 163.411 266.434 162.761 C 265.884 162.391 265.414 162.151 264.504 161.691 C 263.644 161.261 263.294 161.051 262.774 160.881 C 262.254 160.711 261.714 160.601 261.464 160.591 C 259.954 160.511 257.994 163.421 257.134 166.651 C 258.654 164.811 260.974 163.571 264.094 163.571 Z" style="fill: rgb(229, 36, 33); stroke: rgb(229, 36, 33); stroke-miterlimit: 10; stroke-width: 0.25px;"/>
  <path class="st16" d="M 279.574 163.541 C 284.444 163.541 287.364 166.541 288.354 170.161 C 288.294 169.901 288.244 169.641 288.174 169.371 C 288.174 169.371 287.454 166.791 284.874 162.721 C 284.474 162.101 283.844 161.181 282.684 160.731 C 282.544 160.681 282.364 160.611 282.124 160.561 C 280.954 160.351 280.194 161.231 277.464 162.971 C 276.494 163.591 275.964 163.951 275.394 164.431 C 276.594 163.871 277.974 163.541 279.574 163.541 Z" style="fill: rgb(229, 36, 33); stroke: rgb(229, 36, 33); stroke-miterlimit: 10; stroke-width: 0.25px;"/>
</svg>