<?xml version="1.0" encoding="utf-8"?>
<svg xmlns="http://www.w3.org/2000/svg" viewBox="311.552 156.907 35.828 30.474">
  <path class="st0" d="M 315.685 183.716 C 315.065 183.726 314.565 181.866 313.925 179.506 C 313.525 178.046 313.095 176.406 312.885 174.076 C 312.835 173.476 312.595 170.716 312.985 167.946 C 313.595 163.586 315.765 158.966 317.075 159.146 C 317.645 159.226 317.615 160.156 319.005 161.046 C 319.505 161.366 319.575 161.296 320.725 161.886 C 321.425 162.246 322.005 162.546 322.635 162.986 C 323.585 163.656 324.195 164.316 324.635 164.796 C 325.505 165.756 326.405 167.126 326.455 167.196 C 326.975 167.966 327.285 168.526 327.725 168.506 C 327.905 168.496 328.045 168.396 328.475 167.946 C 328.935 167.466 329.155 167.226 329.595 166.646 C 330.085 165.996 330.575 165.606 331.545 164.826 C 332.125 164.366 332.355 164.246 333.675 163.366 C 334.255 162.976 335.795 162.096 337.065 161.006 C 337.975 160.226 338.185 160.036 338.185 160.036 C 338.905 159.356 338.925 159.216 339.125 159.196 C 339.695 159.156 340.225 160.296 341.265 162.566 C 341.485 163.046 341.775 163.686 342.005 164.256 C 342.035 164.346 342.135 164.596 342.285 164.946 C 342.355 165.106 342.435 165.296 342.555 165.566 C 343.065 166.696 343.395 167.316 343.795 168.436 C 343.795 168.436 344.095 169.146 344.265 169.906 C 345.135 173.636 344.985 176.656 344.885 177.936 C 344.605 181.466 343.535 186.246 342.465 186.216 C 341.895 186.206 341.685 184.816 340.555 180.996 C 338.825 175.176 337.935 172.236 336.395 171.366 C 334.325 170.186 333.245 172.066 328.105 171.856 C 323.355 171.666 322.065 169.966 320.325 171.086 C 319.835 171.406 319.285 171.956 317.415 178.866 C 316.525 182.216 316.215 183.706 315.685 183.716 Z" style="fill: rgb(218, 218, 218); stroke: rgb(88, 88, 87); stroke-miterlimit: 10; stroke-width: 0.25px;"/>
  <polyline class="st5" points="312.863 158.386 323.349 158.306 337.343 158.556 345.863 158.556" style="fill: none; stroke: rgb(30, 113, 184); stroke-miterlimit: 10; stroke-width: 0.5px;"/>
  <rect x="231.492" y="165.95" class="st1" width="110.37" height="12.17" style="fill: none;"/>
  <path class="st17" d="M 319.485 162.936 C 321.225 162.936 322.715 163.326 323.955 163.986 C 323.615 163.656 323.205 163.296 322.685 162.936 C 322.055 162.496 321.475 162.196 320.775 161.836 C 319.625 161.246 319.555 161.316 319.055 160.996 C 317.665 160.106 317.685 159.176 317.125 159.096 C 316.125 158.956 314.625 161.636 313.695 164.846 C 315.155 163.676 317.075 162.936 319.485 162.936 Z" style="fill: rgb(229, 36, 33); stroke: rgb(229, 36, 39); stroke-miterlimit: 10; stroke-width: 0.25px;"/>
  <path class="st17" d="M 335.855 162.936 C 339.005 162.936 341.335 164.196 342.865 166.066 C 342.785 165.896 342.705 165.726 342.625 165.536 C 342.505 165.266 342.415 165.076 342.355 164.916 C 342.205 164.566 342.105 164.306 342.075 164.226 C 341.855 163.656 341.555 163.016 341.335 162.536 C 340.285 160.266 339.765 159.126 339.195 159.166 C 338.995 159.176 338.975 159.316 338.255 160.006 C 338.255 160.006 338.045 160.206 337.135 160.976 C 336.075 161.886 334.835 162.636 334.115 163.096 C 334.665 162.996 335.235 162.936 335.855 162.936 Z" style="fill: rgb(229, 36, 33); stroke: rgb(229, 36, 39); stroke-miterlimit: 10; stroke-width: 0.25px;"/>
</svg>