<?xml version="1.0" encoding="UTF-8" standalone="no"?>
<!-- Created with Inkscape (http://www.inkscape.org/) -->

<svg
   width="16.22674mm"
   height="21.903507mm"
   viewBox="0 0 16.226741 21.903508"
   version="1.1"
   id="svg1"
   inkscape:version="1.4 (e7c3feb1, 2024-10-09)"
   sodipodi:docname="occlusion-contact.svg"
   xmlns:inkscape="http://www.inkscape.org/namespaces/inkscape"
   xmlns:sodipodi="http://sodipodi.sourceforge.net/DTD/sodipodi-0.dtd"
   xmlns="http://www.w3.org/2000/svg"
   xmlns:svg="http://www.w3.org/2000/svg">
  <sodipodi:namedview
     id="namedview1"
     pagecolor="#ffffff"
     bordercolor="#000000"
     borderopacity="0.25"
     inkscape:showpageshadow="2"
     inkscape:pageopacity="0.0"
     inkscape:pagecheckerboard="0"
     inkscape:deskcolor="#d1d1d1"
     inkscape:document-units="mm"
     inkscape:zoom="5.0901857"
     inkscape:cx="18.073997"
     inkscape:cy="33.888744"
     inkscape:window-width="1920"
     inkscape:window-height="942"
     inkscape:window-x="0"
     inkscape:window-y="25"
     inkscape:window-maximized="1"
     inkscape:current-layer="layer1" />
  <defs
     id="defs1" />
  <g
     inkscape:label="Layer 1"
     inkscape:groupmode="layer"
     id="layer1"
     transform="translate(-55.724126,-146.10466)">
    <path
       class="st120"
       d="m 61.313173,149.06363 c 0.216959,0.13758 0.518584,0.32015 0.891646,0.51065 0.431271,0.2196 0.830792,0.38629 1.30175,0.55562 1.246188,0.44979 2.402417,0.71438 2.894542,0.82021 0.799041,0.17198 1.561041,0.33338 2.6035,0.4101 0.68527,0.0503 1.857375,0.0873 1.857375,0.0873 0.02381,0.19314 0.05292,0.46302 0.07408,0.78846 0.03175,0.49741 0.05821,0.95514 0,1.55045 -0.01588,0.15875 -0.08996,0.84667 -0.367771,1.6854 -0.0635,0.19579 -0.153458,0.46037 -0.3175,0.79375 -0.179917,0.36777 -0.346604,0.61383 -0.542396,0.89694 -0.502708,0.73025 -0.926041,1.14829 -1.037166,1.25677 -0.119063,0.11641 -0.314855,0.29898 -0.600605,0.48154 -0.264583,0.17198 -0.420687,0.26987 -0.658812,0.29369 -0.3175,0.0291 -0.563563,-0.0979 -0.629708,-0.13229 -0.14023,-0.0741 -0.227542,-0.15875 -0.322792,-0.24871 -0.148167,-0.14288 -0.22225,-0.25665 -0.381,-0.48154 -0.351896,-0.51065 -0.301625,-0.41011 -0.452437,-0.64294 -0.3175,-0.48684 -0.272521,-0.51065 -0.423334,-0.65881 -0.07144,-0.0688 -0.328083,-0.31221 -0.73025,-0.381 -0.256646,-0.0423 -0.463021,0.003 -0.60325,0.037 -0.246062,0.0582 -0.407458,0.15346 -0.682625,0.31221 -0.304271,0.17991 -0.3175,0.22489 -0.701146,0.46831 -0.354541,0.22489 -0.574145,0.33337 -0.642937,0.36512 -0.367771,0.17727 -0.555625,0.26459 -0.759354,0.23284 -0.227542,-0.0317 -0.375709,-0.17463 -0.53975,-0.33602 -0.113771,-0.11113 -0.338667,-0.35719 -0.629709,-1.08215 -0.09525,-0.23548 -0.206375,-0.52123 -0.306916,-0.93663 -0.04762,-0.19843 -0.201084,-0.87577 -0.174625,-1.79916 0.01058,-0.35719 0.05821,-1.21709 0.410104,-2.25161 0.394229,-1.17739 1.002771,-2.04258 1.471083,-2.59556 z"
       id="path580"
       style="fill:#dbdbdb;stroke:#e52421;stroke-width:0.264583;stroke-miterlimit:10" />
    <path
       class="st121"
       d="m 61.109444,165.39371 c -0.240771,-0.84931 -0.291042,-1.57956 -0.293687,-2.0902 0,-0.71967 0.100541,-1.26471 0.161395,-1.57957 0.182563,-0.95514 0.473605,-1.6457 0.58473,-1.90235 0.309562,-0.6985 0.500062,-1.09802 0.775229,-1.38906 0.153458,-0.1614 0.370416,-0.34132 0.381,-0.3519 0.261937,-0.21696 0.402166,-0.33602 0.629708,-0.42333 0.100542,-0.0397 0.314854,-0.12171 0.600604,-0.10319 0.113771,0.008 0.298979,0.0185 0.481542,0.13229 0.140229,0.0847 0.238125,0.24077 0.439208,0.55563 0.177271,0.27781 0.243417,0.44185 0.277813,0.53975 0.0344,0.10054 0.05821,0.18521 0.07408,0.24871 0.07144,0.0185 0.201083,0.0476 0.365125,0.0873 0.283104,0.0661 0.336021,0.0794 0.423333,0.11641 0.15875,0.0688 0.26723,0.15082 0.336021,0.20373 0.140229,0.10848 0.230188,0.20902 0.261938,0.24871 0.15875,0.18521 0.166687,0.27517 0.33602,0.49742 0.07408,0.0979 0.142875,0.17198 0.1905,0.2196 0.08996,-0.0714 0.182563,-0.15081 0.277813,-0.23283 0.0635,-0.0556 0.113771,-0.10319 0.156104,-0.14552 0.119063,-0.11642 0.203729,-0.20108 0.22225,-0.21961 0.195792,-0.19843 0.534458,-0.40216 0.717021,-0.51064 0.209021,-0.12436 0.156104,-0.0794 0.746125,-0.39423 0.436562,-0.23283 0.558271,-0.30692 0.788458,-0.3519 0.182563,-0.0344 0.351896,-0.0635 0.53975,0.0159 0.06879,0.0291 0.224896,0.10848 0.439209,0.48154 0.203729,0.35454 0.283104,0.6641 0.306916,0.75935 0.203729,0.81228 0.304271,1.21709 0.333375,1.56634 0.05556,0.65616 -0.01058,1.12712 -0.116416,1.8706 -0.04763,0.34131 -0.119063,0.83609 -0.293688,1.47638 -0.134937,0.49741 -0.338667,1.23825 -0.820208,2.09021 -0.185209,0.32808 -0.362479,0.59002 -0.497417,0.77522 -0.333375,-0.17197 -0.772583,-0.38629 -1.30175,-0.61383 -1.307042,-0.56356 -2.352146,-0.85196 -2.661708,-0.93662 -1.230313,-0.33073 -2.256896,-0.47361 -2.894542,-0.53975 -0.769937,-0.082 -1.441979,-0.10319 -1.965854,-0.10055 z"
       id="path581"
       style="fill:#dbdbdb;stroke:#3a4e9d;stroke-width:0.264583;stroke-miterlimit:10" />
    <line
       class="st81"
       x1="57.22007"
       y1="146.37018"
       x2="57.22007"
       y2="151.77826"
       id="line590"
       style="fill:none;stroke:#000000;stroke-width:0.264583;stroke-miterlimit:10" />
    <path
       d="m 57.220069,153.37635 c -0.277812,-0.75142 -0.754062,-1.68275 -1.259417,-2.26219 l 1.259417,0.45508 1.256771,-0.45508 c -0.502708,0.57679 -0.978958,1.51077 -1.256771,2.26219 z"
       id="path590"
       style="stroke-width:0.264583" />
    <line
       class="st81"
       x1="57.241238"
       y1="166.07106"
       x2="57.206841"
       y2="160.66298"
       id="line592"
       style="fill:none;stroke:#000000;stroke-width:0.264583;stroke-miterlimit:10" />
    <path
       d="m 57.196257,159.06753 c 0.283104,0.74877 0.764645,1.68011 1.272645,2.25425 l -1.262062,-0.44714 -1.254125,0.46302 c 0.500062,-0.58209 0.971021,-1.51606 1.243542,-2.27013 z"
       id="path592"
       style="stroke-width:0.264583" />
  </g>
</svg>
