<?xml version="1.0" encoding="UTF-8" standalone="no"?>
<!-- Created with Inkscape (http://www.inkscape.org/) -->

<svg
   width="18.808746mm"
   height="13.087653mm"
   viewBox="0 0 18.808747 13.087653"
   version="1.1"
   id="svg1"
   inkscape:version="1.4 (e7c3feb1, 2024-10-09)"
   sodipodi:docname="papilla-open.svg"
   xmlns:inkscape="http://www.inkscape.org/namespaces/inkscape"
   xmlns:sodipodi="http://sodipodi.sourceforge.net/DTD/sodipodi-0.dtd"
   xmlns="http://www.w3.org/2000/svg"
   xmlns:svg="http://www.w3.org/2000/svg">
  <sodipodi:namedview
     id="namedview1"
     pagecolor="#ffffff"
     bordercolor="#000000"
     borderopacity="0.25"
     inkscape:showpageshadow="2"
     inkscape:pageopacity="0.0"
     inkscape:pagecheckerboard="0"
     inkscape:deskcolor="#d1d1d1"
     inkscape:document-units="mm"
     inkscape:zoom="7.9925287"
     inkscape:cx="38.035522"
     inkscape:cy="39.599482"
     inkscape:window-width="1920"
     inkscape:window-height="942"
     inkscape:window-x="0"
     inkscape:window-y="25"
     inkscape:window-maximized="1"
     inkscape:current-layer="layer1" />
  <defs
     id="defs1" />
  <g
     inkscape:label="Layer 1"
     inkscape:groupmode="layer"
     id="layer1"
     transform="translate(-95.443413,-141.9737)">
    <path
       class="st110"
       d="m 107.7086,150.44763 c -0.0423,-0.64823 -0.0635,-0.97367 -0.0556,-1.39436 0.0132,-0.49741 0.0556,-0.88106 0.0873,-1.13771 0.0556,-0.46566 0.0926,-0.78581 0.1905,-1.19062 0.18786,-0.76465 0.46832,-1.30704 0.66146,-1.66952 0.33338,-0.62971 0.49742,-0.94721 0.82021,-1.18798 0.10319,-0.0767 0.78052,-0.58473 1.47108,-0.35719 0.29369,0.0953 0.46567,0.28575 0.6985,0.55034 0.50007,0.5662 0.67205,1.10331 0.87048,1.58485 0.46038,1.11654 0.58738,0.88635 0.99748,1.88648 0.21961,0.5371 0.56092,1.51871 0.60061,2.7596 0.0238,0.73025 0.0318,1.15888 -0.21961,1.62454 -0.27516,0.508 -0.48154,0.36248 -1.16416,1.17211 -0.41275,0.48948 -0.64294,0.91017 -1.1139,1.1086 -0.29104,0.12171 -0.57679,0.13229 -0.57679,0.13229 -0.0741,0.003 -0.28046,0.005 -0.52388,-0.0688 -0.32808,-0.0979 -0.42068,-0.24341 -0.88635,-0.58737 -0.23019,-0.17198 -0.16669,-0.10319 -0.88635,-0.60325 -0.3519,-0.24342 -0.48948,-0.34396 -0.6059,-0.53975 -0.12171,-0.20109 -0.15081,-0.381 -0.17992,-0.59002 -0.10318,-0.70644 -0.1561,-1.06098 -0.18521,-1.49225 z"
       id="path422"
       style="fill:#f2f2f2;stroke:#000000;stroke-width:0.0661458;stroke-miterlimit:10" />
    <path
       class="st110"
       d="m 96.532603,147.11123 c -0.14022,0.25665 -0.17991,0.44979 -0.30162,1.11654 -0.21696,1.18534 -0.35454,2.07169 -0.381,2.27013 -0.0582,0.43656 -0.10319,0.78316 -0.14817,1.27264 0,0 -0.0794,0.83873 0.0767,2.18282 0.0159,0.13493 0.0476,0.381 0.23284,0.56356 0.17197,0.16933 0.38893,0.20373 0.49741,0.2196 1.26471,0.18257 1.66423,0.16669 1.66423,0.16669 1.50283,-0.003 1.35996,-0.10054 2.135187,-0.0635 0.95514,0.0476 1.21444,0.19844 1.69069,-0.008 0.53445,-0.23283 0.80962,-0.68527 0.89429,-0.83343 0.18785,-0.33867 0.1905,-0.76994 0.20108,-1.62984 0.008,-0.67204 -0.0476,-1.38641 -0.0609,-1.54781 -0.003,-0.0317 -0.0132,-0.18256 -0.0291,-0.36777 -0.0291,-0.3519 -0.0503,-0.59531 -0.0582,-0.67998 -0.0741,-0.87313 -0.037,-0.89429 -0.09,-1.24354 -0.0873,-0.57679 -0.12965,-0.86784 -0.31221,-1.21709 -0.26988,-0.51858 -0.66411,-0.80433 -0.91017,-0.98425 -0.61912,-0.44979 -1.21708,-0.57414 -1.49754,-0.62177 -0.441847,-0.0767 -1.516057,-0.26193 -2.545287,0.35984 -0.22225,0.13229 -0.7329,0.43921 -1.05834,1.0451 z"
       id="path436"
       style="fill:#f2f2f2;stroke:#000000;stroke-width:0.0661458;stroke-miterlimit:10" />
    <path
       class="st110"
       d="m 103.21598,153.09081 c -0.12171,-0.49741 -0.12965,-0.89429 -0.13229,-0.96043 -0.0132,-0.55563 -0.0238,-0.83609 -0.037,-1.09009 -0.0159,-0.28839 -0.0397,-0.54239 -0.0635,-0.7911 -0.0132,-0.13229 -0.0212,-0.26194 -0.0397,-0.47625 -0.0423,-0.52388 -0.0476,-0.61119 -0.0476,-0.71438 -0.003,-0.1561 -0.008,-0.3175 0.0106,-0.52916 0.0132,-0.17463 0.037,-0.43656 0.13758,-0.75671 0.0106,-0.0344 0.0794,-0.24871 0.20108,-0.48683 0.17198,-0.33602 0.58473,-1.15623 1.44463,-1.46844 0.2196,-0.0794 0.60325,-0.21961 1.02394,-0.0767 0.21695,0.0741 0.37041,0.22754 0.67468,0.53181 0.27517,0.27517 0.53975,0.53711 0.74084,0.94721 0.12964,0.25929 0.18785,0.48948 0.26193,0.87577 0.14817,0.78052 0.15611,1.19063 0.24871,2.16958 0.0714,0.75407 0.12436,1.09803 0.11113,1.71186 -0.008,0.48683 -0.0529,0.87048 -0.30163,1.2356 -0.16668,0.24342 -0.35718,0.37836 -0.44714,0.44186 -0.21961,0.15346 -0.44186,0.24341 -1.70392,0.40216 -0.63765,0.082 -0.83608,0.09 -1.10331,0.0318 -0.20638,-0.045 -0.49742,-0.11377 -0.71438,-0.36248 -0.0608,-0.0688 -0.15875,-0.20108 -0.26458,-0.635 z"
       id="path437"
       style="fill:#f2f2f2;stroke:#000000;stroke-width:0.0661458;stroke-miterlimit:10" />
    <path
       class="st110"
       d="m 107.64775,150.3365 c -0.0847,-0.80169 -0.14552,-0.79904 -0.17727,-1.40758 -0.0212,-0.41804 -0.0344,-0.67469 0.0212,-1.02923 0.0397,-0.24871 0.11641,-0.51594 0.26987,-1.0451 0.0873,-0.30163 0.12965,-0.45509 0.18256,-0.60325 0.11377,-0.32809 0.2884,-0.75142 0.59002,-1.30705 0.34925,-0.64293 0.52917,-0.97102 0.82021,-1.18798 0.10319,-0.0767 0.78052,-0.58472 1.47109,-0.35718 0.29368,0.0953 0.46566,0.28575 0.6985,0.55033 0.48948,0.55563 0.64823,1.06892 0.87048,1.58485 0.48154,1.13771 0.61118,0.91811 1.02922,1.92882 0.4154,1.00541 0.5424,1.84414 0.59003,2.25689 0.10847,0.96044 0.17197,1.50813 -0.12436,2.09021 -0.27252,0.53446 -0.45773,0.33338 -1.21973,1.28058 -0.4101,0.51065 -0.62441,0.90223 -1.11389,1.10861 -0.33867,0.14287 -0.66146,0.13494 -0.68792,0.13229 -0.10054,-0.003 -0.30692,-0.0106 -0.5424,-0.11377 -0.21695,-0.0952 -0.27781,-0.19315 -0.7276,-0.52123 -0.0952,-0.0688 -0.17463,-0.12435 -0.2249,-0.15875 -0.0476,-0.0317 -0.11906,-0.0794 -0.20637,-0.13494 -0.30163,-0.20108 -0.45244,-0.30162 -0.56621,-0.38893 -0.23019,-0.17728 -0.43921,-0.33603 -0.58737,-0.59532 -0.11642,-0.20108 -0.15082,-0.381 -0.17992,-0.59002 -0.11113,-0.80169 -0.18256,-1.46314 -0.18521,-1.49225 z"
       id="path438"
       style="fill:#f2f2f2;stroke:#000000;stroke-width:0.0661458;stroke-miterlimit:10" />
    <path
       class="st111"
       d="m 97.530083,149.28875 c -0.008,0.83079 -0.0238,1.67481 -0.0503,2.53206 -0.0185,0.56886 -0.0397,1.13242 -0.0661,1.68805"
       id="path439"
       style="fill:none;stroke:#000000;stroke-width:0.0661458;stroke-miterlimit:10" />
    <path
       class="st111"
       d="m 100.48283,149.3549 c 0.0106,1.37319 0.0212,2.74902 0.0344,4.12221"
       id="path440"
       style="fill:none;stroke:#000000;stroke-width:0.0661458;stroke-miterlimit:10" />
    <path
       class="st111"
       d="m 104.55477,150.58256 c -0.0291,0.71703 -0.0582,1.43405 -0.0873,2.15107"
       id="path441"
       style="fill:none;stroke:#000000;stroke-width:0.0661458;stroke-miterlimit:10" />
    <path
       class="st111"
       d="m 106.11052,150.69634 c 0.0317,0.6006 0.0635,1.20385 0.0979,1.80445"
       id="path442"
       style="fill:none;stroke:#000000;stroke-width:0.0661458;stroke-miterlimit:10" />
    <path
       class="st111"
       d="m 111.60856,147.51869 c 0.0714,1.22767 0.14288,2.45798 0.21432,3.68565"
       id="path443"
       style="fill:none;stroke:#000000;stroke-width:0.0661458;stroke-miterlimit:10" />
    <path
       class="st111"
       d="m 109.51571,147.68802 c 0.0291,1.33879 0.0609,2.67494 0.09,4.01373"
       id="path444"
       style="fill:none;stroke:#000000;stroke-width:0.0661458;stroke-miterlimit:10" />
    <path
       class="st111"
       d="m 97.482463,147.10065 c 0.30956,-0.30427 0.61383,-0.46831 0.81756,-0.55827 0.0926,-0.0397 1.35731,-0.57415 2.320397,0.0952 0.18785,0.12964 0.3175,0.27516 0.39952,0.381"
       id="path445"
       style="fill:none;stroke:#000000;stroke-width:0.0661458;stroke-miterlimit:10" />
    <path
       class="st111"
       d="m 104.03883,147.30967 c 0.0344,-0.13229 0.10848,-0.3519 0.28046,-0.56356 0.0609,-0.0741 0.39159,-0.48155 0.91281,-0.51594 0.48155,-0.0317 0.96044,0.26987 1.21444,0.75671"
       id="path446"
       style="fill:none;stroke:#000000;stroke-width:0.0661458;stroke-miterlimit:10" />
    <path
       class="st111"
       d="m 108.57644,145.90738 c 0.0529,-0.24871 0.16933,-0.63236 0.4445,-1.016 0.15346,-0.21167 0.72496,-1.01071 1.50283,-0.9869 0.70115,0.0185 1.39436,0.6985 1.59279,1.67481"
       id="path447"
       style="fill:none;stroke:#000000;stroke-width:0.0661458;stroke-miterlimit:10" />
    <path
       class="st112"
       d="m 95.778543,144.86756 c -0.53181,1.05569 -0.005,2.9263 0.20109,2.93423 0.0423,0.003 0.0953,-0.0714 0.18785,-0.19314 0.09,-0.12171 0.11377,-0.19315 0.20373,-0.35454 0.008,-0.0132 0.0926,-0.16405 0.19314,-0.30692 0.10584,-0.14817 0.1958,-0.24077 0.34661,-0.39423 0.18256,-0.18785 0.29104,-0.29633 0.46831,-0.42333 0.0741,-0.0529 0.21167,-0.14552 0.39952,-0.23548 0.25929,-0.12436 0.47096,-0.17463 0.67998,-0.22754 0.14023,-0.0344 0.27781,-0.0661 0.46831,-0.0873 0.23019,-0.0238 0.39952,-0.0132 0.62442,0.003 0.29633,0.0185 0.523877,0.0582 0.621767,0.0741 0.16933,0.0318 0.36777,0.0662 0.61913,0.15082 0.16668,0.0556 0.35718,0.1217 0.57943,0.254 0.0794,0.0476 0.24342,0.17197 0.5715,0.42333 0.23813,0.17992 0.24077,0.18521 0.2884,0.21696 0.18785,0.11906 0.37042,0.23283 0.62442,0.24871 0.10318,0.005 0.2831,0 0.46831,-0.09 0.11112,-0.0529 0.20108,-0.14023 0.381,-0.31221 0.18521,-0.17727 0.19579,-0.21431 0.33337,-0.34131 0.09,-0.082 0.22755,-0.21167 0.42598,-0.32544 0.127,-0.0741 0.37307,-0.21167 0.71438,-0.23813 0.12171,-0.0106 0.3175,-0.0238 0.54769,0.0609 0.19579,0.0714 0.33337,0.18256 0.41804,0.254 0.0212,0.0185 0.11377,0.0926 0.21696,0.20902 0.11112,0.12435 0.11641,0.16139 0.20372,0.26194 0.11642,0.13758 0.22225,0.26458 0.39423,0.31485 0.20373,0.0608 0.3863,-0.0185 0.43657,-0.0397 0.17198,-0.0741 0.26723,-0.19843 0.38364,-0.35454 0.0741,-0.0979 0.11642,-0.17462 0.2884,-0.51594 0.23812,-0.4736 0.24077,-0.50006 0.35189,-0.6985 0.0926,-0.16404 0.11377,-0.18785 0.23019,-0.39687 0.10054,-0.18521 0.12171,-0.23283 0.20373,-0.36777 0.0952,-0.15875 0.14817,-0.24871 0.24077,-0.35719 0.0318,-0.037 0.14552,-0.16933 0.32808,-0.30162 0.20638,-0.15082 0.39423,-0.22755 0.49213,-0.26459 0.12171,-0.045 0.254,-0.0926 0.43656,-0.10319 0.0556,-0.003 0.508,-0.0265 0.84138,0.25136 0.0847,0.0688 0.18256,0.17462 0.24341,0.24077 0.10055,0.10848 0.17198,0.19579 0.19844,0.23019 0.0397,0.0503 0.12965,0.16404 0.23813,0.33337 0.12435,0.19315 0.20902,0.32279 0.29104,0.51065 0.0794,0.18256 0.10319,0.29369 0.23019,0.41539 0.0688,0.0661 0.1217,0.11642 0.17462,0.10584 0.082,-0.0159 0.18521,-0.19315 0.18521,-1.29911 0.003,-0.96043 0.005,-1.44198 -0.0714,-1.59543 -0.59531,-1.19063 -4.65402,0.45772 -10.38754,0.98689 -3.690937,0.34396 -5.849937,0.0212 -6.516687,1.34408 z"
       id="path448"
       style="fill:#ee7eb0;stroke:#000000;stroke-width:0.0661458;stroke-miterlimit:10" />
    <path
       class="st111"
       d="M 112.51608,147.59806"
       id="path463"
       style="fill:none;stroke:#000000;stroke-width:0.0661458;stroke-miterlimit:10" />
    <path
       class="st110"
       d="M 109.48925,147.33348"
       id="path464"
       style="fill:#f2f2f2;stroke:#000000;stroke-width:0.0661458;stroke-miterlimit:10" />
  </g>
</svg>
