<?xml version="1.0" encoding="UTF-8" standalone="no"?>
<!-- Created with Inkscape (http://www.inkscape.org/) -->

<svg
   width="18.803909mm"
   height="13.108452mm"
   viewBox="0 0 18.803909 13.108452"
   version="1.1"
   id="svg1"
   inkscape:version="1.4 (e7c3feb1, 2024-10-09)"
   sodipodi:docname="papilla-free.svg"
   xmlns:inkscape="http://www.inkscape.org/namespaces/inkscape"
   xmlns:sodipodi="http://sodipodi.sourceforge.net/DTD/sodipodi-0.dtd"
   xmlns="http://www.w3.org/2000/svg"
   xmlns:svg="http://www.w3.org/2000/svg">
  <sodipodi:namedview
     id="namedview1"
     pagecolor="#ffffff"
     bordercolor="#000000"
     borderopacity="0.25"
     inkscape:showpageshadow="2"
     inkscape:pageopacity="0.0"
     inkscape:pagecheckerboard="0"
     inkscape:deskcolor="#d1d1d1"
     inkscape:document-units="mm"
     inkscape:zoom="5.6515713"
     inkscape:cx="44.943254"
     inkscape:cy="30.522485"
     inkscape:window-width="1920"
     inkscape:window-height="942"
     inkscape:window-x="0"
     inkscape:window-y="25"
     inkscape:window-maximized="1"
     inkscape:current-layer="layer1" />
  <defs
     id="defs1" />
  <g
     inkscape:label="Layer 1"
     inkscape:groupmode="layer"
     id="layer1"
     transform="translate(-95.363966,-141.94577)">
    <path
       class="st110"
       d="m 96.532667,147.11123 c -0.14023,0.25665 -0.179917,0.44979 -0.301625,1.11654 -0.216959,1.18534 -0.354542,2.07169 -0.381,2.27013 -0.05821,0.43656 -0.103188,0.78316 -0.148167,1.27264 0,0 -0.07937,0.83873 0.07673,2.18282 0.01587,0.13493 0.04762,0.381 0.232833,0.56356 0.17198,0.16933 0.388938,0.20373 0.497417,0.2196 1.264708,0.18257 1.664229,0.16669 1.664229,0.16669 1.502834,-0.003 1.359959,-0.10054 2.135186,-0.0635 0.95515,0.0476 1.21444,0.19844 1.69069,-0.008 0.53446,-0.23283 0.80962,-0.68527 0.89429,-0.83343 0.24077,-0.43392 0.24342,-0.83609 0.20108,-1.62984 -0.0529,-1.01335 -0.0714,-1.53458 -0.21695,-2.50825 -0.21432,-1.44727 -0.42069,-2.032 -0.54505,-2.35214 -0.30691,-0.78582 -0.55298,-1.04775 -0.6985,-1.18005 -0.48948,-0.44714 -1.04775,-0.54504 -1.49754,-0.62177 -0.441852,-0.0767 -1.51606,-0.26193 -2.545289,0.35984 -0.219604,0.13229 -0.73025,0.43921 -1.058333,1.0451 z"
       id="path423"
       style="fill:#f2f2f2;stroke:#000000;stroke-width:0.0661458;stroke-miterlimit:10" />
    <path
       class="st110"
       d="m 103.21604,153.09081 c -0.12171,-0.49741 -0.12964,-0.89429 -0.13229,-0.96043 -0.0423,-1.74096 -0.10319,-1.66423 -0.0582,-2.34421 0.0212,-0.33073 0.0476,-0.72496 0.14817,-1.24619 0.0979,-0.52123 0.17991,-0.94192 0.41804,-1.43669 0.22754,-0.4736 0.49741,-1.02923 1.09537,-1.28852 0.10848,-0.0476 0.55034,-0.23812 1.02394,-0.0767 0.254,0.0873 0.44715,0.24871 0.67469,0.53182 0.48683,0.60325 0.72231,1.24089 0.87577,1.76741 0.12964,0.44186 0.21167,1.03717 0.37571,2.22779 0.0503,0.35455 0.127,0.94721 0.11112,1.71186 -0.008,0.48683 -0.0529,0.87048 -0.30162,1.2356 -0.16669,0.24342 -0.35719,0.37836 -0.44715,0.44186 -0.2196,0.15346 -0.44185,0.24341 -1.70391,0.40216 -0.63765,0.082 -0.83609,0.09 -1.10332,0.0318 -0.20637,-0.045 -0.49741,-0.11377 -0.71437,-0.36248 -0.0582,-0.0688 -0.15611,-0.20108 -0.26194,-0.635 z"
       id="path424"
       style="fill:#f2f2f2;stroke:#000000;stroke-width:0.0661458;stroke-miterlimit:10" />
    <path
       class="st110"
       d="m 107.64781,150.3365 c -0.0423,-0.64823 -0.0635,-0.97366 -0.0529,-1.39435 0.0132,-0.49742 0.0556,-0.88106 0.0873,-1.13771 0.0556,-0.46567 0.0926,-0.78581 0.1905,-1.19063 0.18786,-0.76464 0.46832,-1.30704 0.66146,-1.66952 0.33338,-0.6297 0.49742,-0.9472 0.82021,-1.18798 0.10319,-0.0767 0.78052,-0.58472 1.47108,-0.35718 0.29369,0.0953 0.46567,0.28575 0.6985,0.55033 0.50006,0.56621 0.67204,1.10331 0.87048,1.58485 0.46038,1.11655 0.58738,0.88636 0.99748,1.88648 0.2196,0.53711 0.56091,1.51871 0.6006,2.75961 0.0238,0.73025 0.0318,1.15887 -0.2196,1.62454 -0.27517,0.508 -0.48155,0.36248 -1.16417,1.1721 -0.41275,0.48948 -0.64293,0.91017 -1.11389,1.10861 -0.29104,0.12171 -0.57679,0.13229 -0.57679,0.13229 -0.0741,0.003 -0.28046,0.005 -0.52388,-0.0688 -0.32808,-0.0979 -0.42069,-0.24342 -0.88635,-0.58738 -0.23019,-0.17198 -0.16669,-0.10318 -0.88636,-0.60325 -0.35189,-0.24341 -0.48948,-0.34396 -0.60589,-0.53975 -0.12171,-0.20108 -0.15082,-0.381 -0.17992,-0.59002 -0.10583,-0.70644 -0.15875,-1.06098 -0.18785,-1.49225 z"
       id="path425"
       style="fill:#f2f2f2;stroke:#000000;stroke-width:0.0661458;stroke-miterlimit:10" />
    <path
       class="st111"
       d="m 97.532792,149.28875 c -0.0079,0.83079 -0.02381,1.67481 -0.05027,2.53206 -0.01852,0.56886 -0.03969,1.13242 -0.06615,1.68805"
       id="path426"
       style="fill:none;stroke:#000000;stroke-width:0.0661458;stroke-miterlimit:10" />
    <path
       class="st111"
       d="m 100.4829,149.3549 c 0.0106,1.37319 0.0212,2.74902 0.0344,4.12221"
       id="path427"
       style="fill:none;stroke:#000000;stroke-width:0.0661458;stroke-miterlimit:10" />
    <path
       class="st111"
       d="m 104.55748,150.58256 c -0.0291,0.71703 -0.0582,1.43405 -0.0873,2.15107"
       id="path428"
       style="fill:none;stroke:#000000;stroke-width:0.0661458;stroke-miterlimit:10" />
    <path
       class="st111"
       d="m 106.11058,150.69634 c 0.0318,0.6006 0.0635,1.20385 0.0979,1.80445"
       id="path429"
       style="fill:none;stroke:#000000;stroke-width:0.0661458;stroke-miterlimit:10" />
    <path
       class="st111"
       d="m 111.60862,147.51869 c 0.0714,1.22767 0.14288,2.45798 0.21432,3.68565"
       id="path430"
       style="fill:none;stroke:#000000;stroke-width:0.0661458;stroke-miterlimit:10" />
    <path
       class="st111"
       d="m 109.51577,147.68802 c 0.0291,1.33879 0.0609,2.67494 0.09,4.01373"
       id="path431"
       style="fill:none;stroke:#000000;stroke-width:0.0661458;stroke-miterlimit:10" />
    <path
       class="st111"
       d="m 97.482521,147.10065 c 0.309562,-0.30427 0.613833,-0.46831 0.817562,-0.55827 0.0926,-0.0397 1.357313,-0.57415 2.320397,0.0952 0.18785,0.12964 0.3175,0.27516 0.39952,0.381"
       id="path432"
       style="fill:none;stroke:#000000;stroke-width:0.0661458;stroke-miterlimit:10" />
    <path
       class="st111"
       d="m 104.0389,147.30967 c 0.0344,-0.13229 0.10847,-0.3519 0.28045,-0.56356 0.0609,-0.0741 0.39159,-0.48155 0.91282,-0.51594 0.48154,-0.0317 0.96043,0.26987 1.21443,0.75671"
       id="path433"
       style="fill:none;stroke:#000000;stroke-width:0.0661458;stroke-miterlimit:10" />
    <path
       class="st111"
       d="m 108.5765,145.90738 c 0.0529,-0.24871 0.16933,-0.63236 0.4445,-1.016 0.15346,-0.21167 0.72496,-1.01071 1.50283,-0.9869 0.70115,0.0185 1.39436,0.6985 1.5928,1.67481"
       id="path434"
       style="fill:none;stroke:#000000;stroke-width:0.0661458;stroke-miterlimit:10" />
    <path
       class="st112"
       d="m 95.778604,144.86756 c -0.531812,1.05569 -0.0053,2.9263 0.201083,2.93423 0.04233,0.003 0.09525,-0.0714 0.187855,-0.19314 0.08996,-0.12171 0.11377,-0.19315 0.203729,-0.35454 0.0079,-0.0132 0.0926,-0.16405 0.193146,-0.30692 0.105833,-0.14817 0.195791,-0.24077 0.346604,-0.39423 0.182562,-0.18785 0.291041,-0.29633 0.468312,-0.42333 0.07408,-0.0529 0.211667,-0.14552 0.399521,-0.23548 0.259292,-0.12436 0.470958,-0.17463 0.679979,-0.22754 0.140229,-0.0344 0.277813,-0.0661 0.468313,-0.0873 0.230187,-0.0238 0.399521,-0.0132 0.624416,0.003 0.296334,0.0185 0.523878,0.0582 0.621768,0.0741 0.16934,0.0318 0.36777,0.0662 0.61913,0.15082 0.16669,0.0556 0.35719,0.1217 0.57944,0.254 0.0794,0.0476 0.24341,0.17197 0.5715,0.42333 0.23812,0.17992 0.24077,0.18521 0.28839,0.21696 0.18786,0.11906 0.37042,0.23283 0.62442,0.24871 0.10319,0.005 0.2831,0 0.46831,-0.09 0.11113,-0.0529 0.20108,-0.14023 0.381,-0.31221 0.18521,-0.17727 0.19579,-0.21431 0.33338,-0.34131 0.09,-0.082 0.22754,-0.21167 0.42597,-0.32544 0.127,-0.0741 0.37307,-0.21167 0.71438,-0.23813 0.12171,-0.0106 0.3175,-0.0238 0.54769,0.0609 0.19579,0.0714 0.33337,0.18256 0.41804,0.254 0.0212,0.0185 0.11377,0.0926 0.21696,0.20902 0.11112,0.12435 0.11641,0.16139 0.20373,0.26194 0.11641,0.13758 0.22225,0.26458 0.39423,0.31485 0.20372,0.0608 0.38629,-0.0185 0.43656,-0.0397 0.17198,-0.0741 0.26723,-0.19843 0.38364,-0.35454 0.0741,-0.0979 0.11642,-0.17462 0.2884,-0.51594 0.23812,-0.4736 0.24077,-0.50006 0.3519,-0.6985 0.0926,-0.16404 0.11377,-0.18785 0.23018,-0.39687 0.10054,-0.18521 0.12171,-0.23283 0.20373,-0.36777 0.0953,-0.15875 0.14817,-0.24871 0.24077,-0.35719 0.0318,-0.037 0.14552,-0.16933 0.32809,-0.30162 0.20637,-0.15082 0.39423,-0.22755 0.49212,-0.26459 0.12171,-0.045 0.254,-0.0926 0.43656,-0.10319 0.0556,-0.003 0.508,-0.0265 0.84138,0.25136 0.0847,0.0688 0.18256,0.17462 0.24342,0.24077 0.10054,0.10848 0.17197,0.19579 0.19843,0.23019 0.0397,0.0503 0.12965,0.16404 0.23813,0.33337 0.12435,0.19315 0.20902,0.32279 0.29104,0.51065 0.0794,0.18256 0.10319,0.29369 0.23019,0.41539 0.0688,0.0661 0.12171,0.11642 0.17462,0.10584 0.082,-0.0159 0.18521,-0.19315 0.18521,-1.29911 0.003,-0.96043 0.005,-1.44198 -0.0714,-1.59543 -0.59531,-1.19063 -4.65402,0.45772 -10.38754,0.98689 -3.690938,0.34396 -5.847292,0.0212 -6.516688,1.34408 z"
       id="path435"
       style="fill:#ee7eb0;stroke:#000000;stroke-width:0.0661458;stroke-miterlimit:10" />
  </g>
</svg>
