<?xml version="1.0" encoding="UTF-8" standalone="no"?>
<!-- Created with Inkscape (http://www.inkscape.org/) -->

<svg
   width="18.748659mm"
   height="13.094646mm"
   viewBox="0 0 18.748659 13.094646"
   version="1.1"
   id="svg1"
   inkscape:version="1.4 (e7c3feb1, 2024-10-09)"
   sodipodi:docname="papilla-closed.svg"
   xmlns:inkscape="http://www.inkscape.org/namespaces/inkscape"
   xmlns:sodipodi="http://sodipodi.sourceforge.net/DTD/sodipodi-0.dtd"
   xmlns="http://www.w3.org/2000/svg"
   xmlns:svg="http://www.w3.org/2000/svg">
  <sodipodi:namedview
     id="namedview1"
     pagecolor="#ffffff"
     bordercolor="#000000"
     borderopacity="0.25"
     inkscape:showpageshadow="2"
     inkscape:pageopacity="0.0"
     inkscape:pagecheckerboard="0"
     inkscape:deskcolor="#d1d1d1"
     inkscape:document-units="mm"
     inkscape:zoom="11.303143"
     inkscape:cx="44.147015"
     inkscape:cy="18.003843"
     inkscape:window-width="1920"
     inkscape:window-height="942"
     inkscape:window-x="0"
     inkscape:window-y="25"
     inkscape:window-maximized="1"
     inkscape:current-layer="layer1" />
  <defs
     id="defs1" />
  <g
     inkscape:label="Layer 1"
     inkscape:groupmode="layer"
     id="layer1"
     transform="translate(-121.46708,-140.76233)">
    <path
       class="st110"
       d="m 122.58145,145.8941 c -0.14022,0.25665 -0.17991,0.44979 -0.30162,1.11654 -0.21696,1.18534 -0.35454,2.07169 -0.381,2.27013 -0.0582,0.43656 -0.10319,0.78316 -0.14817,1.27264 0,0 -0.0794,0.83873 0.0767,2.18282 0.0159,0.13493 0.0476,0.381 0.23284,0.56356 0.17197,0.16933 0.38893,0.20373 0.49741,0.2196 1.26471,0.18257 1.66423,0.16669 1.66423,0.16669 1.50283,-0.003 1.35996,-0.10054 2.13519,-0.0635 0.95514,0.0476 1.21444,0.19844 1.69069,-0.008 0.53445,-0.23283 0.80962,-0.68527 0.89429,-0.83343 0.18785,-0.33867 0.1905,-0.76994 0.20108,-1.62984 0.008,-0.67204 -0.0476,-1.38641 -0.0609,-1.54781 -0.003,-0.0317 -0.0132,-0.18256 -0.0291,-0.36777 -0.0291,-0.3519 -0.0503,-0.59531 -0.0582,-0.67998 -0.0317,-0.36777 -0.045,-0.55033 -0.045,-0.61648 0.005,-0.18256 0.0291,-0.21431 0.0264,-0.41804 0,-0.0767 -0.005,-0.14552 -0.0132,-0.27781 -0.0159,-0.24871 -0.0212,-0.23548 -0.0265,-0.34661 -0.0132,-0.3175 0.0344,-0.40216 -0.0185,-0.63235 0,0 0,0 0,0 0,0 0.003,0.0159 0.0106,0.0476 0.0608,-0.17991 0.10848,-0.40746 -0.005,-0.52916 -0.0529,-0.0582 -0.10584,-0.0503 -0.23284,-0.0847 -0.33337,-0.0873 -0.33073,-0.24871 -1.00012,-0.58208 -0.003,-0.003 -0.005,-0.003 -0.0106,-0.005 -0.7329,-0.36247 -1.09803,-0.55297 -1.49755,-0.62177 -0.44185,-0.0767 -1.51606,-0.26193 -2.54529,0.35984 -0.21696,0.13229 -0.7276,0.43921 -1.05569,1.0451 z"
       id="path449"
       style="fill:#f2f2f2;stroke:#000000;stroke-width:0.0661458;stroke-miterlimit:10" />
    <path
       class="st110"
       d="m 129.26748,151.87368 c -0.12171,-0.49741 -0.12965,-0.89429 -0.1323,-0.96043 -0.0132,-0.55563 -0.0238,-0.83609 -0.037,-1.09009 -0.0159,-0.28839 -0.0397,-0.54239 -0.0635,-0.7911 -0.0132,-0.13229 -0.0212,-0.26194 -0.0397,-0.47625 -0.0423,-0.52388 -0.0476,-0.61119 -0.0476,-0.71438 -0.008,-0.32014 0.0185,-0.35189 0.0106,-0.52916 -0.008,-0.15081 -0.0291,-0.21696 -0.0291,-0.30692 0,-0.0423 0.005,-0.045 0.0106,-0.10583 0.0132,-0.12965 0.008,-0.22225 0.003,-0.31486 -0.005,-0.1905 0.0159,-0.16668 0.0132,-0.51064 0,-0.17992 -0.008,-0.25929 0.0476,-0.29898 0.045,-0.0317 0.0873,-0.008 0.19579,-0.0291 0,0 0.0873,-0.0159 0.21167,-0.0873 0.2196,-0.12435 0.50006,-0.48419 0.63235,-0.62441 0.1323,-0.14288 0.34396,-0.31486 0.69586,-0.43657 v 0 c 0.13494,-0.0556 0.56885,-0.21166 1.02394,-0.0767 0.20902,0.0635 0.36777,0.17198 0.38629,0.18521 0.16933,0.11642 0.22754,0.21696 0.33073,0.32809 0.39687,0.42597 0.80698,0.30162 0.9472,0.63764 0.0265,0.0635 0.003,0.0688 0.0185,0.41275 0,0 0,0.0185 0.037,0.80169 0.0212,0.45508 0.0767,0.93662 0.20637,2.159 0.082,0.762 0.12171,1.15623 0.11113,1.71185 -0.008,0.48684 -0.0529,0.87048 -0.30163,1.23561 -0.16669,0.24341 -0.35719,0.37835 -0.44714,0.44185 -0.21961,0.15346 -0.44186,0.24342 -1.70392,0.40217 -0.63765,0.082 -0.83608,0.09 -1.10331,0.0317 -0.20638,-0.045 -0.49742,-0.11377 -0.71438,-0.36248 -0.0582,-0.0662 -0.1561,-0.19844 -0.26193,-0.63236 z"
       id="path450"
       style="fill:#f2f2f2;stroke:#000000;stroke-width:0.0661458;stroke-miterlimit:10" />
    <path
       class="st110"
       d="m 133.69925,149.11937 c -0.0344,-0.30162 -0.0503,-0.44979 -0.0688,-0.58208 -0.0476,-0.34661 -0.0794,-0.50536 -0.10848,-0.8255 -0.0238,-0.254 -0.0185,-0.33338 -0.0265,-0.5715 -0.003,-0.10848 -0.003,-0.0794 -0.0238,-0.46831 -0.0159,-0.30957 -0.0132,-0.31221 -0.0212,-0.36777 -0.005,-0.045 -0.0265,-0.18521 -0.0582,-0.35719 -0.0132,-0.0794 -0.0212,-0.10848 -0.0212,-0.1614 0,-0.0608 -0.003,-0.16933 0.0476,-0.26194 0.0556,-0.10318 0.127,-0.0953 0.254,-0.20902 0.0185,-0.0159 0.0714,-0.0661 0.17462,-0.22225 0.17198,-0.26193 0.27252,-0.50006 0.27781,-0.51064 0.0767,-0.18256 0.0397,-0.0609 0.45509,-0.85725 0.32808,-0.62706 0.46037,-0.91811 0.82021,-1.18798 0.10318,-0.0767 0.78052,-0.58473 1.47108,-0.35719 0.29369,0.0952 0.46567,0.28575 0.6985,0.55033 0.0714,0.082 0.12965,0.15611 0.17992,0.23019 0.32808,0.48684 0.43656,0.83873 0.68791,1.35467 0.0159,0.0344 0.003,0.005 0.47361,0.83608 0.48948,0.8599 0.52916,0.94192 0.57943,1.0504 0.26988,0.58208 0.381,1.01864 0.41011,1.13241 0.0714,0.2884 0.10319,0.51859 0.12435,0.6694 0.0132,0.0953 0.0556,0.42333 0.0688,0.95779 0.0159,0.68263 0.0212,1.03188 -0.10054,1.35731 -0.0661,0.17463 -0.1561,0.41805 -0.381,0.6059 -0.0688,0.0582 -0.12171,0.0873 -0.28046,0.21696 -0.0106,0.008 -0.18256,0.15081 -0.33072,0.29369 -0.20903,0.20108 -0.32015,0.35454 -0.45509,0.52123 -0.47625,0.58472 -0.71173,0.87577 -1.06627,0.94985 -0.10054,0.0212 -0.52123,0.0926 -0.51858,0.0926 v 0 c 0,0 -0.30163,0.003 -0.52388,-0.0688 -0.0661,-0.0212 -0.11112,-0.0423 -0.49741,-0.33337 -0.33602,-0.25136 -0.34925,-0.27252 -0.51594,-0.38629 -0.14817,-0.10584 -0.14552,-0.0952 -0.44715,-0.29898 -0.4101,-0.27782 -0.29633,-0.21432 -0.43127,-0.29898 -0.19844,-0.12436 -0.36512,-0.20902 -0.48948,-0.4154 -0.0106,-0.0159 -0.0159,-0.0291 -0.0238,-0.0397 -0.037,-0.0714 -0.09,-0.20373 -0.1561,-0.55033 -0.0847,-0.46302 -0.09,-0.70379 -0.17727,-1.48696 z"
       id="path451"
       style="fill:#f2f2f2;stroke:#000000;stroke-width:0.0661458;stroke-miterlimit:10" />
    <path
       class="st111"
       d="m 123.58158,148.07162 c -0.008,0.83079 -0.0238,1.67481 -0.0503,2.53206 -0.0185,0.56886 -0.0397,1.13242 -0.0662,1.68805"
       id="path452"
       style="fill:none;stroke:#000000;stroke-width:0.0661458;stroke-miterlimit:10" />
    <path
       class="st111"
       d="m 126.53433,148.13777 c 0.0106,1.37319 0.0212,2.74902 0.0344,4.12221"
       id="path453"
       style="fill:none;stroke:#000000;stroke-width:0.0661458;stroke-miterlimit:10" />
    <path
       class="st111"
       d="m 130.60627,149.36543 c -0.0291,0.71703 -0.0582,1.43405 -0.0873,2.15107"
       id="path454"
       style="fill:none;stroke:#000000;stroke-width:0.0661458;stroke-miterlimit:10" />
    <path
       class="st111"
       d="m 132.15937,149.47921 c 0.0318,0.6006 0.0635,1.20385 0.0979,1.80445"
       id="path455"
       style="fill:none;stroke:#000000;stroke-width:0.0661458;stroke-miterlimit:10" />
    <path
       class="st111"
       d="m 137.66006,146.30156 c 0.0714,1.22767 0.14287,2.45798 0.21431,3.68565"
       id="path456"
       style="fill:none;stroke:#000000;stroke-width:0.0661458;stroke-miterlimit:10" />
    <path
       class="st111"
       d="m 135.5672,146.47089 c 0.0291,1.33879 0.0609,2.67494 0.09,4.01373"
       id="path457"
       style="fill:none;stroke:#000000;stroke-width:0.0661458;stroke-miterlimit:10" />
    <path
       class="st111"
       d="m 123.14502,146.78839 c 0.0529,-0.17198 0.33337,-1.01864 1.20385,-1.46314 0.90488,-0.46038 1.78858,-0.15082 2.032,-0.0662 0.34131,0.11906 0.58208,0.28311 0.70908,0.37571 0.49478,0.37042 0.70644,0.82021 0.762,0.93927 0.17198,0.37571 0.20903,0.72231 0.21432,0.94721"
       id="path458"
       style="fill:none;stroke:#000000;stroke-width:0.0661458;stroke-miterlimit:10" />
    <path
       class="st111"
       d="m 129.82045,147.03181 c 0.045,-0.24077 0.12171,-0.56885 0.26988,-0.93927 0.11112,-0.28311 0.16933,-0.42333 0.28046,-0.56356 0.0608,-0.0767 0.40746,-0.49213 0.91281,-0.51594 0.56885,-0.0265 0.96838,0.46037 1.21444,0.75671 0.38893,0.47096 0.52123,0.97896 0.5715,1.28852"
       id="path459"
       style="fill:none;stroke:#000000;stroke-width:0.0661458;stroke-miterlimit:10" />
    <path
       class="st111"
       d="m 134.2972,146.74871 c -0.0529,-0.41275 -0.1905,-1.87061 0.77523,-3.07711 0.24607,-0.30427 0.81757,-1.02129 1.50284,-0.98689 0.87577,0.0423 1.76477,1.29116 1.93939,3.14589"
       id="path460"
       style="fill:none;stroke:#000000;stroke-width:0.0661458;stroke-miterlimit:10" />
    <path
       class="st112"
       d="m 121.83004,143.65043 c -0.53181,1.05569 -0.005,2.9263 0.20108,2.93423 0.0159,0 0.0714,-0.0635 0.18786,-0.19314 0.10318,-0.11377 0.16933,-0.1905 0.23812,-0.2884 0.10054,-0.14287 0.10319,-0.18256 0.19315,-0.33073 0.127,-0.20637 0.25929,-0.3466 0.32279,-0.41275 0.17991,-0.18785 0.34396,-0.30162 0.46302,-0.38364 0.18785,-0.12965 0.34396,-0.20902 0.40217,-0.23813 0.28045,-0.14023 0.52387,-0.20902 0.67468,-0.24606 0.045,-0.0106 0.21961,-0.0503 0.45509,-0.0741 0.27781,-0.0265 0.49212,-0.0159 0.63764,-0.005 0.15611,0.0106 0.3519,0.0238 0.6059,0.0794 0.20108,0.045 0.37041,0.10319 0.48419,0.14817 0.10583,0.0423 0.20108,0.0847 0.38893,0.17462 0.0529,0.0265 0.10319,0.0503 0.37307,0.18256 0.40216,0.19844 0.45772,0.22755 0.54239,0.28311 0.16933,0.10848 0.13758,0.11377 0.28575,0.20902 0.18521,0.11642 0.36777,0.23283 0.62442,0.24871 0.10319,0.005 0.2831,0 0.46831,-0.09 0.11113,-0.0529 0.20108,-0.14023 0.381,-0.31221 0.18521,-0.17727 0.19579,-0.21431 0.33338,-0.34131 0.0899,-0.082 0.22754,-0.21167 0.42597,-0.32544 0.127,-0.0741 0.37307,-0.21167 0.71438,-0.23812 0.12171,-0.0106 0.3175,-0.0238 0.54769,0.0608 0.19579,0.0714 0.33337,0.18256 0.41804,0.254 0.0212,0.0185 0.11377,0.0926 0.21696,0.20902 0.11112,0.12435 0.11641,0.1614 0.20373,0.26194 0.11641,0.13758 0.22225,0.26458 0.39422,0.31485 0.20373,0.0609 0.3863,-0.0185 0.43657,-0.0397 0.17198,-0.0741 0.26723,-0.19843 0.38364,-0.35454 0.0741,-0.0979 0.11642,-0.17462 0.2884,-0.51593 0.23812,-0.47361 0.24077,-0.50007 0.35189,-0.6985 0.0926,-0.16405 0.11378,-0.18786 0.23019,-0.39688 0.10054,-0.18521 0.12171,-0.23283 0.20373,-0.36777 0.0952,-0.15875 0.14817,-0.24871 0.24077,-0.35719 0.0318,-0.037 0.14552,-0.16933 0.32809,-0.30162 0.20637,-0.15082 0.39422,-0.22754 0.49212,-0.26459 0.12171,-0.045 0.254,-0.0926 0.43656,-0.10318 0.0556,-0.003 0.508,-0.0265 0.84138,0.25135 0.0847,0.0688 0.18256,0.17463 0.24341,0.24077 0.10055,0.10848 0.17198,0.19579 0.19844,0.23019 0.0397,0.0503 0.12965,0.16404 0.23813,0.33337 0.12435,0.19315 0.20902,0.3228 0.29104,0.51065 0.0794,0.18256 0.10319,0.29369 0.23019,0.4154 0.0688,0.0661 0.1217,0.11641 0.17462,0.10583 0.082,-0.0159 0.18521,-0.19315 0.18521,-1.29911 0.003,-0.96043 0.005,-1.44197 -0.0714,-1.59543 -0.59531,-1.19063 -4.65402,0.45773 -10.38754,0.98689 -3.69358,0.33867 -5.85258,0.0159 -6.51933,1.33879 z"
       id="path461"
       style="fill:#ee7eb0;stroke:#000000;stroke-width:0.0661458;stroke-miterlimit:10" />
    <path
       class="st110"
       d="M 129.13254,146.24864"
       id="path462"
       style="fill:#f2f2f2;stroke:#000000;stroke-width:0.0661458;stroke-miterlimit:10" />
    <path
       class="st111"
       d="m 133.71512,149.25696 c -0.003,-0.0185 -0.0291,-0.25136 -0.0847,-0.71967 -0.0582,-0.49477 -0.0635,-0.53975 -0.0741,-0.64029 -0.0291,-0.29634 -0.0423,-0.51329 -0.0635,-0.81757 -0.0476,-0.73025 -0.0159,-0.59266 -0.0423,-0.77258 -0.0556,-0.41539 -0.14817,-0.635 -0.0132,-0.82021 0.005,-0.005 0.0609,-0.0635 0.17462,-0.17727 0.1905,-0.19314 0.25136,-0.254 0.28046,-0.2831 0.17992,-0.18521 0.21167,-0.36248 0.35454,-0.68792 0.0556,-0.12435 0.1614,-0.31485 0.37307,-0.69321 0.3466,-0.61648 0.52916,-0.87577 0.83608,-1.10596 0.0106,-0.008 0.0212,-0.0159 0.0397,-0.0291 0.17991,-0.12965 0.80168,-0.53446 1.43139,-0.32808 0.30956,0.10054 0.48948,0.30691 0.6985,0.55033 0.41275,0.4789 0.33602,0.68263 0.82815,1.6166 0.21431,0.40746 0.26194,0.43392 0.72496,1.2753 0.16933,0.30691 0.25135,0.46037 0.31485,0.58208 0.57415,1.13771 0.58738,2.3151 0.6006,2.7596 0.0238,0.73025 0.0317,1.15888 -0.2196,1.62455 -0.27517,0.508 -0.48154,0.36247 -1.16417,1.1721 -0.41275,0.48948 -0.64293,0.91017 -1.11389,1.1086 -0.29104,0.12171 -0.57679,0.1323 -0.57679,0.1323 -0.0741,0.003 -0.28046,0.005 -0.52388,-0.0688 -0.32808,-0.0979 -0.42069,-0.24341 -0.88635,-0.58737 -0.13759,-0.10319 -0.16934,-0.11906 -0.32544,-0.22225 -0.19315,-0.127 -0.52917,-0.35983 -0.56092,-0.381 -0.381,-0.27252 -0.57414,-0.40746 -0.6641,-0.53711 -0.10583,-0.15081 -0.14023,-0.35189 -0.20902,-0.75141 -0.0556,-0.34661 -0.0476,-0.42334 -0.13494,-1.19856 z"
       id="path465"
       style="fill:none;stroke:#000000;stroke-width:0.0661458;stroke-miterlimit:10" />
  </g>
</svg>
