<?xml version="1.0" encoding="UTF-8" standalone="no"?>
<!-- Created with Inkscape (http://www.inkscape.org/) -->

<svg
   width="11.642118mm"
   height="16.561607mm"
   viewBox="0 0 11.642119 16.561606"
   version="1.1"
   id="svg1"
   inkscape:version="1.4 (e7c3feb1, 2024-10-09)"
   sodipodi:docname="sattel-b.svg"
   xmlns:inkscape="http://www.inkscape.org/namespaces/inkscape"
   xmlns:sodipodi="http://sodipodi.sourceforge.net/DTD/sodipodi-0.dtd"
   xmlns="http://www.w3.org/2000/svg"
   xmlns:svg="http://www.w3.org/2000/svg">
  <sodipodi:namedview
     id="namedview1"
     pagecolor="#ffffff"
     bordercolor="#000000"
     borderopacity="0.25"
     inkscape:showpageshadow="2"
     inkscape:pageopacity="0.0"
     inkscape:pagecheckerboard="0"
     inkscape:deskcolor="#d1d1d1"
     inkscape:document-units="mm"
     inkscape:zoom="7.9925287"
     inkscape:cx="14.763788"
     inkscape:cy="35.72086"
     inkscape:window-width="1920"
     inkscape:window-height="942"
     inkscape:window-x="0"
     inkscape:window-y="25"
     inkscape:window-maximized="1"
     inkscape:current-layer="layer1" />
  <defs
     id="defs1" />
  <g
     inkscape:label="Layer 1"
     inkscape:groupmode="layer"
     id="layer1"
     transform="translate(-95.504414,-131.83354)">
    <path
       class="st114"
       d="m 102.48122,136.80859 c 0.20373,-0.0979 0.26458,-0.18257 0.48948,-0.23548 0.10054,-0.0238 0.28839,-0.0662 0.48948,0 0.24606,0.082 0.37571,0.2831 0.47096,0.43127 0.17462,0.27516 0.20902,0.50535 0.29368,0.94191 0.14023,0.72496 0.12171,0.48948 0.21432,1.01865 0.10054,0.56885 0.20108,1.13242 0.23547,1.88119 0.0185,0.41539 0.0106,0.71702 0,1.07685 -0.005,0.17463 -0.0264,0.7964 -0.11641,1.64571 -0.0714,0.65881 -0.11906,1.09273 -0.254,1.6854 -0.0476,0.20902 -0.0344,0.11906 -0.33338,1.15622 -0.34925,1.2065 -0.46831,1.67482 -0.84666,1.8124 -0.0953,0.0344 -0.18257,0.0397 -0.23548,0.037 -0.1614,-0.0238 -0.26194,-0.15346 -0.30692,-0.21166 -0.0212,-0.0265 -0.0873,-0.11642 -0.15875,-0.36778 -0.037,-0.13229 -0.0662,-0.27252 -0.0979,-0.55297 -0.0265,-0.2249 -0.0212,-0.27517 -0.0423,-0.48155 -0.0159,-0.15345 -0.045,-0.4101 -0.0979,-0.73818 -0.0529,-0.32809 -0.082,-0.49213 -0.14553,-0.71173 -0.0476,-0.1614 -0.10318,-0.35454 -0.22225,-0.58738 -0.12435,-0.24606 -0.25135,-0.4101 -0.37306,-0.56621 -0.20637,-0.26193 -0.38894,-0.43656 -0.55033,-0.59266 -0.20108,-0.1905 -0.18256,-0.15346 -0.65088,-0.56621 -0.082,-0.0741 -0.264584,-0.23548 -0.486862,-0.45244 -0.158763,-0.1561 -0.243433,-0.24606 -0.330743,-0.35189 -0.11906,-0.14552 -0.19844,-0.26723 -0.23548,-0.3228 -0.0767,-0.1217 -0.132287,-0.22754 -0.246057,-0.47095 -0.14552,-0.30957 -0.2196,-0.46567 -0.25929,-0.5768 -0.153457,-0.40481 -0.193147,-0.74877 -0.214307,-0.96043 -0.0609,-0.55563 0,-0.98161 0.0397,-1.23561 0.045,-0.29368 0.100537,-0.49741 0.214317,-0.90223 0.24341,-0.85989 0.367767,-1.28852 0.587367,-1.3335 0.18785,-0.037 0.23548,0.18521 0.725005,0.39159 0.21167,0.09 0.40217,0.12435 0.78317,0.19579 0.36247,0.0661 0.54239,0.10054 0.78316,0.0979 0.27252,0 0.56356,-0.003 0.87842,-0.15345 z"
       id="path475"
       style="opacity:1;fill:none;stroke:#010202;stroke-width:0.132292;stroke-miterlimit:10" />
    <path
       class="st114"
       d="m 95.65494,132.05932 c 1.25412,0.16139 1.846784,0.62177 2.156344,1.01864 0.17198,0.21961 0.388937,0.64294 0.822854,1.48961 0.24606,0.48154 0.35718,0.7276 0.627057,1.05833 0.1905,0.23283 0.423335,0.51329 0.822895,0.74348 0.58209,0.33602 1.14036,0.3466 1.3679,0.3466 0.16933,0 0.72231,-0.0106 1.33615,-0.30691 0.33072,-0.1614 0.6006,-0.40746 1.1377,-0.90223 0.45244,-0.4154 0.75407,-0.69321 1.09802,-1.13771 0.39952,-0.51594 0.381,-0.64294 0.66675,-0.94192 0.42334,-0.43921 0.92605,-0.64294 1.29382,-0.74348"
       id="path476"
       style="opacity:1;fill:none;stroke:#010202;stroke-width:0.132292;stroke-miterlimit:10" />
  </g>
</svg>
