<?xml version="1.0" encoding="UTF-8" standalone="no"?>
<!-- Created with Inkscape (http://www.inkscape.org/) -->

<svg
   width="11.553199mm"
   height="16.526079mm"
   viewBox="0 0 11.553198 16.52608"
   version="1.1"
   id="svg1"
   inkscape:version="1.4 (e7c3feb1, 2024-10-09)"
   sodipodi:docname="sattel-a.svg"
   xmlns:inkscape="http://www.inkscape.org/namespaces/inkscape"
   xmlns:sodipodi="http://sodipodi.sourceforge.net/DTD/sodipodi-0.dtd"
   xmlns="http://www.w3.org/2000/svg"
   xmlns:svg="http://www.w3.org/2000/svg">
  <sodipodi:namedview
     id="namedview1"
     pagecolor="#ffffff"
     bordercolor="#000000"
     borderopacity="0.25"
     inkscape:showpageshadow="2"
     inkscape:pageopacity="0.0"
     inkscape:pagecheckerboard="0"
     inkscape:deskcolor="#d1d1d1"
     inkscape:document-units="mm"
     inkscape:zoom="7.9925287"
     inkscape:cx="42.539728"
     inkscape:cy="41.976702"
     inkscape:window-width="1920"
     inkscape:window-height="942"
     inkscape:window-x="0"
     inkscape:window-y="25"
     inkscape:window-maximized="1"
     inkscape:current-layer="layer1" />
  <defs
     id="defs1" />
  <g
     inkscape:label="Layer 1"
     inkscape:groupmode="layer"
     id="layer1"
     transform="translate(-98.126103,-139.23045)">
    <path
       class="st83"
       d="m 105.0613,144.1512 c 0.20373,-0.0979 0.26459,-0.18256 0.48948,-0.23548 0.10054,-0.0238 0.2884,-0.0661 0.48948,0 0.24606,0.082 0.37571,0.28311 0.47096,0.43127 0.17462,0.27517 0.20902,0.50536 0.29369,0.94192 0.14023,0.72496 0.12171,0.48948 0.21431,1.01865 0.10054,0.56885 0.20108,1.13241 0.23548,1.88118 0.0185,0.4154 0.0106,0.71703 0,1.07686 -0.005,0.17462 -0.0265,0.79639 -0.11642,1.64571 -0.0714,0.65881 -0.11906,1.09273 -0.254,1.68539 -0.0476,0.20902 -0.0344,0.11906 -0.33337,1.15623 -0.34925,1.2065 -0.46832,1.67481 -0.84667,1.8124 -0.0953,0.0344 -0.18256,0.0397 -0.23548,0.037 -0.16139,-0.0238 -0.26194,-0.15346 -0.30692,-0.21167 -0.0212,-0.0265 -0.0873,-0.11641 -0.15875,-0.36777 -0.037,-0.13229 -0.0662,-0.27252 -0.0979,-0.55298 -0.0265,-0.22489 -0.0212,-0.27516 -0.0423,-0.48154 -0.0159,-0.15346 -0.045,-0.4101 -0.0979,-0.73819 -0.0529,-0.32808 -0.082,-0.49212 -0.14552,-0.71173 -0.0476,-0.16139 -0.10318,-0.35454 -0.22225,-0.58737 -0.12435,-0.24606 -0.25135,-0.41011 -0.37306,-0.56621 -0.20637,-0.26194 -0.38894,-0.43656 -0.55033,-0.59267 -0.20109,-0.1905 -0.18257,-0.15345 -0.65088,-0.5662 -0.082,-0.0741 -0.26458,-0.23548 -0.48683,-0.45244 -0.15875,-0.15611 -0.24342,-0.24606 -0.33073,-0.3519 -0.11906,-0.14552 -0.19844,-0.26723 -0.23548,-0.32279 -0.0767,-0.12171 -0.13229,-0.22754 -0.24606,-0.47096 -0.14552,-0.30956 -0.21961,-0.46566 -0.25929,-0.57679 -0.15082,-0.39687 -0.1905,-0.73025 -0.21432,-0.96044 -0.0423,-0.37041 -0.0767,-0.67468 0.005,-1.07685 0.037,-0.17727 0.13494,-0.5715 0.41275,-0.97896 0.0794,-0.11906 0.18521,-0.27252 0.37307,-0.43127 0.3122,-0.26723 0.62441,-0.35454 0.68527,-0.37306 0.26193,-0.0714 0.46566,-0.0529 0.87577,-0.0185 0.47889,0.0397 0.46302,0.10318 0.78316,0.0979 0.26988,-0.005 0.55827,-0.008 0.87577,-0.15875 z"
       id="path477"
       style="fill:none;stroke:#010202;stroke-width:0.132292;stroke-miterlimit:10" />
    <path
       class="st83"
       d="m 98.235067,139.40193 c 1.254127,0.1614 1.846773,0.62177 2.156343,1.01865 0.17198,0.2196 0.38893,0.64294 0.82285,1.4896 0.24606,0.48154 0.35719,0.72761 0.62706,1.05834 0.1905,0.23283 0.42334,0.51329 0.82286,0.74347 0.58208,0.33603 1.14035,0.34661 1.36789,0.34661 0.16934,0 0.72232,-0.0106 1.33615,-0.30692 0.33073,-0.16139 0.6006,-0.40746 1.13771,-0.90223 0.45244,-0.41539 0.75406,-0.69321 1.09802,-1.13771 0.39952,-0.51593 0.381,-0.64293 0.66675,-0.94191 0.42333,-0.43921 0.92604,-0.64294 1.29381,-0.74348"
       id="path478"
       style="fill:none;stroke:#010202;stroke-width:0.132292;stroke-miterlimit:10" />
  </g>
</svg>
