<?xml version="1.0" encoding="utf-8"?>
<svg version="1.1" id="Ebene_1" xmlns="http://www.w3.org/2000/svg" x="0px" y="0px" viewBox="179.297 278.214 42.503 42.208" style="enable-background:new 0 0 841.89 595.28;">
  <style type="text/css">
	.st0{fill:none;stroke:#878787;stroke-width:1.4208;}
	.st1{fill:#FFFFFF;}
	.st2{fill:none;stroke:#878787;stroke-width:1.4208;stroke-linecap:round;}
	.st3{font-family:'ArialMT';}
	.st4{font-size:4.9737px;}
	.st5{fill:#FFFFFF;stroke:#010202;stroke-width:0.5;}
	.st6{font-size:14.6729px;}
	.st7{fill:none;}
	.st8{font-size:4px;}
	.st9{font-size:6px;}
	.st10{fill:none;stroke:#010202;stroke-width:0.25;stroke-miterlimit:10;}
	.st11{fill:none;stroke:#E52421;stroke-width:0.25;stroke-miterlimit:10;}
	.st12{fill:#96989E;}
	.st13{fill:#C7CAD2;}
	.st14{clip-path:url(#SVGID_2_);}
	.st15{clip-path:url(#SVGID_4_);}
	.st16{clip-path:url(#SVGID_6_);}
	.st17{clip-path:url(#SVGID_8_);}
	.st18{clip-path:url(#SVGID_10_);}
	.st19{clip-path:url(#SVGID_12_);}
	.st20{clip-path:url(#SVGID_14_);}
	.st21{clip-path:url(#SVGID_16_);}
	.st22{clip-path:url(#SVGID_18_);}
	.st23{clip-path:url(#SVGID_20_);}
	.st24{clip-path:url(#SVGID_22_);}
	.st25{clip-path:url(#SVGID_24_);}
	.st26{clip-path:url(#SVGID_26_);}
	.st27{clip-path:url(#SVGID_28_);}
	.st28{clip-path:url(#SVGID_30_);}
	.st29{clip-path:url(#SVGID_32_);}
	.st30{fill:#3C3C3B;}
	.st31{fill:#010202;}
	.st32{clip-path:url(#SVGID_34_);}
	.st33{clip-path:url(#SVGID_36_);}
	.st34{clip-path:url(#SVGID_38_);}
	.st35{clip-path:url(#SVGID_40_);}
	.st36{clip-path:url(#SVGID_42_);}
	.st37{clip-path:url(#SVGID_44_);}
	.st38{clip-path:url(#SVGID_46_);}
	.st39{clip-path:url(#SVGID_48_);}
	.st40{clip-path:url(#SVGID_50_);}
	.st41{clip-path:url(#SVGID_52_);}
	.st42{clip-path:url(#SVGID_54_);}
	.st43{clip-path:url(#SVGID_56_);}
	.st44{clip-path:url(#SVGID_58_);}
	.st45{clip-path:url(#SVGID_60_);}
	.st46{clip-path:url(#SVGID_62_);}
	.st47{clip-path:url(#SVGID_64_);}
	.st48{clip-path:url(#SVGID_66_);}
	.st49{clip-path:url(#SVGID_68_);}
	.st50{clip-path:url(#SVGID_70_);}
	.st51{clip-path:url(#SVGID_72_);}
	.st52{clip-path:url(#SVGID_74_);}
	.st53{clip-path:url(#SVGID_76_);}
	.st54{clip-path:url(#SVGID_78_);}
	.st55{clip-path:url(#SVGID_80_);}
	.st56{clip-path:url(#SVGID_82_);}
	.st57{clip-path:url(#SVGID_84_);}
	.st58{clip-path:url(#SVGID_86_);}
	.st59{clip-path:url(#SVGID_88_);}
	.st60{clip-path:url(#SVGID_90_);}
	.st61{clip-path:url(#SVGID_92_);}
	.st62{clip-path:url(#SVGID_94_);}
	.st63{clip-path:url(#SVGID_96_);}
	.st64{clip-path:url(#SVGID_98_);}
	.st65{clip-path:url(#SVGID_100_);}
	.st66{clip-path:url(#SVGID_102_);}
	.st67{clip-path:url(#SVGID_104_);}
	.st68{clip-path:url(#SVGID_106_);}
	.st69{clip-path:url(#SVGID_108_);}
	.st70{clip-path:url(#SVGID_110_);}
	.st71{clip-path:url(#SVGID_112_);}
	.st72{clip-path:url(#SVGID_114_);}
	.st73{clip-path:url(#SVGID_116_);}
	.st74{clip-path:url(#SVGID_118_);}
	.st75{clip-path:url(#SVGID_120_);}
	.st76{clip-path:url(#SVGID_122_);}
	.st77{clip-path:url(#SVGID_124_);}
	.st78{clip-path:url(#SVGID_126_);}
	.st79{clip-path:url(#SVGID_128_);}
	.st80{clip-path:url(#SVGID_130_);}
	.st81{clip-path:url(#SVGID_132_);}
	.st82{clip-path:url(#SVGID_134_);}
	.st83{clip-path:url(#SVGID_136_);}
	.st84{clip-path:url(#SVGID_138_);}
	.st85{clip-path:url(#SVGID_140_);}
	.st86{clip-path:url(#SVGID_142_);}
	.st87{clip-path:url(#SVGID_144_);}
	.st88{clip-path:url(#SVGID_146_);}
	.st89{clip-path:url(#SVGID_148_);}
	.st90{clip-path:url(#SVGID_150_);}
	.st91{clip-path:url(#SVGID_152_);}
	.st92{clip-path:url(#SVGID_154_);}
	.st93{clip-path:url(#SVGID_156_);}
	.st94{clip-path:url(#SVGID_158_);}
	.st95{clip-path:url(#SVGID_160_);}
	.st96{clip-path:url(#SVGID_162_);}
	.st97{clip-path:url(#SVGID_164_);}
	.st98{clip-path:url(#SVGID_166_);}
	.st99{clip-path:url(#SVGID_168_);}
	.st100{clip-path:url(#SVGID_170_);}
	.st101{clip-path:url(#SVGID_172_);}
	.st102{clip-path:url(#SVGID_174_);}
	.st103{clip-path:url(#SVGID_176_);}
	.st104{clip-path:url(#SVGID_178_);}
	.st105{clip-path:url(#SVGID_180_);}
	.st106{clip-path:url(#SVGID_182_);}
	.st107{clip-path:url(#SVGID_184_);}
	.st108{clip-path:url(#SVGID_186_);}
	.st109{clip-path:url(#SVGID_188_);}
	.st110{clip-path:url(#SVGID_190_);}
	.st111{clip-path:url(#SVGID_192_);}
	.st112{clip-path:url(#SVGID_194_);}
	.st113{clip-path:url(#SVGID_196_);}
	.st114{clip-path:url(#SVGID_198_);}
	.st115{clip-path:url(#SVGID_200_);}
	.st116{clip-path:url(#SVGID_202_);}
	.st117{clip-path:url(#SVGID_204_);}
	.st118{clip-path:url(#SVGID_206_);}
	.st119{clip-path:url(#SVGID_208_);}
	.st120{clip-path:url(#SVGID_210_);}
	.st121{clip-path:url(#SVGID_212_);}
	.st122{clip-path:url(#SVGID_214_);}
	.st123{clip-path:url(#SVGID_216_);}
	.st124{clip-path:url(#SVGID_218_);}
	.st125{clip-path:url(#SVGID_220_);}
	.st126{clip-path:url(#SVGID_222_);}
	.st127{clip-path:url(#SVGID_224_);}
	.st128{clip-path:url(#SVGID_226_);}
	.st129{clip-path:url(#SVGID_228_);}
	.st130{clip-path:url(#SVGID_230_);}
	.st131{clip-path:url(#SVGID_232_);}
	.st132{clip-path:url(#SVGID_234_);}
	.st133{clip-path:url(#SVGID_236_);}
	.st134{clip-path:url(#SVGID_238_);}
	.st135{clip-path:url(#SVGID_240_);}
	.st136{clip-path:url(#SVGID_242_);}
	.st137{clip-path:url(#SVGID_244_);}
	.st138{clip-path:url(#SVGID_246_);}
	.st139{clip-path:url(#SVGID_248_);}
	.st140{clip-path:url(#SVGID_250_);}
	.st141{clip-path:url(#SVGID_252_);}
	.st142{clip-path:url(#SVGID_254_);}
	.st143{clip-path:url(#SVGID_256_);}
	.st144{clip-path:url(#SVGID_258_);}
	.st145{clip-path:url(#SVGID_260_);}
	.st146{clip-path:url(#SVGID_262_);}
	.st147{clip-path:url(#SVGID_264_);}
	.st148{clip-path:url(#SVGID_266_);}
	.st149{clip-path:url(#SVGID_268_);}
	.st150{clip-path:url(#SVGID_270_);}
	.st151{clip-path:url(#SVGID_272_);}
	.st152{clip-path:url(#SVGID_274_);}
	.st153{clip-path:url(#SVGID_276_);}
	.st154{clip-path:url(#SVGID_278_);}
	.st155{clip-path:url(#SVGID_280_);}
	.st156{clip-path:url(#SVGID_282_);}
	.st157{clip-path:url(#SVGID_284_);}
	.st158{clip-path:url(#SVGID_286_);}
	.st159{clip-path:url(#SVGID_288_);}
	.st160{clip-path:url(#SVGID_290_);}
	.st161{clip-path:url(#SVGID_292_);}
	.st162{clip-path:url(#SVGID_294_);}
	.st163{clip-path:url(#SVGID_296_);}
	.st164{clip-path:url(#SVGID_298_);}
	.st165{clip-path:url(#SVGID_300_);}
	.st166{clip-path:url(#SVGID_302_);}
	.st167{clip-path:url(#SVGID_304_);}
	.st168{clip-path:url(#SVGID_306_);}
	.st169{clip-path:url(#SVGID_308_);}
	.st170{clip-path:url(#SVGID_310_);}
	.st171{clip-path:url(#SVGID_312_);}
	.st172{clip-path:url(#SVGID_314_);}
	.st173{clip-path:url(#SVGID_316_);}
	.st174{clip-path:url(#SVGID_318_);}
	.st175{clip-path:url(#SVGID_320_);}
	.st176{clip-path:url(#SVGID_322_);}
	.st177{clip-path:url(#SVGID_324_);}
	.st178{clip-path:url(#SVGID_326_);}
	.st179{clip-path:url(#SVGID_328_);}
	.st180{clip-path:url(#SVGID_330_);}
	.st181{clip-path:url(#SVGID_332_);}
	.st182{clip-path:url(#SVGID_334_);}
	.st183{clip-path:url(#SVGID_336_);}
	.st184{clip-path:url(#SVGID_338_);}
	.st185{clip-path:url(#SVGID_340_);}
	.st186{clip-path:url(#SVGID_342_);}
	.st187{clip-path:url(#SVGID_344_);}
	.st188{clip-path:url(#SVGID_346_);}
	.st189{clip-path:url(#SVGID_348_);}
	.st190{clip-path:url(#SVGID_350_);}
	.st191{clip-path:url(#SVGID_352_);}
	.st192{clip-path:url(#SVGID_354_);}
	.st193{clip-path:url(#SVGID_356_);}
	.st194{clip-path:url(#SVGID_358_);}
	.st195{clip-path:url(#SVGID_360_);}
	.st196{font-size:2px;}
	.st197{fill:none;stroke:#000000;stroke-width:0.5;stroke-miterlimit:10;}
	.st198{opacity:0.36;fill:#E52421;stroke:#E52421;stroke-miterlimit:10;enable-background:new    ;}
	.st199{fill:none;stroke:#010202;stroke-miterlimit:10;stroke-dasharray:1;}
	.st200{fill:none;stroke:#010202;stroke-miterlimit:10;}
	.st201{font-size:9px;}
	.st202{font-family:'MyriadPro-Regular';}
	.st203{font-size:10px;}
	.st204{fill:none;stroke:#000000;stroke-miterlimit:10;}
	.st205{font-size:20px;}
</style>
  <path class="st0" d="M25.47,315.82c6.94-3.81,23.52-4.97,30.95-0.85"/>
  <path class="st1" d="M26.56,296.73c-0.51-4.19,0.26-7.81,3.36-9.5s5.82,0.49,10.03,0.85c4.21,0.36,6.44-1.82,9.78-2.06 s7.29,2.21,4.99,8.21c-2.6,6.78-4.54,7.3-12.81,13.24c-0.03,0.02-5.94,7.27-10.21,5.49C28.94,311.81,27.54,304.8,26.56,296.73"/>
  <path class="st0" d="M26.85,296.63c-0.51-4.19,0.26-7.81,3.36-9.5s5.82,0.49,10.03,0.85c4.21,0.36,6.43-2.06,9.78-2.06 c1.14,0,4.99,2.24,5.19,5.44c0.45,7.11-15.41,23.07-23.66,21.09C28.27,311.66,27.67,303.34,26.85,296.63z"/>
  <path class="st0" d="M54.01,181.91"/>
  <path class="st0" d="M35.67,201.79"/>
  <path class="st2" d="M262.51,313.04c6.94-3.81,23.52-4.97,30.95-0.85"/>
  <path class="st1" d="M263.61,292.05c-0.51-4.19,0.26-7.81,3.36-9.51c3.09-1.69,5.82,0.49,10.03,0.85c4.21,0.36,6.44-1.82,9.78-2.06 s5.57,1.86,5.7,8.28c0.12,6.42-3.62,17.15-14.02,17.31C268.15,307.09,264.21,297.01,263.61,292.05"/>
  <path class="st0" d="M263.61,292.05c-0.51-4.19,0.26-7.81,3.36-9.51c3.09-1.69,5.82,0.49,10.03,0.85c4.21,0.36,6.44-1.82,9.78-2.06 s5.57,1.86,5.7,8.28c0.12,6.42-3.62,17.15-14.02,17.31C268.15,307.09,264.21,297.01,263.61,292.05z"/>
  <path class="st2" d="M372.28,302.63c-9.12,11.02-23.46,9.91-31.29,0.61"/>
  <path class="st1" d="M342.14,294.1c-0.51-4.19,0.26-7.81,3.36-9.5c3.09-1.69,5.82,0.49,10.03,0.85c4.21,0.36,6.44-1.82,9.78-2.06 s5.57,1.85,5.69,8.27c0.12,6.42-3.59,18.24-13.99,18.41C346.71,310.23,342.75,299.06,342.14,294.1"/>
  <path class="st0" d="M342.14,294.1c-0.51-4.19,0.26-7.81,3.36-9.5c3.09-1.69,5.82,0.49,10.03,0.85c4.21,0.36,6.44-1.82,9.78-2.06 s5.57,1.85,5.69,8.27c0.12,6.42-3.59,18.24-13.99,18.41C346.71,310.23,342.75,299.06,342.14,294.1z"/>
  <path class="st1" d="M110.03,312.95c-4.3-6.88-4.42-10.79-5.04-15.85c-0.51-4.19,0.63-7.55,3.72-9.24c3.1-1.7,5.82,0.49,10.03,0.85 c4.21,0.36,6.44-1.82,9.78-2.06c3.34-0.24,5.57,2.58,5.7,9c0.08,3.9-1.87,11.79-4.42,16.7"/>
  <path class="st0" d="M110.03,312.95c-4.3-6.88-4.42-10.79-5.04-15.85c-0.51-4.19,0.63-7.55,3.72-9.24c3.1-1.7,5.82,0.49,10.03,0.85 c4.21,0.36,6.44-1.82,9.78-2.06c3.34-0.24,5.57,2.58,5.7,9c0.08,3.9-1.87,11.79-4.42,16.7"/>
  <path class="st2" d="M104.23,315.05c6.94-3.81,23.53-4.97,30.95-0.85"/>
  <text transform="matrix(1 0 0 1 50.6595 335.7456)" class="st3 st4" style="white-space: pre;"> </text>
  <path class="st1" d="M41.85,307.5"/>
  <path class="st0" d="M191.17,311.9c-4.3-6.88-4.42-10.79-5.04-15.85c-0.51-4.19,0.63-7.55,3.72-9.24c3.1-1.7,5.82,0.49,10.03,0.85 c4.21,0.36,6.44-1.82,9.78-2.06c4.51-0.33,5.51,7.9,5.7,9c1.03,6.16-2.44,10.76-2.95,11.41c-2.19,2.81-4.88,4.11-6.24,4.65"/>
  <path class="st2" d="M185.37,314c6.94-3.81,23.53-4.97,30.95-0.85"/>
  <rect x="28.9" y="333.53" class="st7" width="28.3" height="12.22"/>
  <path class="st199" d="M315.67,73.03"/>
  <rect x="19.55" y="266.33" class="st7" width="48.44" height="12"/>
</svg>