<?xml version="1.0" encoding="UTF-8" standalone="no"?>
<!-- Created with Inkscape (http://www.inkscape.org/) -->

<svg
   width="11.590838mm"
   height="16.61548mm"
   viewBox="0 0 11.590838 16.615481"
   version="1.1"
   id="svg1"
   inkscape:version="1.4 (e7c3feb1, 2024-10-09)"
   sodipodi:docname="pontic-a.svg"
   xmlns:inkscape="http://www.inkscape.org/namespaces/inkscape"
   xmlns:sodipodi="http://sodipodi.sourceforge.net/DTD/sodipodi-0.dtd"
   xmlns="http://www.w3.org/2000/svg"
   xmlns:svg="http://www.w3.org/2000/svg">
  <sodipodi:namedview
     id="namedview1"
     pagecolor="#ffffff"
     bordercolor="#000000"
     borderopacity="0.25"
     inkscape:showpageshadow="2"
     inkscape:pageopacity="0.0"
     inkscape:pagecheckerboard="0"
     inkscape:deskcolor="#d1d1d1"
     inkscape:document-units="mm"
     inkscape:zoom="7.9925287"
     inkscape:cx="31.028978"
     inkscape:cy="33.468757"
     inkscape:window-width="1920"
     inkscape:window-height="942"
     inkscape:window-x="0"
     inkscape:window-y="25"
     inkscape:window-maximized="1"
     inkscape:current-layer="layer1" />
  <defs
     id="defs1" />
  <g
     inkscape:label="Layer 1"
     inkscape:groupmode="layer"
     id="layer1"
     transform="translate(-93.257251,-132.20807)">
    <path
       class="st114"
       d="m 99.880683,137.19748 c 0.187847,0.0662 0.325427,0.15346 0.410097,0.20902 0.0847,0.0556 0.17462,0.11377 0.26987,0.21696 0.037,0.0397 0.0767,0.0926 0.15346,0.20108 0.0952,0.13494 0.127,0.20373 0.23548,0.32544 0.0503,0.0556 0.14552,0.14288 0.33867,0.3175 0.18521,0.16669 0.254,0.2196 0.33867,0.33338 0.0794,0.10847 0.127,0.20902 0.17197,0.3122 0.24078,0.58473 0.31221,1.0848 0.31221,1.0848 0.0476,0.37041 0.09,0.8255 0.11113,1.34672 0.0344,0.84138 -0.008,1.48432 -0.0238,1.69334 -0.0423,0.60325 -0.14023,1.16416 -0.33338,2.286 -0.0608,0.34925 -0.12171,0.65881 -0.24606,1.28058 -0.22225,1.11125 -0.35719,1.66688 -0.74348,1.81504 -0.0953,0.037 -0.18256,0.0397 -0.23548,0.037 -0.1614,-0.0238 -0.26194,-0.15345 -0.30692,-0.21166 -0.0212,-0.0265 -0.0873,-0.11642 -0.15875,-0.36777 -0.037,-0.1323 -0.0661,-0.27252 -0.0979,-0.55298 -0.0265,-0.2249 -0.0212,-0.27517 -0.0423,-0.48154 -0.0159,-0.15346 -0.045,-0.41011 -0.0979,-0.73819 -0.0529,-0.32809 -0.082,-0.49213 -0.14552,-0.71173 -0.0476,-0.1614 -0.10319,-0.35454 -0.22225,-0.58738 -0.124357,-0.24606 -0.251357,-0.4101 -0.373067,-0.5662 -0.20637,-0.26194 -0.388927,-0.43657 -0.550327,-0.59267 -0.20108,-0.1905 -0.18256,-0.15346 -0.650867,-0.56621 -0.082,-0.0741 -0.264587,-0.23548 -0.486837,-0.45244 -0.158747,-0.1561 -0.243407,-0.24606 -0.330727,-0.35189 -0.127,-0.15611 -0.20902,-0.28311 -0.23548,-0.32279 -0.0979,-0.15875 -0.164037,-0.29369 -0.203717,-0.381 -0.0344,-0.0741 -0.12436,-0.28575 -0.19315,-0.59267 -0.0238,-0.10848 -0.045,-0.27517 -0.045,-0.56356 0,-0.26988 0.005,-0.67204 0.14288,-1.17211 0.0529,-0.1905 0.15875,-0.55827 0.420677,-0.97366 0.10584,-0.16934 0.304267,-0.47625 0.666747,-0.76994 0.354537,-0.28575 0.682627,-0.41011 0.764644,-0.44186 0.36248,-0.13229 0.653517,-0.14552 0.714367,-0.14816 0.14817,-0.005 0.386297,-0.0132 0.672047,0.0873 z"
       id="path473"
       style="opacity:1;fill:none;stroke:#010202;stroke-width:0.132292;stroke-miterlimit:10" />
    <path
       class="st114"
       d="m 93.406353,132.45086 c 1.25413,0.16139 1.846784,0.62177 2.156354,1.01864 0.17197,0.21961 0.388927,0.64294 0.822844,1.48961 0.24606,0.48154 0.35719,0.7276 0.627057,1.05833 0.1905,0.23283 0.423337,0.51329 0.822857,0.74348 0.582074,0.33602 1.140341,0.3466 1.367881,0.3466 0.16934,0 0.722307,-0.0106 1.336144,-0.30691 0.33073,-0.1614 0.6006,-0.40746 1.13771,-0.90223 0.45243,-0.4154 0.75406,-0.69321 1.09802,-1.13771 0.39952,-0.51594 0.381,-0.64294 0.66675,-0.94192 0.42333,-0.43921 0.92604,-0.64294 1.29381,-0.74348"
       id="path474"
       style="opacity:1;fill:none;stroke:#010202;stroke-width:0.132292;stroke-miterlimit:10" />
  </g>
</svg>
