<?xml version="1.0" encoding="UTF-8" standalone="no"?>
<!-- Created with Inkscape (http://www.inkscape.org/) -->

<svg
   width="11.687894mm"
   height="16.291937mm"
   viewBox="0 0 11.687894 16.291937"
   version="1.1"
   id="svg1"
   inkscape:version="1.4 (e7c3feb1, 2024-10-09)"
   sodipodi:docname="tangential.svg"
   xmlns:inkscape="http://www.inkscape.org/namespaces/inkscape"
   xmlns:sodipodi="http://sodipodi.sourceforge.net/DTD/sodipodi-0.dtd"
   xmlns="http://www.w3.org/2000/svg"
   xmlns:svg="http://www.w3.org/2000/svg">
  <sodipodi:namedview
     id="namedview1"
     pagecolor="#ffffff"
     bordercolor="#000000"
     borderopacity="0.25"
     inkscape:showpageshadow="2"
     inkscape:pageopacity="0.0"
     inkscape:pagecheckerboard="0"
     inkscape:deskcolor="#d1d1d1"
     inkscape:document-units="mm"
     inkscape:zoom="5.6515713"
     inkscape:cx="15.040065"
     inkscape:cy="21.85233"
     inkscape:window-width="1920"
     inkscape:window-height="942"
     inkscape:window-x="0"
     inkscape:window-y="25"
     inkscape:window-maximized="1"
     inkscape:current-layer="layer1" />
  <defs
     id="defs1" />
  <g
     inkscape:label="Layer 1"
     inkscape:groupmode="layer"
     id="layer1"
     transform="translate(-152.76024,-170.69073)">
    <path
       class="st115"
       d="m 161.45408,175.63332 c 0.0979,0.0952 0.14288,0.16933 0.30428,0.30692 0.18256,0.15346 0.29104,0.19579 0.42333,0.28575 0.28046,0.1905 0.42862,0.43127 0.57679,0.67469 0.14023,0.23018 0.20902,0.42068 0.33602,0.78845 0.0873,0.254 0.20108,0.6059 0.30427,1.03452 0.045,0.35455 0.09,0.78846 0.11113,1.28588 0.0344,0.80433 -0.005,1.41817 -0.0185,1.6166 -0.0397,0.5768 -0.13229,1.11125 -0.31486,2.18017 -0.0582,0.33337 -0.11641,0.62971 -0.23283,1.21973 -0.21167,1.06098 -0.33867,1.59014 -0.71173,1.73037 -0.0926,0.0344 -0.17727,0.0371 -0.22754,0.0344 -0.15346,-0.0238 -0.25136,-0.14552 -0.29633,-0.20373 -0.0212,-0.0265 -0.0847,-0.11112 -0.15346,-0.3519 -0.037,-0.127 -0.0635,-0.25929 -0.0953,-0.52652 -0.0238,-0.21431 -0.0212,-0.26193 -0.0423,-0.46037 -0.0159,-0.14817 -0.0423,-0.39158 -0.0952,-0.70644 -0.0529,-0.31221 -0.0794,-0.46831 -0.14288,-0.67998 -0.045,-0.15346 -0.10054,-0.33866 -0.21431,-0.56091 -0.11906,-0.23548 -0.24342,-0.39159 -0.35983,-0.53975 -0.19844,-0.25136 -0.37307,-0.41805 -0.53182,-0.56621 -0.19314,-0.18256 -0.17727,-0.14552 -0.62706,-0.5424 -0.0318,-0.0291 -0.082,-0.0714 -0.14023,-0.127 -0.14023,-0.12435 -0.27516,-0.254 -0.32808,-0.30691 -0.2249,-0.2249 -0.37835,-0.49213 -0.42333,-0.5715 -0.29369,-0.51594 -0.32015,-1.04246 -0.34132,-1.4605 -0.0291,-0.56886 0.0556,-0.99484 0.082,-1.12184 0.0291,-0.13229 0.11907,-0.52652 0.3519,-0.99483 0.18521,-0.37571 0.37835,-0.62971 0.508,-0.7964 0.12435,-0.16139 0.30162,-0.37835 0.56356,-0.59002 0.34396,-0.27781 0.55034,-0.4445 0.84931,-0.45244 0.45509,-0.0106 0.83873,0.35455 0.88636,0.40217 z"
       id="path481"
       style="opacity:1;fill:none;stroke:#010202;stroke-width:0.132292;stroke-miterlimit:10" />
    <path
       class="st115"
       d="m 152.92127,170.93961 c 1.25413,0.1614 1.84679,0.62177 2.15636,1.01865 0.17198,0.2196 0.38893,0.64294 0.82285,1.4896 0.24606,0.48154 0.35719,0.72761 0.62706,1.05834 0.1905,0.23283 0.42334,0.51329 0.82286,0.74348 0.58208,0.33602 1.14035,0.3466 1.36789,0.3466 0.16934,0 0.72232,-0.0106 1.33615,-0.30692 0.33073,-0.16139 0.6006,-0.40746 1.13771,-0.90223 0.45244,-0.41539 0.75406,-0.6932 1.09802,-1.1377 0.39952,-0.51594 0.381,-0.64294 0.66675,-0.94192 0.42333,-0.43921 0.92604,-0.64294 1.29381,-0.74348"
       id="path482"
       style="opacity:1;fill:none;stroke:#010202;stroke-width:0.132292;stroke-miterlimit:10" />
  </g>
</svg>
