<?xml version="1.0" encoding="UTF-8" standalone="no"?>
<!-- Created with Inkscape (http://www.inkscape.org/) -->

<svg
   width="11.568927mm"
   height="16.384438mm"
   viewBox="0 0 11.568927 16.384437"
   version="1.1"
   id="svg1"
   inkscape:version="1.4 (e7c3feb1, 2024-10-09)"
   sodipodi:docname="pontic-b.svg"
   xmlns:inkscape="http://www.inkscape.org/namespaces/inkscape"
   xmlns:sodipodi="http://sodipodi.sourceforge.net/DTD/sodipodi-0.dtd"
   xmlns="http://www.w3.org/2000/svg"
   xmlns:svg="http://www.w3.org/2000/svg">
  <sodipodi:namedview
     id="namedview1"
     pagecolor="#ffffff"
     bordercolor="#000000"
     borderopacity="0.25"
     inkscape:showpageshadow="2"
     inkscape:pageopacity="0.0"
     inkscape:pagecheckerboard="0"
     inkscape:deskcolor="#d1d1d1"
     inkscape:document-units="mm"
     inkscape:zoom="11.303143"
     inkscape:cx="32.911201"
     inkscape:cy="31.186017"
     inkscape:window-width="1920"
     inkscape:window-height="942"
     inkscape:window-x="0"
     inkscape:window-y="25"
     inkscape:window-maximized="1"
     inkscape:current-layer="layer1" />
  <defs
     id="defs1">
    <linearGradient
       id="SVGID_292_"
       gradientUnits="userSpaceOnUse"
       x1="120.9539"
       y1="347.7037"
       x2="253.89529"
       y2="347.7037"
       gradientTransform="matrix(0.26458333,0,0,0.26458333,59.782604,68.423896)">
	<stop
   offset="0"
   style="stop-color:#FFEF26"
   id="stop494" />

	<stop
   offset="0.0595"
   style="stop-color:#FFE000"
   id="stop495" />

	<stop
   offset="0.1303"
   style="stop-color:#FFD300"
   id="stop496" />

	<stop
   offset="0.2032"
   style="stop-color:#FECB00"
   id="stop497" />

	<stop
   offset="0.2809"
   style="stop-color:#FDC800"
   id="stop498" />

	<stop
   offset="0.6685"
   style="stop-color:#F18F34"
   id="stop499" />

	<stop
   offset="1"
   style="stop-color:#E95F32"
   id="stop500" />

	<stop
   offset="1"
   style="stop-color:#E3312D"
   id="stop501" />

</linearGradient>
  </defs>
  <g
     inkscape:label="Layer 1"
     inkscape:groupmode="layer"
     id="layer1"
     transform="translate(-128.08827,-123.59395)">
    <path
       class="st114"
       d="m 134.4511,128.34253 c 0.17198,0.0397 0.30956,0.11112 0.58208,0.254 0.0953,0.0503 0.35719,0.1905 0.65353,0.40746 0.11641,0.0847 0.20108,0.1561 0.28045,0.26458 0.037,0.0503 0.0556,0.0873 0.14817,0.29369 0.15346,0.34131 0.15875,0.37042 0.20638,0.45508 0.0979,0.18521 0.18785,0.28575 0.24606,0.36248 0.12964,0.17463 0.26987,0.47361 0.28839,1.00806 0.0476,0.37042 0.09,0.8255 0.11113,1.34673 0.0344,0.84138 -0.008,1.48432 -0.0238,1.69334 -0.0423,0.60325 -0.14023,1.16416 -0.33338,2.286 -0.0608,0.34925 -0.12171,0.65881 -0.24606,1.28058 -0.22225,1.11125 -0.35719,1.66687 -0.74348,1.81504 -0.0953,0.037 -0.18256,0.0397 -0.23548,0.037 -0.1614,-0.0238 -0.26194,-0.15346 -0.30692,-0.21166 -0.0212,-0.0265 -0.0873,-0.11642 -0.15875,-0.36778 -0.037,-0.13229 -0.0661,-0.27252 -0.0979,-0.55297 -0.0265,-0.2249 -0.0212,-0.27517 -0.0423,-0.48155 -0.0159,-0.15345 -0.045,-0.4101 -0.0979,-0.73818 -0.0529,-0.32809 -0.082,-0.49213 -0.14552,-0.71173 -0.0476,-0.1614 -0.10319,-0.35454 -0.22225,-0.58738 -0.12436,-0.24606 -0.25136,-0.4101 -0.37306,-0.56621 -0.20638,-0.26193 -0.38894,-0.43656 -0.55034,-0.59266 -0.20108,-0.1905 -0.18256,-0.15346 -0.65087,-0.56621 -0.082,-0.0741 -0.26459,-0.23548 -0.48684,-0.45244 -0.15875,-0.1561 -0.24341,-0.24606 -0.33073,-0.35189 -0.127,-0.15611 -0.20902,-0.28311 -0.23547,-0.3228 -0.0979,-0.15875 -0.16405,-0.29368 -0.20373,-0.381 -0.0344,-0.0741 -0.12436,-0.28575 -0.19315,-0.59266 -0.0238,-0.10848 -0.045,-0.27517 -0.045,-0.56356 0,-0.26988 0.005,-0.67205 0.14288,-1.17211 0.0529,-0.1905 0.15875,-0.55827 0.42068,-0.97367 0.10584,-0.16933 0.30427,-0.47625 0.66675,-0.76993 0.35455,-0.28575 0.68263,-0.41011 0.76465,-0.44186 0.35719,-0.12964 0.64823,-0.14552 0.71437,-0.14816 0.10319,-0.003 0.27782,-0.008 0.49742,0.0423 z"
       id="path479"
       style="opacity:1;fill:none;stroke:#010202;stroke-width:0.132292;stroke-miterlimit:10" />
    <path
       class="st114"
       d="m 128.20958,123.76259 c 1.25413,0.1614 1.84679,0.62177 2.15635,1.01865 0.10848,0.14023 0.42069,0.46566 0.82286,1.4896 0.25929,0.65617 0.56885,1.61925 0.73554,2.85486 0.32015,-0.31486 0.62706,-0.51859 0.85196,-0.64559 0.36777,-0.20902 0.70908,-0.40216 1.18798,-0.41275 0.42069,-0.0106 0.75406,0.127 0.91016,0.1905 0.21432,0.09 0.35719,0.18521 0.63236,0.36777 0.28839,0.19315 0.51858,0.37042 0.67998,0.50271 0.27781,-0.66939 0.7911,-1.86266 1.39171,-3.05064 0.1217,-0.24077 0.30427,-0.59267 0.66675,-0.94192 0.45773,-0.43921 0.96573,-0.64558 1.29381,-0.74348"
       id="path480"
       style="opacity:1;fill:none;stroke:#010202;stroke-width:0.132292;stroke-miterlimit:10" />
  </g>
</svg>
