<?xml version="1.0" encoding="UTF-8" standalone="no"?>
<!-- Generator: Adobe Illustrator 23.0.6, SVG Export Plug-In . SVG Version: 6.00 Build 0)  -->

<svg
   version="1.1"
   id="Ebene_1"
   x="0px"
   y="0px"
   viewBox="0 0 58.818178 77.511431"
   xml:space="preserve"
   sodipodi:docname="v.1.2.svg"
   width="58.81818"
   height="77.511429"
   inkscape:version="1.4 (e7c3feb1, 2024-10-09)"
   xmlns:inkscape="http://www.inkscape.org/namespaces/inkscape"
   xmlns:sodipodi="http://sodipodi.sourceforge.net/DTD/sodipodi-0.dtd"
   xmlns="http://www.w3.org/2000/svg"
   xmlns:svg="http://www.w3.org/2000/svg"><defs
   id="defs47" /><sodipodi:namedview
   id="namedview47"
   pagecolor="#ffffff"
   bordercolor="#000000"
   borderopacity="0.25"
   inkscape:showpageshadow="2"
   inkscape:pageopacity="0.0"
   inkscape:pagecheckerboard="0"
   inkscape:deskcolor="#d1d1d1"
   inkscape:zoom="3.56"
   inkscape:cx="45.646067"
   inkscape:cy="52.808989"
   inkscape:window-width="1440"
   inkscape:window-height="783"
   inkscape:window-x="0"
   inkscape:window-y="25"
   inkscape:window-maximized="1"
   inkscape:current-layer="Ebene_1" />
<style
   type="text/css"
   id="style1">
	.st0{fill:none;stroke:#E52421;stroke-width:2.5;stroke-miterlimit:10;}
	.st1{fill:none;stroke:#E52421;stroke-width:2.5;stroke-miterlimit:10;stroke-dasharray:9.01,9.01;}
	.st2{fill:none;}
	.st3{font-family:'MyriadPro-Regular';}
	.st4{font-size:7.2313px;}
	.st5{font-size:5.4235px;}
	.st6{fill:none;stroke:#010202;stroke-miterlimit:10;}
	.st7{fill:#E52421;}
	.st8{font-size:9px;}
	.st9{fill:none;stroke:#000000;stroke-miterlimit:10;}
	.st10{opacity:0.94;fill:none;stroke:#000000;stroke-miterlimit:10;}
	.st11{font-size:12px;}
	.st12{fill:none;stroke:#E52421;stroke-miterlimit:10;}
	.st13{opacity:0.36;fill:#2B4C9A;stroke:#2A4B9B;stroke-width:0.5;stroke-miterlimit:10;}
	.st14{font-size:11px;}
	.st15{fill:none;stroke:#010202;stroke-width:0.5;stroke-miterlimit:10;stroke-dasharray:3;}
	.st16{font-size:49px;}
</style>





























<path
   class="st12"
   d="m 20.222068,4.2013376 c 0.6,-0.22 1.14,-0.14 1.48,-0.08 0.87,0.14 1.47,0.54 1.89,0.82 0.56,0.38 0.96,0.67 1.02,0.71 1.82,1.48 4.99,2.24 7.78,4.5800004 1.29,1.09 2.08,2.16 3.03,3.45 0.82,1.11 1.6,2.36 2.55,4.24 1.05,2.09 2.47,5.28 3.85,10.14 0.72,2.55 1.08,4.31 1.8,7.83 1.02,4.99 1.59,8.84 1.96,11.35 0.39,2.66 0.14,1.27 1.1,8.57 0,0 0.48,3.65 0.59,11.11 0.02,0.97 0.02,3.61 -1.49,4.89 -0.19,0.16 -0.68,0.57 -1.4,0.66 -0.87,0.11 -1.54,-0.29 -2.3,-0.74 -0.53,-0.31 -1.43,-0.85 -2.14,-1.89 -0.63,-0.92 -0.53,-1.4 -1.15,-3.29 -0.22,-0.66 -0.53,-1.4 -1.15,-2.88 -0.39,-0.92 -1.03,-2.43 -1.97,-4.35 -0.94,-1.91 -1.41,-2.86 -2.22,-4.11 -0.59,-0.9 -1.3,-1.98 -2.46,-3.2 -1.22,-1.28 -2.32,-2.06 -3.37,-2.79 -1.76,-1.24 -3.22,-1.98 -4.52,-2.63 -1.6,-0.81 -1.42,-0.6 -5.09,-2.3 -0.65,-0.3 -2.07,-0.96 -3.86,-1.89 -1.28,-0.66 -1.97,-1.06 -2.71,-1.56 -1.08,-0.72 -1.8199996,-1.35 -2.0499996,-1.56 -0.91,-0.79 -1.57,-1.51 -1.97,-1.97 -0.35,-0.4 -1.3,-1.54 -2.3,-3.29 -0.93,-1.63 -1.39,-2.46 -1.31,-3.37 0.08,-0.97 0.59,-1.64 1.23,-2.46 1.11,-1.43 1.93,-1.78 3.45,-3.04 0.44,-0.37 2.1599996,-1.82 3.7799996,-3.94 1.04,-1.36 1.64,-2.48 2.38,-3.86 0.97,-1.8 1.66,-3.08 2.22,-4.93 0.84,-2.7600004 1.07,-4.2700004 1.07,-4.2700004 0.12,-0.81 0.24,-1.86 0.99,-2.88 0.54,-0.76 1.08,-0.99 1.29,-1.07 z"
   id="path23" />










<path
   class="st6"
   d="m 45.772068,71.821338 c -0.19,0.16 -0.68,0.57 -1.4,0.66 -0.87,0.11 -1.54,-0.29 -2.3,-0.74 -0.53,-0.31 -1.43,-0.85 -2.14,-1.89 -0.63,-0.92 -0.53,-1.4 -1.15,-3.29 -0.22,-0.66 -0.53,-1.4 -1.15,-2.88 -0.39,-0.92 -1.03,-2.43 -1.97,-4.35 -0.94,-1.91 -1.41,-2.86 -2.22,-4.11 -0.59,-0.9 -1.3,-1.98 -2.46,-3.2 -1.22,-1.28 -2.32,-2.06 -3.37,-2.79 -1.76,-1.24 -3.22,-1.98 -4.52,-2.63 -1.6,-0.81 -1.42,-0.6 -5.09,-2.3 -0.65,-0.3 -2.07,-0.96 -3.86,-1.89 -1.28,-0.66 -1.97,-1.06 -2.71,-1.56 -1.08,-0.72 -1.8199996,-1.35 -2.0499996,-1.56 -0.91,-0.79 -1.57,-1.51 -1.97,-1.97 -0.35,-0.4 -1.3,-1.54 -2.3,-3.29 -0.93,-1.63 -1.39,-2.46 -1.31,-3.37 0.08,-0.97 0.59,-1.64 1.23,-2.46 1.11,-1.43 1.93,-1.78 3.45,-3.04 0.44,-0.37 2.1599996,-1.82 3.7799996,-3.94 1.04,-1.36 1.64,-2.48 2.38,-3.86 0.97,-1.8 1.66,-3.08 2.22,-4.93 0.84,-2.7600004 1.07,-4.2700004 1.07,-4.2700004 0.12,-0.81 0.24,-1.86 0.99,-2.88 0.56,-0.76 1.1,-0.99 1.31,-1.07"
   id="path38" />
<path
   class="st6"
   d="m 20.222068,4.2013376 c 0.6,-0.22 1.14,-0.14 1.48,-0.08 0.87,0.14 1.47,0.54 1.89,0.82"
   id="path39" />



<line
   class="st15"
   x1="-32.869469"
   y1="72.916412"
   x2="84.968231"
   y2="73.556099"
   id="line41" />

<line
   class="st15"
   x1="36.712067"
   y1="4.0113373"
   x2="54.842056"
   y2="72.551346"
   id="line43" />






</svg>
