<?xml version="1.0" encoding="UTF-8" standalone="no"?>
<!-- Generator: Adobe Illustrator 23.0.6, SVG Export Plug-In . SVG Version: 6.00 Build 0)  -->

<svg
   version="1.1"
   id="Ebene_1"
   x="0px"
   y="0px"
   viewBox="0 0 56.381838 75.775242"
   xml:space="preserve"
   sodipodi:docname="v.1.1.svg"
   width="56.38184"
   height="75.775246"
   inkscape:version="1.4 (e7c3feb1, 2024-10-09)"
   xmlns:inkscape="http://www.inkscape.org/namespaces/inkscape"
   xmlns:sodipodi="http://sodipodi.sourceforge.net/DTD/sodipodi-0.dtd"
   xmlns="http://www.w3.org/2000/svg"
   xmlns:svg="http://www.w3.org/2000/svg"><defs
   id="defs47" /><sodipodi:namedview
   id="namedview47"
   pagecolor="#ffffff"
   bordercolor="#000000"
   borderopacity="0.25"
   inkscape:showpageshadow="2"
   inkscape:pageopacity="0.0"
   inkscape:pagecheckerboard="0"
   inkscape:deskcolor="#d1d1d1"
   inkscape:zoom="3.7595376"
   inkscape:cx="-2.7928967"
   inkscape:cy="53.198032"
   inkscape:window-width="1440"
   inkscape:window-height="783"
   inkscape:window-x="0"
   inkscape:window-y="25"
   inkscape:window-maximized="1"
   inkscape:current-layer="Ebene_1" />
<style
   type="text/css"
   id="style1">
	.st0{fill:none;stroke:#E52421;stroke-width:2.5;stroke-miterlimit:10;}
	.st1{fill:none;stroke:#E52421;stroke-width:2.5;stroke-miterlimit:10;stroke-dasharray:9.01,9.01;}
	.st2{fill:none;}
	.st3{font-family:'MyriadPro-Regular';}
	.st4{font-size:7.2313px;}
	.st5{font-size:5.4235px;}
	.st6{fill:none;stroke:#010202;stroke-miterlimit:10;}
	.st7{fill:#E52421;}
	.st8{font-size:9px;}
	.st9{fill:none;stroke:#000000;stroke-miterlimit:10;}
	.st10{opacity:0.94;fill:none;stroke:#000000;stroke-miterlimit:10;}
	.st11{font-size:12px;}
	.st12{fill:none;stroke:#E52421;stroke-miterlimit:10;}
	.st13{opacity:0.36;fill:#2B4C9A;stroke:#2A4B9B;stroke-width:0.5;stroke-miterlimit:10;}
	.st14{font-size:11px;}
	.st15{fill:none;stroke:#010202;stroke-width:0.5;stroke-miterlimit:10;stroke-dasharray:3;}
	.st16{font-size:49px;}
</style>
































<path
   class="st13"
   d="m 46.521204,65.866806 c 0.08,-7.06 -0.15,-10.22 -0.15,-10.22 -0.27,-3.82 -0.41,-5.73 -0.52,-6.74 -0.27,-2.52 -0.69,-5.78 -1.41,-9.56 -0.66,-3.46 -1.45,-7.59 -3.19,-12.81 -0.16,-0.48 -1.65,-4.91 -4.03,-9.67 -0.65,-1.29 -1.39,-2.67 -2.55,-4.24 -1.31,-1.78 -2.54,-2.9900002 -3.03,-3.4500002 -3.63,-3.42 -7.93,-5.19 -8.13,-4.87 -0.15,0.24 2.07,1.5 4.96,4.89 0.68,0.8 1.32,1.6400002 1.32,1.6400002 0.48,0.64 0.9,1.25 1.33,1.9 0.87,1.32 3.13,4.9 4.06,6.61 0.85,1.56 2.4,4.86 5.56,18.3 1.38,5.88 2.08,8.91 2.74,13.3 1.01,6.78 1.02,10.71 1,12.12 -0.04,3.18 -0.3,5.82 -0.55,7.69 -0.18,0.25 -0.37,0.56 -0.29,0.65 0.14,0.16 1.04,-0.36 1.4,-0.66 1.37,-1.15 1.47,-3.39 1.48,-4.88 z"
   id="path30" />
<path
   class="st12"
   d="m 19.481204,3.1268058 c 0.6,-0.22 1.14,-0.14 1.48,-0.08 0.87,0.14 1.47,0.54 1.89,0.82 0.02,0.02 0.58,0.35 1.02,0.71 3.65,2.97 6.4,6.9200002 6.4,6.9200002 1.39,1.99 3.54,5.12 5.63,9.93 1.61,3.71 2.36,6.52 3.41,10.52 0.39,1.47 1.03,4.05 3.22,16.23 0.13,0.74 1.18,6.67 1.93,14.52 0.33,3.45 0.68,8.19 -0.81,8.71 -0.59,0.21 -1.46,-0.24 -2.3,-0.74 -0.53,-0.31 -1.43,-0.85 -2.14,-1.89 -0.63,-0.92 -0.53,-1.4 -1.15,-3.29 -0.22,-0.66 -0.53,-1.4 -1.15,-2.88 -0.39,-0.92 -1.03,-2.43 -1.97,-4.35 -0.94,-1.91 -1.41,-2.86 -2.22,-4.11 -0.59,-0.9 -1.3,-1.98 -2.46,-3.2 -1.22,-1.28 -2.32,-2.06 -3.37,-2.79 -1.76,-1.24 -3.22,-1.98 -4.52,-2.63 -1.6,-0.81 -1.42,-0.6 -5.09,-2.3 -0.65,-0.3 -2.07,-0.96 -3.86,-1.89 -1.28,-0.66 -1.97,-1.06 -2.71,-1.56 -1.0799998,-0.72 -1.8199998,-1.35 -2.0499998,-1.56 -0.91,-0.79 -1.57,-1.51 -1.97,-1.97 -0.35,-0.4 -1.3,-1.54 -2.3,-3.29 -0.93,-1.63 -1.39,-2.46 -1.31,-3.37 0.08,-0.97 0.59,-1.64 1.23,-2.46 1.11,-1.43 1.93,-1.78 3.45,-3.04 0.44,-0.37 2.16,-1.82 3.7799998,-3.94 1.04,-1.36 1.64,-2.48 2.38,-3.86 0.97,-1.8 1.66,-3.08 2.22,-4.93 0.84,-2.7600002 1.07,-4.2700002 1.07,-4.2700002 0.12,-0.81 0.24,-1.86 0.99,-2.88 0.53,-0.78 1.07,-1.01 1.28,-1.08 z"
   id="path31" />









<path
   class="st6"
   d="m 43.631204,71.396806 c -0.59,0.21 -1.46,-0.24 -2.3,-0.74 -0.53,-0.31 -1.43,-0.85 -2.14,-1.89 -0.63,-0.92 -0.53,-1.4 -1.15,-3.29 -0.22,-0.66 -0.53,-1.4 -1.15,-2.88 -0.39,-0.92 -1.03,-2.43 -1.97,-4.35 -0.94,-1.91 -1.41,-2.86 -2.22,-4.11 -0.59,-0.9 -1.3,-1.98 -2.46,-3.2 -1.22,-1.28 -2.32,-2.06 -3.37,-2.79 -1.76,-1.24 -3.22,-1.98 -4.52,-2.63 -1.6,-0.81 -1.42,-0.6 -5.09,-2.3 -0.65,-0.3 -2.07,-0.96 -3.86,-1.89 -1.28,-0.66 -1.97,-1.06 -2.71,-1.56 -1.0799998,-0.72 -1.8199998,-1.35 -2.0499998,-1.56 -0.91,-0.79 -1.57,-1.51 -1.97,-1.97 -0.35,-0.4 -1.3,-1.54 -2.3,-3.29 -0.93,-1.63 -1.39,-2.46 -1.31,-3.37 0.08,-0.97 0.59,-1.64 1.23,-2.46 1.11,-1.43 1.93,-1.78 3.45,-3.04 0.44,-0.37 2.16,-1.82 3.7799998,-3.94 1.04,-1.36 1.64,-2.48 2.38,-3.86 0.97,-1.8 1.66,-3.08 2.22,-4.93 0.84,-2.7600002 1.07,-4.2700002 1.07,-4.2700002 0.12,-0.81 0.24,-1.86 0.99,-2.88 0.56,-0.76 1.1,-0.99 1.31,-1.07 0.6,-0.22 1.14,-0.14 1.48,-0.08 0.87,0.14 1.47,0.54 1.89,0.82 0.02,0.02 0.58,0.35 1.02,0.71"
   id="path40" />

<line
   class="st15"
   x1="-15.678356"
   y1="71.936089"
   x2="79.473198"
   y2="72.133919"
   id="line41" />
<line
   class="st15"
   x1="32.831207"
   y1="3.5868192"
   x2="50.951202"
   y2="72.126793"
   id="line42" />







</svg>
