<?xml version="1.0" encoding="UTF-8"?>
<svg id="Layer_2" data-name="Layer 2" xmlns="http://www.w3.org/2000/svg" viewBox="0 0 568.17 445.13">
  <g id="Branding_by_Patrick_Liddell" data-name="Branding by Patrick Liddell">
    <g id="Logo_V2_Black">
      <g>
        <path d="M143.05,296.59v25.97h-75.94c-28.61,0-41.15,14.3-41.15,48.41s12.32,48.19,41.15,48.19h39.41c14.52,0,20.69-8.8,20.69-20.91s-6.16-18.93-18.27-18.93h-47.77v-22.67h50.41c26.41,0,39.39,16.29,39.39,42.03s-12.98,46.43-46.21,46.43h-37.65c-43.35,0-67.12-24.43-67.12-74.16s23.99-74.38,67.12-74.38h75.94Z"/>
        <path d="M223.36,296.59v148.54h-25.97v-148.54h25.97Z"/>
        <path d="M391.92,296.59v25.97h-50.73v122.57h-26.19v-122.57h-50.73v-25.97h127.65Z"/>
        <path d="M453.74,296.59l41.59,63.6,42.03-63.6h30.81l-59.86,84.5v64.04h-26.19v-64.04l-59.86-84.5h31.47Z"/>
      </g>
      <g>
        <path d="M340.93,120.26h-59.61v59.61c32.92,0,59.61-26.69,59.61-59.61Z"/>
        <path d="M281.32,49.38v.04h58.48c27.29,0,49.42-22.13,49.42-49.42h-107.9c-53.49,0-98.94,35.11-114.51,83.49-3.73,11.6-5.76,23.95-5.76,36.77,0,1.9.05,3.78.14,5.66,26.62-77.85,120.13-76.54,120.13-76.54Z"/>
        <path d="M354.53,215.6h0s0,0,0,0c0,0,0,0-.01,0Z"/>
        <path d="M214.05,142.71l-.57-.07.57.07c-1.51-4.68-2.04-7.56-2.04-7.56,0,0,.52,2.88,2.04,7.56h.05c-2.37-7.05-3.67-14.6-3.67-22.45,0-3.67.28-7.27.82-10.79,5.21-33.98,34.65-60.1,70.06-60.1,0,0-93.51-1.31-120.13,76.54,2.97,63.7,55.71,114.61,120.13,114.61,27.53,0,52.93-9.31,73.22-24.93h0c-103.5,12.51-133.27-50.61-140.48-72.89Z"/>
        <path d="M352.2,120.27c0,39.15-31.73,70.88-70.88,70.88-31.24,0-57.8-20.32-67.22-48.43h-.05c7.22,22.27,36.99,85.39,140.48,72.88l-.02-.02.02.02s0,0,.01,0c28.58-22.01,47.04-56.55,47.04-95.33h-49.38Z"/>
      </g>
    </g>
  </g>
</svg>